G04 #@! TF.GenerationSoftware,KiCad,Pcbnew,(5.1.4)-1*
G04 #@! TF.CreationDate,2019-11-28T20:23:01+01:00*
G04 #@! TF.ProjectId,zillo-mini-devkit,7a696c6c-6f2d-46d6-996e-692d6465766b,rev?*
G04 #@! TF.SameCoordinates,Original*
G04 #@! TF.FileFunction,Soldermask,Top*
G04 #@! TF.FilePolarity,Negative*
%FSLAX46Y46*%
G04 Gerber Fmt 4.6, Leading zero omitted, Abs format (unit mm)*
G04 Created by KiCad (PCBNEW (5.1.4)-1) date 2019-11-28 20:23:01*
%MOMM*%
%LPD*%
G04 APERTURE LIST*
%ADD10C,0.100000*%
G04 APERTURE END LIST*
D10*
G36*
X38210442Y-95625518D02*
G01*
X38276627Y-95632037D01*
X38446466Y-95683557D01*
X38602991Y-95767222D01*
X38638729Y-95796552D01*
X38740186Y-95879814D01*
X38823448Y-95981271D01*
X38852778Y-96017009D01*
X38936443Y-96173534D01*
X38987963Y-96343373D01*
X39005359Y-96520000D01*
X38987963Y-96696627D01*
X38936443Y-96866466D01*
X38852778Y-97022991D01*
X38823448Y-97058729D01*
X38740186Y-97160186D01*
X38638729Y-97243448D01*
X38602991Y-97272778D01*
X38446466Y-97356443D01*
X38276627Y-97407963D01*
X38210442Y-97414482D01*
X38144260Y-97421000D01*
X38055740Y-97421000D01*
X37989558Y-97414482D01*
X37923373Y-97407963D01*
X37753534Y-97356443D01*
X37597009Y-97272778D01*
X37561271Y-97243448D01*
X37459814Y-97160186D01*
X37376552Y-97058729D01*
X37347222Y-97022991D01*
X37263557Y-96866466D01*
X37212037Y-96696627D01*
X37194641Y-96520000D01*
X37212037Y-96343373D01*
X37263557Y-96173534D01*
X37347222Y-96017009D01*
X37376552Y-95981271D01*
X37459814Y-95879814D01*
X37561271Y-95796552D01*
X37597009Y-95767222D01*
X37753534Y-95683557D01*
X37923373Y-95632037D01*
X37989558Y-95625518D01*
X38055740Y-95619000D01*
X38144260Y-95619000D01*
X38210442Y-95625518D01*
X38210442Y-95625518D01*
G37*
G36*
X54241000Y-97421000D02*
G01*
X52439000Y-97421000D01*
X52439000Y-95619000D01*
X54241000Y-95619000D01*
X54241000Y-97421000D01*
X54241000Y-97421000D01*
G37*
G36*
X55990442Y-95625518D02*
G01*
X56056627Y-95632037D01*
X56226466Y-95683557D01*
X56382991Y-95767222D01*
X56418729Y-95796552D01*
X56520186Y-95879814D01*
X56603448Y-95981271D01*
X56632778Y-96017009D01*
X56716443Y-96173534D01*
X56767963Y-96343373D01*
X56785359Y-96520000D01*
X56767963Y-96696627D01*
X56716443Y-96866466D01*
X56632778Y-97022991D01*
X56603448Y-97058729D01*
X56520186Y-97160186D01*
X56418729Y-97243448D01*
X56382991Y-97272778D01*
X56226466Y-97356443D01*
X56056627Y-97407963D01*
X55990442Y-97414482D01*
X55924260Y-97421000D01*
X55835740Y-97421000D01*
X55769558Y-97414482D01*
X55703373Y-97407963D01*
X55533534Y-97356443D01*
X55377009Y-97272778D01*
X55341271Y-97243448D01*
X55239814Y-97160186D01*
X55156552Y-97058729D01*
X55127222Y-97022991D01*
X55043557Y-96866466D01*
X54992037Y-96696627D01*
X54974641Y-96520000D01*
X54992037Y-96343373D01*
X55043557Y-96173534D01*
X55127222Y-96017009D01*
X55156552Y-95981271D01*
X55239814Y-95879814D01*
X55341271Y-95796552D01*
X55377009Y-95767222D01*
X55533534Y-95683557D01*
X55703373Y-95632037D01*
X55769558Y-95625518D01*
X55835740Y-95619000D01*
X55924260Y-95619000D01*
X55990442Y-95625518D01*
X55990442Y-95625518D01*
G37*
G36*
X58530442Y-95625518D02*
G01*
X58596627Y-95632037D01*
X58766466Y-95683557D01*
X58922991Y-95767222D01*
X58958729Y-95796552D01*
X59060186Y-95879814D01*
X59143448Y-95981271D01*
X59172778Y-96017009D01*
X59256443Y-96173534D01*
X59307963Y-96343373D01*
X59325359Y-96520000D01*
X59307963Y-96696627D01*
X59256443Y-96866466D01*
X59172778Y-97022991D01*
X59143448Y-97058729D01*
X59060186Y-97160186D01*
X58958729Y-97243448D01*
X58922991Y-97272778D01*
X58766466Y-97356443D01*
X58596627Y-97407963D01*
X58530442Y-97414482D01*
X58464260Y-97421000D01*
X58375740Y-97421000D01*
X58309558Y-97414482D01*
X58243373Y-97407963D01*
X58073534Y-97356443D01*
X57917009Y-97272778D01*
X57881271Y-97243448D01*
X57779814Y-97160186D01*
X57696552Y-97058729D01*
X57667222Y-97022991D01*
X57583557Y-96866466D01*
X57532037Y-96696627D01*
X57514641Y-96520000D01*
X57532037Y-96343373D01*
X57583557Y-96173534D01*
X57667222Y-96017009D01*
X57696552Y-95981271D01*
X57779814Y-95879814D01*
X57881271Y-95796552D01*
X57917009Y-95767222D01*
X58073534Y-95683557D01*
X58243373Y-95632037D01*
X58309558Y-95625518D01*
X58375740Y-95619000D01*
X58464260Y-95619000D01*
X58530442Y-95625518D01*
X58530442Y-95625518D01*
G37*
G36*
X44081000Y-97421000D02*
G01*
X42279000Y-97421000D01*
X42279000Y-95619000D01*
X44081000Y-95619000D01*
X44081000Y-97421000D01*
X44081000Y-97421000D01*
G37*
G36*
X33921000Y-97421000D02*
G01*
X32119000Y-97421000D01*
X32119000Y-95619000D01*
X33921000Y-95619000D01*
X33921000Y-97421000D01*
X33921000Y-97421000D01*
G37*
G36*
X35670442Y-95625518D02*
G01*
X35736627Y-95632037D01*
X35906466Y-95683557D01*
X36062991Y-95767222D01*
X36098729Y-95796552D01*
X36200186Y-95879814D01*
X36283448Y-95981271D01*
X36312778Y-96017009D01*
X36396443Y-96173534D01*
X36447963Y-96343373D01*
X36465359Y-96520000D01*
X36447963Y-96696627D01*
X36396443Y-96866466D01*
X36312778Y-97022991D01*
X36283448Y-97058729D01*
X36200186Y-97160186D01*
X36098729Y-97243448D01*
X36062991Y-97272778D01*
X35906466Y-97356443D01*
X35736627Y-97407963D01*
X35670442Y-97414482D01*
X35604260Y-97421000D01*
X35515740Y-97421000D01*
X35449558Y-97414482D01*
X35383373Y-97407963D01*
X35213534Y-97356443D01*
X35057009Y-97272778D01*
X35021271Y-97243448D01*
X34919814Y-97160186D01*
X34836552Y-97058729D01*
X34807222Y-97022991D01*
X34723557Y-96866466D01*
X34672037Y-96696627D01*
X34654641Y-96520000D01*
X34672037Y-96343373D01*
X34723557Y-96173534D01*
X34807222Y-96017009D01*
X34836552Y-95981271D01*
X34919814Y-95879814D01*
X35021271Y-95796552D01*
X35057009Y-95767222D01*
X35213534Y-95683557D01*
X35383373Y-95632037D01*
X35449558Y-95625518D01*
X35515740Y-95619000D01*
X35604260Y-95619000D01*
X35670442Y-95625518D01*
X35670442Y-95625518D01*
G37*
G36*
X45830442Y-95625518D02*
G01*
X45896627Y-95632037D01*
X46066466Y-95683557D01*
X46222991Y-95767222D01*
X46258729Y-95796552D01*
X46360186Y-95879814D01*
X46443448Y-95981271D01*
X46472778Y-96017009D01*
X46556443Y-96173534D01*
X46607963Y-96343373D01*
X46625359Y-96520000D01*
X46607963Y-96696627D01*
X46556443Y-96866466D01*
X46472778Y-97022991D01*
X46443448Y-97058729D01*
X46360186Y-97160186D01*
X46258729Y-97243448D01*
X46222991Y-97272778D01*
X46066466Y-97356443D01*
X45896627Y-97407963D01*
X45830442Y-97414482D01*
X45764260Y-97421000D01*
X45675740Y-97421000D01*
X45609558Y-97414482D01*
X45543373Y-97407963D01*
X45373534Y-97356443D01*
X45217009Y-97272778D01*
X45181271Y-97243448D01*
X45079814Y-97160186D01*
X44996552Y-97058729D01*
X44967222Y-97022991D01*
X44883557Y-96866466D01*
X44832037Y-96696627D01*
X44814641Y-96520000D01*
X44832037Y-96343373D01*
X44883557Y-96173534D01*
X44967222Y-96017009D01*
X44996552Y-95981271D01*
X45079814Y-95879814D01*
X45181271Y-95796552D01*
X45217009Y-95767222D01*
X45373534Y-95683557D01*
X45543373Y-95632037D01*
X45609558Y-95625518D01*
X45675740Y-95619000D01*
X45764260Y-95619000D01*
X45830442Y-95625518D01*
X45830442Y-95625518D01*
G37*
G36*
X33921000Y-89801000D02*
G01*
X32119000Y-89801000D01*
X32119000Y-87999000D01*
X33921000Y-87999000D01*
X33921000Y-89801000D01*
X33921000Y-89801000D01*
G37*
G36*
X59321000Y-89801000D02*
G01*
X57519000Y-89801000D01*
X57519000Y-87999000D01*
X59321000Y-87999000D01*
X59321000Y-89801000D01*
X59321000Y-89801000D01*
G37*
G36*
X37956443Y-88005519D02*
G01*
X38022627Y-88012037D01*
X38192466Y-88063557D01*
X38348991Y-88147222D01*
X38384729Y-88176552D01*
X38486186Y-88259814D01*
X38569448Y-88361271D01*
X38598778Y-88397009D01*
X38682443Y-88553534D01*
X38733963Y-88723373D01*
X38751359Y-88900000D01*
X38733963Y-89076627D01*
X38682443Y-89246466D01*
X38598778Y-89402991D01*
X38569448Y-89438729D01*
X38486186Y-89540186D01*
X38384729Y-89623448D01*
X38348991Y-89652778D01*
X38192466Y-89736443D01*
X38022627Y-89787963D01*
X37956443Y-89794481D01*
X37890260Y-89801000D01*
X37801740Y-89801000D01*
X37735557Y-89794481D01*
X37669373Y-89787963D01*
X37499534Y-89736443D01*
X37343009Y-89652778D01*
X37307271Y-89623448D01*
X37205814Y-89540186D01*
X37122552Y-89438729D01*
X37093222Y-89402991D01*
X37009557Y-89246466D01*
X36958037Y-89076627D01*
X36940641Y-88900000D01*
X36958037Y-88723373D01*
X37009557Y-88553534D01*
X37093222Y-88397009D01*
X37122552Y-88361271D01*
X37205814Y-88259814D01*
X37307271Y-88176552D01*
X37343009Y-88147222D01*
X37499534Y-88063557D01*
X37669373Y-88012037D01*
X37735557Y-88005519D01*
X37801740Y-87999000D01*
X37890260Y-87999000D01*
X37956443Y-88005519D01*
X37956443Y-88005519D01*
G37*
G36*
X58530442Y-85465518D02*
G01*
X58596627Y-85472037D01*
X58766466Y-85523557D01*
X58922991Y-85607222D01*
X58958729Y-85636552D01*
X59060186Y-85719814D01*
X59143448Y-85821271D01*
X59172778Y-85857009D01*
X59256443Y-86013534D01*
X59307963Y-86183373D01*
X59325359Y-86360000D01*
X59307963Y-86536627D01*
X59256443Y-86706466D01*
X59172778Y-86862991D01*
X59143448Y-86898729D01*
X59060186Y-87000186D01*
X58958729Y-87083448D01*
X58922991Y-87112778D01*
X58766466Y-87196443D01*
X58596627Y-87247963D01*
X58530442Y-87254482D01*
X58464260Y-87261000D01*
X58375740Y-87261000D01*
X58309558Y-87254482D01*
X58243373Y-87247963D01*
X58073534Y-87196443D01*
X57917009Y-87112778D01*
X57881271Y-87083448D01*
X57779814Y-87000186D01*
X57696552Y-86898729D01*
X57667222Y-86862991D01*
X57583557Y-86706466D01*
X57532037Y-86536627D01*
X57514641Y-86360000D01*
X57532037Y-86183373D01*
X57583557Y-86013534D01*
X57667222Y-85857009D01*
X57696552Y-85821271D01*
X57779814Y-85719814D01*
X57881271Y-85636552D01*
X57917009Y-85607222D01*
X58073534Y-85523557D01*
X58243373Y-85472037D01*
X58309558Y-85465518D01*
X58375740Y-85459000D01*
X58464260Y-85459000D01*
X58530442Y-85465518D01*
X58530442Y-85465518D01*
G37*
G36*
X37956442Y-85465518D02*
G01*
X38022627Y-85472037D01*
X38192466Y-85523557D01*
X38348991Y-85607222D01*
X38384729Y-85636552D01*
X38486186Y-85719814D01*
X38569448Y-85821271D01*
X38598778Y-85857009D01*
X38682443Y-86013534D01*
X38733963Y-86183373D01*
X38751359Y-86360000D01*
X38733963Y-86536627D01*
X38682443Y-86706466D01*
X38598778Y-86862991D01*
X38569448Y-86898729D01*
X38486186Y-87000186D01*
X38384729Y-87083448D01*
X38348991Y-87112778D01*
X38192466Y-87196443D01*
X38022627Y-87247963D01*
X37956442Y-87254482D01*
X37890260Y-87261000D01*
X37801740Y-87261000D01*
X37735558Y-87254482D01*
X37669373Y-87247963D01*
X37499534Y-87196443D01*
X37343009Y-87112778D01*
X37307271Y-87083448D01*
X37205814Y-87000186D01*
X37122552Y-86898729D01*
X37093222Y-86862991D01*
X37009557Y-86706466D01*
X36958037Y-86536627D01*
X36940641Y-86360000D01*
X36958037Y-86183373D01*
X37009557Y-86013534D01*
X37093222Y-85857009D01*
X37122552Y-85821271D01*
X37205814Y-85719814D01*
X37307271Y-85636552D01*
X37343009Y-85607222D01*
X37499534Y-85523557D01*
X37669373Y-85472037D01*
X37735558Y-85465518D01*
X37801740Y-85459000D01*
X37890260Y-85459000D01*
X37956442Y-85465518D01*
X37956442Y-85465518D01*
G37*
G36*
X33130442Y-85465518D02*
G01*
X33196627Y-85472037D01*
X33366466Y-85523557D01*
X33522991Y-85607222D01*
X33558729Y-85636552D01*
X33660186Y-85719814D01*
X33743448Y-85821271D01*
X33772778Y-85857009D01*
X33856443Y-86013534D01*
X33907963Y-86183373D01*
X33925359Y-86360000D01*
X33907963Y-86536627D01*
X33856443Y-86706466D01*
X33772778Y-86862991D01*
X33743448Y-86898729D01*
X33660186Y-87000186D01*
X33558729Y-87083448D01*
X33522991Y-87112778D01*
X33366466Y-87196443D01*
X33196627Y-87247963D01*
X33130442Y-87254482D01*
X33064260Y-87261000D01*
X32975740Y-87261000D01*
X32909558Y-87254482D01*
X32843373Y-87247963D01*
X32673534Y-87196443D01*
X32517009Y-87112778D01*
X32481271Y-87083448D01*
X32379814Y-87000186D01*
X32296552Y-86898729D01*
X32267222Y-86862991D01*
X32183557Y-86706466D01*
X32132037Y-86536627D01*
X32114641Y-86360000D01*
X32132037Y-86183373D01*
X32183557Y-86013534D01*
X32267222Y-85857009D01*
X32296552Y-85821271D01*
X32379814Y-85719814D01*
X32481271Y-85636552D01*
X32517009Y-85607222D01*
X32673534Y-85523557D01*
X32843373Y-85472037D01*
X32909558Y-85465518D01*
X32975740Y-85459000D01*
X33064260Y-85459000D01*
X33130442Y-85465518D01*
X33130442Y-85465518D01*
G37*
G36*
X58530443Y-82925519D02*
G01*
X58596627Y-82932037D01*
X58766466Y-82983557D01*
X58922991Y-83067222D01*
X58958729Y-83096552D01*
X59060186Y-83179814D01*
X59143448Y-83281271D01*
X59172778Y-83317009D01*
X59256443Y-83473534D01*
X59307963Y-83643373D01*
X59325359Y-83820000D01*
X59307963Y-83996627D01*
X59256443Y-84166466D01*
X59172778Y-84322991D01*
X59143448Y-84358729D01*
X59060186Y-84460186D01*
X58958729Y-84543448D01*
X58922991Y-84572778D01*
X58766466Y-84656443D01*
X58596627Y-84707963D01*
X58530443Y-84714481D01*
X58464260Y-84721000D01*
X58375740Y-84721000D01*
X58309557Y-84714481D01*
X58243373Y-84707963D01*
X58073534Y-84656443D01*
X57917009Y-84572778D01*
X57881271Y-84543448D01*
X57779814Y-84460186D01*
X57696552Y-84358729D01*
X57667222Y-84322991D01*
X57583557Y-84166466D01*
X57532037Y-83996627D01*
X57514641Y-83820000D01*
X57532037Y-83643373D01*
X57583557Y-83473534D01*
X57667222Y-83317009D01*
X57696552Y-83281271D01*
X57779814Y-83179814D01*
X57881271Y-83096552D01*
X57917009Y-83067222D01*
X58073534Y-82983557D01*
X58243373Y-82932037D01*
X58309557Y-82925519D01*
X58375740Y-82919000D01*
X58464260Y-82919000D01*
X58530443Y-82925519D01*
X58530443Y-82925519D01*
G37*
G36*
X33130443Y-82925519D02*
G01*
X33196627Y-82932037D01*
X33366466Y-82983557D01*
X33522991Y-83067222D01*
X33558729Y-83096552D01*
X33660186Y-83179814D01*
X33743448Y-83281271D01*
X33772778Y-83317009D01*
X33856443Y-83473534D01*
X33907963Y-83643373D01*
X33925359Y-83820000D01*
X33907963Y-83996627D01*
X33856443Y-84166466D01*
X33772778Y-84322991D01*
X33743448Y-84358729D01*
X33660186Y-84460186D01*
X33558729Y-84543448D01*
X33522991Y-84572778D01*
X33366466Y-84656443D01*
X33196627Y-84707963D01*
X33130443Y-84714481D01*
X33064260Y-84721000D01*
X32975740Y-84721000D01*
X32909557Y-84714481D01*
X32843373Y-84707963D01*
X32673534Y-84656443D01*
X32517009Y-84572778D01*
X32481271Y-84543448D01*
X32379814Y-84460186D01*
X32296552Y-84358729D01*
X32267222Y-84322991D01*
X32183557Y-84166466D01*
X32132037Y-83996627D01*
X32114641Y-83820000D01*
X32132037Y-83643373D01*
X32183557Y-83473534D01*
X32267222Y-83317009D01*
X32296552Y-83281271D01*
X32379814Y-83179814D01*
X32481271Y-83096552D01*
X32517009Y-83067222D01*
X32673534Y-82983557D01*
X32843373Y-82932037D01*
X32909557Y-82925519D01*
X32975740Y-82919000D01*
X33064260Y-82919000D01*
X33130443Y-82925519D01*
X33130443Y-82925519D01*
G37*
G36*
X37956443Y-82925519D02*
G01*
X38022627Y-82932037D01*
X38192466Y-82983557D01*
X38348991Y-83067222D01*
X38384729Y-83096552D01*
X38486186Y-83179814D01*
X38569448Y-83281271D01*
X38598778Y-83317009D01*
X38682443Y-83473534D01*
X38733963Y-83643373D01*
X38751359Y-83820000D01*
X38733963Y-83996627D01*
X38682443Y-84166466D01*
X38598778Y-84322991D01*
X38569448Y-84358729D01*
X38486186Y-84460186D01*
X38384729Y-84543448D01*
X38348991Y-84572778D01*
X38192466Y-84656443D01*
X38022627Y-84707963D01*
X37956443Y-84714481D01*
X37890260Y-84721000D01*
X37801740Y-84721000D01*
X37735557Y-84714481D01*
X37669373Y-84707963D01*
X37499534Y-84656443D01*
X37343009Y-84572778D01*
X37307271Y-84543448D01*
X37205814Y-84460186D01*
X37122552Y-84358729D01*
X37093222Y-84322991D01*
X37009557Y-84166466D01*
X36958037Y-83996627D01*
X36940641Y-83820000D01*
X36958037Y-83643373D01*
X37009557Y-83473534D01*
X37093222Y-83317009D01*
X37122552Y-83281271D01*
X37205814Y-83179814D01*
X37307271Y-83096552D01*
X37343009Y-83067222D01*
X37499534Y-82983557D01*
X37669373Y-82932037D01*
X37735557Y-82925519D01*
X37801740Y-82919000D01*
X37890260Y-82919000D01*
X37956443Y-82925519D01*
X37956443Y-82925519D01*
G37*
G36*
X58530442Y-80385518D02*
G01*
X58596627Y-80392037D01*
X58766466Y-80443557D01*
X58922991Y-80527222D01*
X58958729Y-80556552D01*
X59060186Y-80639814D01*
X59143448Y-80741271D01*
X59172778Y-80777009D01*
X59256443Y-80933534D01*
X59307963Y-81103373D01*
X59325359Y-81280000D01*
X59307963Y-81456627D01*
X59256443Y-81626466D01*
X59172778Y-81782991D01*
X59143448Y-81818729D01*
X59060186Y-81920186D01*
X58958729Y-82003448D01*
X58922991Y-82032778D01*
X58766466Y-82116443D01*
X58596627Y-82167963D01*
X58530443Y-82174481D01*
X58464260Y-82181000D01*
X58375740Y-82181000D01*
X58309557Y-82174481D01*
X58243373Y-82167963D01*
X58073534Y-82116443D01*
X57917009Y-82032778D01*
X57881271Y-82003448D01*
X57779814Y-81920186D01*
X57696552Y-81818729D01*
X57667222Y-81782991D01*
X57583557Y-81626466D01*
X57532037Y-81456627D01*
X57514641Y-81280000D01*
X57532037Y-81103373D01*
X57583557Y-80933534D01*
X57667222Y-80777009D01*
X57696552Y-80741271D01*
X57779814Y-80639814D01*
X57881271Y-80556552D01*
X57917009Y-80527222D01*
X58073534Y-80443557D01*
X58243373Y-80392037D01*
X58309558Y-80385518D01*
X58375740Y-80379000D01*
X58464260Y-80379000D01*
X58530442Y-80385518D01*
X58530442Y-80385518D01*
G37*
G36*
X33130442Y-80385518D02*
G01*
X33196627Y-80392037D01*
X33366466Y-80443557D01*
X33522991Y-80527222D01*
X33558729Y-80556552D01*
X33660186Y-80639814D01*
X33743448Y-80741271D01*
X33772778Y-80777009D01*
X33856443Y-80933534D01*
X33907963Y-81103373D01*
X33925359Y-81280000D01*
X33907963Y-81456627D01*
X33856443Y-81626466D01*
X33772778Y-81782991D01*
X33743448Y-81818729D01*
X33660186Y-81920186D01*
X33558729Y-82003448D01*
X33522991Y-82032778D01*
X33366466Y-82116443D01*
X33196627Y-82167963D01*
X33130443Y-82174481D01*
X33064260Y-82181000D01*
X32975740Y-82181000D01*
X32909557Y-82174481D01*
X32843373Y-82167963D01*
X32673534Y-82116443D01*
X32517009Y-82032778D01*
X32481271Y-82003448D01*
X32379814Y-81920186D01*
X32296552Y-81818729D01*
X32267222Y-81782991D01*
X32183557Y-81626466D01*
X32132037Y-81456627D01*
X32114641Y-81280000D01*
X32132037Y-81103373D01*
X32183557Y-80933534D01*
X32267222Y-80777009D01*
X32296552Y-80741271D01*
X32379814Y-80639814D01*
X32481271Y-80556552D01*
X32517009Y-80527222D01*
X32673534Y-80443557D01*
X32843373Y-80392037D01*
X32909558Y-80385518D01*
X32975740Y-80379000D01*
X33064260Y-80379000D01*
X33130442Y-80385518D01*
X33130442Y-80385518D01*
G37*
G36*
X37956442Y-80385518D02*
G01*
X38022627Y-80392037D01*
X38192466Y-80443557D01*
X38348991Y-80527222D01*
X38384729Y-80556552D01*
X38486186Y-80639814D01*
X38569448Y-80741271D01*
X38598778Y-80777009D01*
X38682443Y-80933534D01*
X38733963Y-81103373D01*
X38751359Y-81280000D01*
X38733963Y-81456627D01*
X38682443Y-81626466D01*
X38598778Y-81782991D01*
X38569448Y-81818729D01*
X38486186Y-81920186D01*
X38384729Y-82003448D01*
X38348991Y-82032778D01*
X38192466Y-82116443D01*
X38022627Y-82167963D01*
X37956443Y-82174481D01*
X37890260Y-82181000D01*
X37801740Y-82181000D01*
X37735557Y-82174481D01*
X37669373Y-82167963D01*
X37499534Y-82116443D01*
X37343009Y-82032778D01*
X37307271Y-82003448D01*
X37205814Y-81920186D01*
X37122552Y-81818729D01*
X37093222Y-81782991D01*
X37009557Y-81626466D01*
X36958037Y-81456627D01*
X36940641Y-81280000D01*
X36958037Y-81103373D01*
X37009557Y-80933534D01*
X37093222Y-80777009D01*
X37122552Y-80741271D01*
X37205814Y-80639814D01*
X37307271Y-80556552D01*
X37343009Y-80527222D01*
X37499534Y-80443557D01*
X37669373Y-80392037D01*
X37735558Y-80385518D01*
X37801740Y-80379000D01*
X37890260Y-80379000D01*
X37956442Y-80385518D01*
X37956442Y-80385518D01*
G37*
G36*
X33130443Y-77845519D02*
G01*
X33196627Y-77852037D01*
X33366466Y-77903557D01*
X33522991Y-77987222D01*
X33558729Y-78016552D01*
X33660186Y-78099814D01*
X33743448Y-78201271D01*
X33772778Y-78237009D01*
X33856443Y-78393534D01*
X33907963Y-78563373D01*
X33925359Y-78740000D01*
X33907963Y-78916627D01*
X33856443Y-79086466D01*
X33772778Y-79242991D01*
X33743448Y-79278729D01*
X33660186Y-79380186D01*
X33558729Y-79463448D01*
X33522991Y-79492778D01*
X33366466Y-79576443D01*
X33196627Y-79627963D01*
X33130442Y-79634482D01*
X33064260Y-79641000D01*
X32975740Y-79641000D01*
X32909558Y-79634482D01*
X32843373Y-79627963D01*
X32673534Y-79576443D01*
X32517009Y-79492778D01*
X32481271Y-79463448D01*
X32379814Y-79380186D01*
X32296552Y-79278729D01*
X32267222Y-79242991D01*
X32183557Y-79086466D01*
X32132037Y-78916627D01*
X32114641Y-78740000D01*
X32132037Y-78563373D01*
X32183557Y-78393534D01*
X32267222Y-78237009D01*
X32296552Y-78201271D01*
X32379814Y-78099814D01*
X32481271Y-78016552D01*
X32517009Y-77987222D01*
X32673534Y-77903557D01*
X32843373Y-77852037D01*
X32909557Y-77845519D01*
X32975740Y-77839000D01*
X33064260Y-77839000D01*
X33130443Y-77845519D01*
X33130443Y-77845519D01*
G37*
G36*
X58530443Y-77845519D02*
G01*
X58596627Y-77852037D01*
X58766466Y-77903557D01*
X58922991Y-77987222D01*
X58958729Y-78016552D01*
X59060186Y-78099814D01*
X59143448Y-78201271D01*
X59172778Y-78237009D01*
X59256443Y-78393534D01*
X59307963Y-78563373D01*
X59325359Y-78740000D01*
X59307963Y-78916627D01*
X59256443Y-79086466D01*
X59172778Y-79242991D01*
X59143448Y-79278729D01*
X59060186Y-79380186D01*
X58958729Y-79463448D01*
X58922991Y-79492778D01*
X58766466Y-79576443D01*
X58596627Y-79627963D01*
X58530442Y-79634482D01*
X58464260Y-79641000D01*
X58375740Y-79641000D01*
X58309558Y-79634482D01*
X58243373Y-79627963D01*
X58073534Y-79576443D01*
X57917009Y-79492778D01*
X57881271Y-79463448D01*
X57779814Y-79380186D01*
X57696552Y-79278729D01*
X57667222Y-79242991D01*
X57583557Y-79086466D01*
X57532037Y-78916627D01*
X57514641Y-78740000D01*
X57532037Y-78563373D01*
X57583557Y-78393534D01*
X57667222Y-78237009D01*
X57696552Y-78201271D01*
X57779814Y-78099814D01*
X57881271Y-78016552D01*
X57917009Y-77987222D01*
X58073534Y-77903557D01*
X58243373Y-77852037D01*
X58309557Y-77845519D01*
X58375740Y-77839000D01*
X58464260Y-77839000D01*
X58530443Y-77845519D01*
X58530443Y-77845519D01*
G37*
G36*
X37956443Y-77845519D02*
G01*
X38022627Y-77852037D01*
X38192466Y-77903557D01*
X38348991Y-77987222D01*
X38384729Y-78016552D01*
X38486186Y-78099814D01*
X38569448Y-78201271D01*
X38598778Y-78237009D01*
X38682443Y-78393534D01*
X38733963Y-78563373D01*
X38751359Y-78740000D01*
X38733963Y-78916627D01*
X38682443Y-79086466D01*
X38598778Y-79242991D01*
X38569448Y-79278729D01*
X38486186Y-79380186D01*
X38384729Y-79463448D01*
X38348991Y-79492778D01*
X38192466Y-79576443D01*
X38022627Y-79627963D01*
X37956442Y-79634482D01*
X37890260Y-79641000D01*
X37801740Y-79641000D01*
X37735558Y-79634482D01*
X37669373Y-79627963D01*
X37499534Y-79576443D01*
X37343009Y-79492778D01*
X37307271Y-79463448D01*
X37205814Y-79380186D01*
X37122552Y-79278729D01*
X37093222Y-79242991D01*
X37009557Y-79086466D01*
X36958037Y-78916627D01*
X36940641Y-78740000D01*
X36958037Y-78563373D01*
X37009557Y-78393534D01*
X37093222Y-78237009D01*
X37122552Y-78201271D01*
X37205814Y-78099814D01*
X37307271Y-78016552D01*
X37343009Y-77987222D01*
X37499534Y-77903557D01*
X37669373Y-77852037D01*
X37735557Y-77845519D01*
X37801740Y-77839000D01*
X37890260Y-77839000D01*
X37956443Y-77845519D01*
X37956443Y-77845519D01*
G37*
G36*
X58530442Y-75305518D02*
G01*
X58596627Y-75312037D01*
X58766466Y-75363557D01*
X58922991Y-75447222D01*
X58958729Y-75476552D01*
X59060186Y-75559814D01*
X59143448Y-75661271D01*
X59172778Y-75697009D01*
X59256443Y-75853534D01*
X59307963Y-76023373D01*
X59325359Y-76200000D01*
X59307963Y-76376627D01*
X59256443Y-76546466D01*
X59172778Y-76702991D01*
X59143448Y-76738729D01*
X59060186Y-76840186D01*
X58958729Y-76923448D01*
X58922991Y-76952778D01*
X58766466Y-77036443D01*
X58596627Y-77087963D01*
X58530442Y-77094482D01*
X58464260Y-77101000D01*
X58375740Y-77101000D01*
X58309558Y-77094482D01*
X58243373Y-77087963D01*
X58073534Y-77036443D01*
X57917009Y-76952778D01*
X57881271Y-76923448D01*
X57779814Y-76840186D01*
X57696552Y-76738729D01*
X57667222Y-76702991D01*
X57583557Y-76546466D01*
X57532037Y-76376627D01*
X57514641Y-76200000D01*
X57532037Y-76023373D01*
X57583557Y-75853534D01*
X57667222Y-75697009D01*
X57696552Y-75661271D01*
X57779814Y-75559814D01*
X57881271Y-75476552D01*
X57917009Y-75447222D01*
X58073534Y-75363557D01*
X58243373Y-75312037D01*
X58309558Y-75305518D01*
X58375740Y-75299000D01*
X58464260Y-75299000D01*
X58530442Y-75305518D01*
X58530442Y-75305518D01*
G37*
G36*
X33130442Y-75305518D02*
G01*
X33196627Y-75312037D01*
X33366466Y-75363557D01*
X33522991Y-75447222D01*
X33558729Y-75476552D01*
X33660186Y-75559814D01*
X33743448Y-75661271D01*
X33772778Y-75697009D01*
X33856443Y-75853534D01*
X33907963Y-76023373D01*
X33925359Y-76200000D01*
X33907963Y-76376627D01*
X33856443Y-76546466D01*
X33772778Y-76702991D01*
X33743448Y-76738729D01*
X33660186Y-76840186D01*
X33558729Y-76923448D01*
X33522991Y-76952778D01*
X33366466Y-77036443D01*
X33196627Y-77087963D01*
X33130442Y-77094482D01*
X33064260Y-77101000D01*
X32975740Y-77101000D01*
X32909558Y-77094482D01*
X32843373Y-77087963D01*
X32673534Y-77036443D01*
X32517009Y-76952778D01*
X32481271Y-76923448D01*
X32379814Y-76840186D01*
X32296552Y-76738729D01*
X32267222Y-76702991D01*
X32183557Y-76546466D01*
X32132037Y-76376627D01*
X32114641Y-76200000D01*
X32132037Y-76023373D01*
X32183557Y-75853534D01*
X32267222Y-75697009D01*
X32296552Y-75661271D01*
X32379814Y-75559814D01*
X32481271Y-75476552D01*
X32517009Y-75447222D01*
X32673534Y-75363557D01*
X32843373Y-75312037D01*
X32909558Y-75305518D01*
X32975740Y-75299000D01*
X33064260Y-75299000D01*
X33130442Y-75305518D01*
X33130442Y-75305518D01*
G37*
G36*
X37956442Y-75305518D02*
G01*
X38022627Y-75312037D01*
X38192466Y-75363557D01*
X38348991Y-75447222D01*
X38384729Y-75476552D01*
X38486186Y-75559814D01*
X38569448Y-75661271D01*
X38598778Y-75697009D01*
X38682443Y-75853534D01*
X38733963Y-76023373D01*
X38751359Y-76200000D01*
X38733963Y-76376627D01*
X38682443Y-76546466D01*
X38598778Y-76702991D01*
X38569448Y-76738729D01*
X38486186Y-76840186D01*
X38384729Y-76923448D01*
X38348991Y-76952778D01*
X38192466Y-77036443D01*
X38022627Y-77087963D01*
X37956442Y-77094482D01*
X37890260Y-77101000D01*
X37801740Y-77101000D01*
X37735558Y-77094482D01*
X37669373Y-77087963D01*
X37499534Y-77036443D01*
X37343009Y-76952778D01*
X37307271Y-76923448D01*
X37205814Y-76840186D01*
X37122552Y-76738729D01*
X37093222Y-76702991D01*
X37009557Y-76546466D01*
X36958037Y-76376627D01*
X36940641Y-76200000D01*
X36958037Y-76023373D01*
X37009557Y-75853534D01*
X37093222Y-75697009D01*
X37122552Y-75661271D01*
X37205814Y-75559814D01*
X37307271Y-75476552D01*
X37343009Y-75447222D01*
X37499534Y-75363557D01*
X37669373Y-75312037D01*
X37735558Y-75305518D01*
X37801740Y-75299000D01*
X37890260Y-75299000D01*
X37956442Y-75305518D01*
X37956442Y-75305518D01*
G37*
G36*
X37956442Y-72765518D02*
G01*
X38022627Y-72772037D01*
X38192466Y-72823557D01*
X38348991Y-72907222D01*
X38384729Y-72936552D01*
X38486186Y-73019814D01*
X38569448Y-73121271D01*
X38598778Y-73157009D01*
X38682443Y-73313534D01*
X38733963Y-73483373D01*
X38751359Y-73660000D01*
X38733963Y-73836627D01*
X38682443Y-74006466D01*
X38598778Y-74162991D01*
X38569448Y-74198729D01*
X38486186Y-74300186D01*
X38384729Y-74383448D01*
X38348991Y-74412778D01*
X38192466Y-74496443D01*
X38022627Y-74547963D01*
X37956442Y-74554482D01*
X37890260Y-74561000D01*
X37801740Y-74561000D01*
X37735558Y-74554482D01*
X37669373Y-74547963D01*
X37499534Y-74496443D01*
X37343009Y-74412778D01*
X37307271Y-74383448D01*
X37205814Y-74300186D01*
X37122552Y-74198729D01*
X37093222Y-74162991D01*
X37009557Y-74006466D01*
X36958037Y-73836627D01*
X36940641Y-73660000D01*
X36958037Y-73483373D01*
X37009557Y-73313534D01*
X37093222Y-73157009D01*
X37122552Y-73121271D01*
X37205814Y-73019814D01*
X37307271Y-72936552D01*
X37343009Y-72907222D01*
X37499534Y-72823557D01*
X37669373Y-72772037D01*
X37735558Y-72765518D01*
X37801740Y-72759000D01*
X37890260Y-72759000D01*
X37956442Y-72765518D01*
X37956442Y-72765518D01*
G37*
G36*
X58530442Y-72765518D02*
G01*
X58596627Y-72772037D01*
X58766466Y-72823557D01*
X58922991Y-72907222D01*
X58958729Y-72936552D01*
X59060186Y-73019814D01*
X59143448Y-73121271D01*
X59172778Y-73157009D01*
X59256443Y-73313534D01*
X59307963Y-73483373D01*
X59325359Y-73660000D01*
X59307963Y-73836627D01*
X59256443Y-74006466D01*
X59172778Y-74162991D01*
X59143448Y-74198729D01*
X59060186Y-74300186D01*
X58958729Y-74383448D01*
X58922991Y-74412778D01*
X58766466Y-74496443D01*
X58596627Y-74547963D01*
X58530442Y-74554482D01*
X58464260Y-74561000D01*
X58375740Y-74561000D01*
X58309558Y-74554482D01*
X58243373Y-74547963D01*
X58073534Y-74496443D01*
X57917009Y-74412778D01*
X57881271Y-74383448D01*
X57779814Y-74300186D01*
X57696552Y-74198729D01*
X57667222Y-74162991D01*
X57583557Y-74006466D01*
X57532037Y-73836627D01*
X57514641Y-73660000D01*
X57532037Y-73483373D01*
X57583557Y-73313534D01*
X57667222Y-73157009D01*
X57696552Y-73121271D01*
X57779814Y-73019814D01*
X57881271Y-72936552D01*
X57917009Y-72907222D01*
X58073534Y-72823557D01*
X58243373Y-72772037D01*
X58309558Y-72765518D01*
X58375740Y-72759000D01*
X58464260Y-72759000D01*
X58530442Y-72765518D01*
X58530442Y-72765518D01*
G37*
G36*
X33130442Y-72765518D02*
G01*
X33196627Y-72772037D01*
X33366466Y-72823557D01*
X33522991Y-72907222D01*
X33558729Y-72936552D01*
X33660186Y-73019814D01*
X33743448Y-73121271D01*
X33772778Y-73157009D01*
X33856443Y-73313534D01*
X33907963Y-73483373D01*
X33925359Y-73660000D01*
X33907963Y-73836627D01*
X33856443Y-74006466D01*
X33772778Y-74162991D01*
X33743448Y-74198729D01*
X33660186Y-74300186D01*
X33558729Y-74383448D01*
X33522991Y-74412778D01*
X33366466Y-74496443D01*
X33196627Y-74547963D01*
X33130442Y-74554482D01*
X33064260Y-74561000D01*
X32975740Y-74561000D01*
X32909558Y-74554482D01*
X32843373Y-74547963D01*
X32673534Y-74496443D01*
X32517009Y-74412778D01*
X32481271Y-74383448D01*
X32379814Y-74300186D01*
X32296552Y-74198729D01*
X32267222Y-74162991D01*
X32183557Y-74006466D01*
X32132037Y-73836627D01*
X32114641Y-73660000D01*
X32132037Y-73483373D01*
X32183557Y-73313534D01*
X32267222Y-73157009D01*
X32296552Y-73121271D01*
X32379814Y-73019814D01*
X32481271Y-72936552D01*
X32517009Y-72907222D01*
X32673534Y-72823557D01*
X32843373Y-72772037D01*
X32909558Y-72765518D01*
X32975740Y-72759000D01*
X33064260Y-72759000D01*
X33130442Y-72765518D01*
X33130442Y-72765518D01*
G37*
G36*
X38747000Y-72021000D02*
G01*
X36945000Y-72021000D01*
X36945000Y-70219000D01*
X38747000Y-70219000D01*
X38747000Y-72021000D01*
X38747000Y-72021000D01*
G37*
G36*
X58530442Y-70225518D02*
G01*
X58596627Y-70232037D01*
X58766466Y-70283557D01*
X58922991Y-70367222D01*
X58958729Y-70396552D01*
X59060186Y-70479814D01*
X59143448Y-70581271D01*
X59172778Y-70617009D01*
X59256443Y-70773534D01*
X59307963Y-70943373D01*
X59325359Y-71120000D01*
X59307963Y-71296627D01*
X59256443Y-71466466D01*
X59172778Y-71622991D01*
X59143448Y-71658729D01*
X59060186Y-71760186D01*
X58958729Y-71843448D01*
X58922991Y-71872778D01*
X58766466Y-71956443D01*
X58596627Y-72007963D01*
X58530443Y-72014481D01*
X58464260Y-72021000D01*
X58375740Y-72021000D01*
X58309557Y-72014481D01*
X58243373Y-72007963D01*
X58073534Y-71956443D01*
X57917009Y-71872778D01*
X57881271Y-71843448D01*
X57779814Y-71760186D01*
X57696552Y-71658729D01*
X57667222Y-71622991D01*
X57583557Y-71466466D01*
X57532037Y-71296627D01*
X57514641Y-71120000D01*
X57532037Y-70943373D01*
X57583557Y-70773534D01*
X57667222Y-70617009D01*
X57696552Y-70581271D01*
X57779814Y-70479814D01*
X57881271Y-70396552D01*
X57917009Y-70367222D01*
X58073534Y-70283557D01*
X58243373Y-70232037D01*
X58309558Y-70225518D01*
X58375740Y-70219000D01*
X58464260Y-70219000D01*
X58530442Y-70225518D01*
X58530442Y-70225518D01*
G37*
G36*
X33130442Y-70225518D02*
G01*
X33196627Y-70232037D01*
X33366466Y-70283557D01*
X33522991Y-70367222D01*
X33558729Y-70396552D01*
X33660186Y-70479814D01*
X33743448Y-70581271D01*
X33772778Y-70617009D01*
X33856443Y-70773534D01*
X33907963Y-70943373D01*
X33925359Y-71120000D01*
X33907963Y-71296627D01*
X33856443Y-71466466D01*
X33772778Y-71622991D01*
X33743448Y-71658729D01*
X33660186Y-71760186D01*
X33558729Y-71843448D01*
X33522991Y-71872778D01*
X33366466Y-71956443D01*
X33196627Y-72007963D01*
X33130443Y-72014481D01*
X33064260Y-72021000D01*
X32975740Y-72021000D01*
X32909557Y-72014481D01*
X32843373Y-72007963D01*
X32673534Y-71956443D01*
X32517009Y-71872778D01*
X32481271Y-71843448D01*
X32379814Y-71760186D01*
X32296552Y-71658729D01*
X32267222Y-71622991D01*
X32183557Y-71466466D01*
X32132037Y-71296627D01*
X32114641Y-71120000D01*
X32132037Y-70943373D01*
X32183557Y-70773534D01*
X32267222Y-70617009D01*
X32296552Y-70581271D01*
X32379814Y-70479814D01*
X32481271Y-70396552D01*
X32517009Y-70367222D01*
X32673534Y-70283557D01*
X32843373Y-70232037D01*
X32909558Y-70225518D01*
X32975740Y-70219000D01*
X33064260Y-70219000D01*
X33130442Y-70225518D01*
X33130442Y-70225518D01*
G37*
G36*
X58530443Y-67685519D02*
G01*
X58596627Y-67692037D01*
X58766466Y-67743557D01*
X58922991Y-67827222D01*
X58958729Y-67856552D01*
X59060186Y-67939814D01*
X59143448Y-68041271D01*
X59172778Y-68077009D01*
X59256443Y-68233534D01*
X59307963Y-68403373D01*
X59325359Y-68580000D01*
X59307963Y-68756627D01*
X59256443Y-68926466D01*
X59172778Y-69082991D01*
X59143448Y-69118729D01*
X59060186Y-69220186D01*
X58958729Y-69303448D01*
X58922991Y-69332778D01*
X58766466Y-69416443D01*
X58596627Y-69467963D01*
X58530442Y-69474482D01*
X58464260Y-69481000D01*
X58375740Y-69481000D01*
X58309558Y-69474482D01*
X58243373Y-69467963D01*
X58073534Y-69416443D01*
X57917009Y-69332778D01*
X57881271Y-69303448D01*
X57779814Y-69220186D01*
X57696552Y-69118729D01*
X57667222Y-69082991D01*
X57583557Y-68926466D01*
X57532037Y-68756627D01*
X57514641Y-68580000D01*
X57532037Y-68403373D01*
X57583557Y-68233534D01*
X57667222Y-68077009D01*
X57696552Y-68041271D01*
X57779814Y-67939814D01*
X57881271Y-67856552D01*
X57917009Y-67827222D01*
X58073534Y-67743557D01*
X58243373Y-67692037D01*
X58309557Y-67685519D01*
X58375740Y-67679000D01*
X58464260Y-67679000D01*
X58530443Y-67685519D01*
X58530443Y-67685519D01*
G37*
G36*
X33130443Y-67685519D02*
G01*
X33196627Y-67692037D01*
X33366466Y-67743557D01*
X33522991Y-67827222D01*
X33558729Y-67856552D01*
X33660186Y-67939814D01*
X33743448Y-68041271D01*
X33772778Y-68077009D01*
X33856443Y-68233534D01*
X33907963Y-68403373D01*
X33925359Y-68580000D01*
X33907963Y-68756627D01*
X33856443Y-68926466D01*
X33772778Y-69082991D01*
X33743448Y-69118729D01*
X33660186Y-69220186D01*
X33558729Y-69303448D01*
X33522991Y-69332778D01*
X33366466Y-69416443D01*
X33196627Y-69467963D01*
X33130442Y-69474482D01*
X33064260Y-69481000D01*
X32975740Y-69481000D01*
X32909558Y-69474482D01*
X32843373Y-69467963D01*
X32673534Y-69416443D01*
X32517009Y-69332778D01*
X32481271Y-69303448D01*
X32379814Y-69220186D01*
X32296552Y-69118729D01*
X32267222Y-69082991D01*
X32183557Y-68926466D01*
X32132037Y-68756627D01*
X32114641Y-68580000D01*
X32132037Y-68403373D01*
X32183557Y-68233534D01*
X32267222Y-68077009D01*
X32296552Y-68041271D01*
X32379814Y-67939814D01*
X32481271Y-67856552D01*
X32517009Y-67827222D01*
X32673534Y-67743557D01*
X32843373Y-67692037D01*
X32909557Y-67685519D01*
X32975740Y-67679000D01*
X33064260Y-67679000D01*
X33130443Y-67685519D01*
X33130443Y-67685519D01*
G37*
G36*
X33130442Y-65145518D02*
G01*
X33196627Y-65152037D01*
X33366466Y-65203557D01*
X33522991Y-65287222D01*
X33558729Y-65316552D01*
X33660186Y-65399814D01*
X33743448Y-65501271D01*
X33772778Y-65537009D01*
X33856443Y-65693534D01*
X33907963Y-65863373D01*
X33925359Y-66040000D01*
X33907963Y-66216627D01*
X33856443Y-66386466D01*
X33772778Y-66542991D01*
X33743448Y-66578729D01*
X33660186Y-66680186D01*
X33558729Y-66763448D01*
X33522991Y-66792778D01*
X33366466Y-66876443D01*
X33196627Y-66927963D01*
X33130442Y-66934482D01*
X33064260Y-66941000D01*
X32975740Y-66941000D01*
X32909558Y-66934482D01*
X32843373Y-66927963D01*
X32673534Y-66876443D01*
X32517009Y-66792778D01*
X32481271Y-66763448D01*
X32379814Y-66680186D01*
X32296552Y-66578729D01*
X32267222Y-66542991D01*
X32183557Y-66386466D01*
X32132037Y-66216627D01*
X32114641Y-66040000D01*
X32132037Y-65863373D01*
X32183557Y-65693534D01*
X32267222Y-65537009D01*
X32296552Y-65501271D01*
X32379814Y-65399814D01*
X32481271Y-65316552D01*
X32517009Y-65287222D01*
X32673534Y-65203557D01*
X32843373Y-65152037D01*
X32909558Y-65145518D01*
X32975740Y-65139000D01*
X33064260Y-65139000D01*
X33130442Y-65145518D01*
X33130442Y-65145518D01*
G37*
G36*
X58530442Y-65145518D02*
G01*
X58596627Y-65152037D01*
X58766466Y-65203557D01*
X58922991Y-65287222D01*
X58958729Y-65316552D01*
X59060186Y-65399814D01*
X59143448Y-65501271D01*
X59172778Y-65537009D01*
X59256443Y-65693534D01*
X59307963Y-65863373D01*
X59325359Y-66040000D01*
X59307963Y-66216627D01*
X59256443Y-66386466D01*
X59172778Y-66542991D01*
X59143448Y-66578729D01*
X59060186Y-66680186D01*
X58958729Y-66763448D01*
X58922991Y-66792778D01*
X58766466Y-66876443D01*
X58596627Y-66927963D01*
X58530442Y-66934482D01*
X58464260Y-66941000D01*
X58375740Y-66941000D01*
X58309558Y-66934482D01*
X58243373Y-66927963D01*
X58073534Y-66876443D01*
X57917009Y-66792778D01*
X57881271Y-66763448D01*
X57779814Y-66680186D01*
X57696552Y-66578729D01*
X57667222Y-66542991D01*
X57583557Y-66386466D01*
X57532037Y-66216627D01*
X57514641Y-66040000D01*
X57532037Y-65863373D01*
X57583557Y-65693534D01*
X57667222Y-65537009D01*
X57696552Y-65501271D01*
X57779814Y-65399814D01*
X57881271Y-65316552D01*
X57917009Y-65287222D01*
X58073534Y-65203557D01*
X58243373Y-65152037D01*
X58309558Y-65145518D01*
X58375740Y-65139000D01*
X58464260Y-65139000D01*
X58530442Y-65145518D01*
X58530442Y-65145518D01*
G37*
G36*
X58530442Y-62605518D02*
G01*
X58596627Y-62612037D01*
X58766466Y-62663557D01*
X58922991Y-62747222D01*
X58958729Y-62776552D01*
X59060186Y-62859814D01*
X59143448Y-62961271D01*
X59172778Y-62997009D01*
X59256443Y-63153534D01*
X59307963Y-63323373D01*
X59325359Y-63500000D01*
X59307963Y-63676627D01*
X59256443Y-63846466D01*
X59172778Y-64002991D01*
X59143448Y-64038729D01*
X59060186Y-64140186D01*
X58958729Y-64223448D01*
X58922991Y-64252778D01*
X58766466Y-64336443D01*
X58596627Y-64387963D01*
X58530442Y-64394482D01*
X58464260Y-64401000D01*
X58375740Y-64401000D01*
X58309558Y-64394482D01*
X58243373Y-64387963D01*
X58073534Y-64336443D01*
X57917009Y-64252778D01*
X57881271Y-64223448D01*
X57779814Y-64140186D01*
X57696552Y-64038729D01*
X57667222Y-64002991D01*
X57583557Y-63846466D01*
X57532037Y-63676627D01*
X57514641Y-63500000D01*
X57532037Y-63323373D01*
X57583557Y-63153534D01*
X57667222Y-62997009D01*
X57696552Y-62961271D01*
X57779814Y-62859814D01*
X57881271Y-62776552D01*
X57917009Y-62747222D01*
X58073534Y-62663557D01*
X58243373Y-62612037D01*
X58309558Y-62605518D01*
X58375740Y-62599000D01*
X58464260Y-62599000D01*
X58530442Y-62605518D01*
X58530442Y-62605518D01*
G37*
G36*
X33130442Y-62605518D02*
G01*
X33196627Y-62612037D01*
X33366466Y-62663557D01*
X33522991Y-62747222D01*
X33558729Y-62776552D01*
X33660186Y-62859814D01*
X33743448Y-62961271D01*
X33772778Y-62997009D01*
X33856443Y-63153534D01*
X33907963Y-63323373D01*
X33925359Y-63500000D01*
X33907963Y-63676627D01*
X33856443Y-63846466D01*
X33772778Y-64002991D01*
X33743448Y-64038729D01*
X33660186Y-64140186D01*
X33558729Y-64223448D01*
X33522991Y-64252778D01*
X33366466Y-64336443D01*
X33196627Y-64387963D01*
X33130442Y-64394482D01*
X33064260Y-64401000D01*
X32975740Y-64401000D01*
X32909558Y-64394482D01*
X32843373Y-64387963D01*
X32673534Y-64336443D01*
X32517009Y-64252778D01*
X32481271Y-64223448D01*
X32379814Y-64140186D01*
X32296552Y-64038729D01*
X32267222Y-64002991D01*
X32183557Y-63846466D01*
X32132037Y-63676627D01*
X32114641Y-63500000D01*
X32132037Y-63323373D01*
X32183557Y-63153534D01*
X32267222Y-62997009D01*
X32296552Y-62961271D01*
X32379814Y-62859814D01*
X32481271Y-62776552D01*
X32517009Y-62747222D01*
X32673534Y-62663557D01*
X32843373Y-62612037D01*
X32909558Y-62605518D01*
X32975740Y-62599000D01*
X33064260Y-62599000D01*
X33130442Y-62605518D01*
X33130442Y-62605518D01*
G37*
G36*
X58530442Y-60065518D02*
G01*
X58596627Y-60072037D01*
X58766466Y-60123557D01*
X58922991Y-60207222D01*
X58958729Y-60236552D01*
X59060186Y-60319814D01*
X59143448Y-60421271D01*
X59172778Y-60457009D01*
X59256443Y-60613534D01*
X59307963Y-60783373D01*
X59325359Y-60960000D01*
X59307963Y-61136627D01*
X59256443Y-61306466D01*
X59172778Y-61462991D01*
X59143448Y-61498729D01*
X59060186Y-61600186D01*
X58958729Y-61683448D01*
X58922991Y-61712778D01*
X58766466Y-61796443D01*
X58596627Y-61847963D01*
X58530443Y-61854481D01*
X58464260Y-61861000D01*
X58375740Y-61861000D01*
X58309557Y-61854481D01*
X58243373Y-61847963D01*
X58073534Y-61796443D01*
X57917009Y-61712778D01*
X57881271Y-61683448D01*
X57779814Y-61600186D01*
X57696552Y-61498729D01*
X57667222Y-61462991D01*
X57583557Y-61306466D01*
X57532037Y-61136627D01*
X57514641Y-60960000D01*
X57532037Y-60783373D01*
X57583557Y-60613534D01*
X57667222Y-60457009D01*
X57696552Y-60421271D01*
X57779814Y-60319814D01*
X57881271Y-60236552D01*
X57917009Y-60207222D01*
X58073534Y-60123557D01*
X58243373Y-60072037D01*
X58309558Y-60065518D01*
X58375740Y-60059000D01*
X58464260Y-60059000D01*
X58530442Y-60065518D01*
X58530442Y-60065518D01*
G37*
G36*
X33130442Y-60065518D02*
G01*
X33196627Y-60072037D01*
X33366466Y-60123557D01*
X33522991Y-60207222D01*
X33558729Y-60236552D01*
X33660186Y-60319814D01*
X33743448Y-60421271D01*
X33772778Y-60457009D01*
X33856443Y-60613534D01*
X33907963Y-60783373D01*
X33925359Y-60960000D01*
X33907963Y-61136627D01*
X33856443Y-61306466D01*
X33772778Y-61462991D01*
X33743448Y-61498729D01*
X33660186Y-61600186D01*
X33558729Y-61683448D01*
X33522991Y-61712778D01*
X33366466Y-61796443D01*
X33196627Y-61847963D01*
X33130443Y-61854481D01*
X33064260Y-61861000D01*
X32975740Y-61861000D01*
X32909557Y-61854481D01*
X32843373Y-61847963D01*
X32673534Y-61796443D01*
X32517009Y-61712778D01*
X32481271Y-61683448D01*
X32379814Y-61600186D01*
X32296552Y-61498729D01*
X32267222Y-61462991D01*
X32183557Y-61306466D01*
X32132037Y-61136627D01*
X32114641Y-60960000D01*
X32132037Y-60783373D01*
X32183557Y-60613534D01*
X32267222Y-60457009D01*
X32296552Y-60421271D01*
X32379814Y-60319814D01*
X32481271Y-60236552D01*
X32517009Y-60207222D01*
X32673534Y-60123557D01*
X32843373Y-60072037D01*
X32909558Y-60065518D01*
X32975740Y-60059000D01*
X33064260Y-60059000D01*
X33130442Y-60065518D01*
X33130442Y-60065518D01*
G37*
G36*
X58530443Y-57525519D02*
G01*
X58596627Y-57532037D01*
X58766466Y-57583557D01*
X58922991Y-57667222D01*
X58958729Y-57696552D01*
X59060186Y-57779814D01*
X59143448Y-57881271D01*
X59172778Y-57917009D01*
X59256443Y-58073534D01*
X59307963Y-58243373D01*
X59325359Y-58420000D01*
X59307963Y-58596627D01*
X59256443Y-58766466D01*
X59172778Y-58922991D01*
X59143448Y-58958729D01*
X59060186Y-59060186D01*
X58958729Y-59143448D01*
X58922991Y-59172778D01*
X58766466Y-59256443D01*
X58596627Y-59307963D01*
X58530442Y-59314482D01*
X58464260Y-59321000D01*
X58375740Y-59321000D01*
X58309558Y-59314482D01*
X58243373Y-59307963D01*
X58073534Y-59256443D01*
X57917009Y-59172778D01*
X57881271Y-59143448D01*
X57779814Y-59060186D01*
X57696552Y-58958729D01*
X57667222Y-58922991D01*
X57583557Y-58766466D01*
X57532037Y-58596627D01*
X57514641Y-58420000D01*
X57532037Y-58243373D01*
X57583557Y-58073534D01*
X57667222Y-57917009D01*
X57696552Y-57881271D01*
X57779814Y-57779814D01*
X57881271Y-57696552D01*
X57917009Y-57667222D01*
X58073534Y-57583557D01*
X58243373Y-57532037D01*
X58309557Y-57525519D01*
X58375740Y-57519000D01*
X58464260Y-57519000D01*
X58530443Y-57525519D01*
X58530443Y-57525519D01*
G37*
G36*
X33130443Y-57525519D02*
G01*
X33196627Y-57532037D01*
X33366466Y-57583557D01*
X33522991Y-57667222D01*
X33558729Y-57696552D01*
X33660186Y-57779814D01*
X33743448Y-57881271D01*
X33772778Y-57917009D01*
X33856443Y-58073534D01*
X33907963Y-58243373D01*
X33925359Y-58420000D01*
X33907963Y-58596627D01*
X33856443Y-58766466D01*
X33772778Y-58922991D01*
X33743448Y-58958729D01*
X33660186Y-59060186D01*
X33558729Y-59143448D01*
X33522991Y-59172778D01*
X33366466Y-59256443D01*
X33196627Y-59307963D01*
X33130442Y-59314482D01*
X33064260Y-59321000D01*
X32975740Y-59321000D01*
X32909558Y-59314482D01*
X32843373Y-59307963D01*
X32673534Y-59256443D01*
X32517009Y-59172778D01*
X32481271Y-59143448D01*
X32379814Y-59060186D01*
X32296552Y-58958729D01*
X32267222Y-58922991D01*
X32183557Y-58766466D01*
X32132037Y-58596627D01*
X32114641Y-58420000D01*
X32132037Y-58243373D01*
X32183557Y-58073534D01*
X32267222Y-57917009D01*
X32296552Y-57881271D01*
X32379814Y-57779814D01*
X32481271Y-57696552D01*
X32517009Y-57667222D01*
X32673534Y-57583557D01*
X32843373Y-57532037D01*
X32909557Y-57525519D01*
X32975740Y-57519000D01*
X33064260Y-57519000D01*
X33130443Y-57525519D01*
X33130443Y-57525519D01*
G37*
G36*
X58530443Y-54985519D02*
G01*
X58596627Y-54992037D01*
X58766466Y-55043557D01*
X58922991Y-55127222D01*
X58958729Y-55156552D01*
X59060186Y-55239814D01*
X59143448Y-55341271D01*
X59172778Y-55377009D01*
X59256443Y-55533534D01*
X59307963Y-55703373D01*
X59325359Y-55880000D01*
X59307963Y-56056627D01*
X59256443Y-56226466D01*
X59172778Y-56382991D01*
X59143448Y-56418729D01*
X59060186Y-56520186D01*
X58958729Y-56603448D01*
X58922991Y-56632778D01*
X58766466Y-56716443D01*
X58596627Y-56767963D01*
X58530443Y-56774481D01*
X58464260Y-56781000D01*
X58375740Y-56781000D01*
X58309557Y-56774481D01*
X58243373Y-56767963D01*
X58073534Y-56716443D01*
X57917009Y-56632778D01*
X57881271Y-56603448D01*
X57779814Y-56520186D01*
X57696552Y-56418729D01*
X57667222Y-56382991D01*
X57583557Y-56226466D01*
X57532037Y-56056627D01*
X57514641Y-55880000D01*
X57532037Y-55703373D01*
X57583557Y-55533534D01*
X57667222Y-55377009D01*
X57696552Y-55341271D01*
X57779814Y-55239814D01*
X57881271Y-55156552D01*
X57917009Y-55127222D01*
X58073534Y-55043557D01*
X58243373Y-54992037D01*
X58309557Y-54985519D01*
X58375740Y-54979000D01*
X58464260Y-54979000D01*
X58530443Y-54985519D01*
X58530443Y-54985519D01*
G37*
G36*
X33130443Y-54985519D02*
G01*
X33196627Y-54992037D01*
X33366466Y-55043557D01*
X33522991Y-55127222D01*
X33558729Y-55156552D01*
X33660186Y-55239814D01*
X33743448Y-55341271D01*
X33772778Y-55377009D01*
X33856443Y-55533534D01*
X33907963Y-55703373D01*
X33925359Y-55880000D01*
X33907963Y-56056627D01*
X33856443Y-56226466D01*
X33772778Y-56382991D01*
X33743448Y-56418729D01*
X33660186Y-56520186D01*
X33558729Y-56603448D01*
X33522991Y-56632778D01*
X33366466Y-56716443D01*
X33196627Y-56767963D01*
X33130443Y-56774481D01*
X33064260Y-56781000D01*
X32975740Y-56781000D01*
X32909557Y-56774481D01*
X32843373Y-56767963D01*
X32673534Y-56716443D01*
X32517009Y-56632778D01*
X32481271Y-56603448D01*
X32379814Y-56520186D01*
X32296552Y-56418729D01*
X32267222Y-56382991D01*
X32183557Y-56226466D01*
X32132037Y-56056627D01*
X32114641Y-55880000D01*
X32132037Y-55703373D01*
X32183557Y-55533534D01*
X32267222Y-55377009D01*
X32296552Y-55341271D01*
X32379814Y-55239814D01*
X32481271Y-55156552D01*
X32517009Y-55127222D01*
X32673534Y-55043557D01*
X32843373Y-54992037D01*
X32909557Y-54985519D01*
X32975740Y-54979000D01*
X33064260Y-54979000D01*
X33130443Y-54985519D01*
X33130443Y-54985519D01*
G37*
G36*
X58530443Y-52445519D02*
G01*
X58596627Y-52452037D01*
X58766466Y-52503557D01*
X58922991Y-52587222D01*
X58958729Y-52616552D01*
X59060186Y-52699814D01*
X59143448Y-52801271D01*
X59172778Y-52837009D01*
X59256443Y-52993534D01*
X59307963Y-53163373D01*
X59325359Y-53340000D01*
X59307963Y-53516627D01*
X59256443Y-53686466D01*
X59172778Y-53842991D01*
X59143448Y-53878729D01*
X59060186Y-53980186D01*
X58958729Y-54063448D01*
X58922991Y-54092778D01*
X58766466Y-54176443D01*
X58596627Y-54227963D01*
X58530442Y-54234482D01*
X58464260Y-54241000D01*
X58375740Y-54241000D01*
X58309558Y-54234482D01*
X58243373Y-54227963D01*
X58073534Y-54176443D01*
X57917009Y-54092778D01*
X57881271Y-54063448D01*
X57779814Y-53980186D01*
X57696552Y-53878729D01*
X57667222Y-53842991D01*
X57583557Y-53686466D01*
X57532037Y-53516627D01*
X57514641Y-53340000D01*
X57532037Y-53163373D01*
X57583557Y-52993534D01*
X57667222Y-52837009D01*
X57696552Y-52801271D01*
X57779814Y-52699814D01*
X57881271Y-52616552D01*
X57917009Y-52587222D01*
X58073534Y-52503557D01*
X58243373Y-52452037D01*
X58309558Y-52445518D01*
X58375740Y-52439000D01*
X58464260Y-52439000D01*
X58530443Y-52445519D01*
X58530443Y-52445519D01*
G37*
G36*
X33130443Y-52445519D02*
G01*
X33196627Y-52452037D01*
X33366466Y-52503557D01*
X33522991Y-52587222D01*
X33558729Y-52616552D01*
X33660186Y-52699814D01*
X33743448Y-52801271D01*
X33772778Y-52837009D01*
X33856443Y-52993534D01*
X33907963Y-53163373D01*
X33925359Y-53340000D01*
X33907963Y-53516627D01*
X33856443Y-53686466D01*
X33772778Y-53842991D01*
X33743448Y-53878729D01*
X33660186Y-53980186D01*
X33558729Y-54063448D01*
X33522991Y-54092778D01*
X33366466Y-54176443D01*
X33196627Y-54227963D01*
X33130442Y-54234482D01*
X33064260Y-54241000D01*
X32975740Y-54241000D01*
X32909558Y-54234482D01*
X32843373Y-54227963D01*
X32673534Y-54176443D01*
X32517009Y-54092778D01*
X32481271Y-54063448D01*
X32379814Y-53980186D01*
X32296552Y-53878729D01*
X32267222Y-53842991D01*
X32183557Y-53686466D01*
X32132037Y-53516627D01*
X32114641Y-53340000D01*
X32132037Y-53163373D01*
X32183557Y-52993534D01*
X32267222Y-52837009D01*
X32296552Y-52801271D01*
X32379814Y-52699814D01*
X32481271Y-52616552D01*
X32517009Y-52587222D01*
X32673534Y-52503557D01*
X32843373Y-52452037D01*
X32909558Y-52445518D01*
X32975740Y-52439000D01*
X33064260Y-52439000D01*
X33130443Y-52445519D01*
X33130443Y-52445519D01*
G37*
G36*
X33130442Y-49905518D02*
G01*
X33196627Y-49912037D01*
X33366466Y-49963557D01*
X33522991Y-50047222D01*
X33558729Y-50076552D01*
X33660186Y-50159814D01*
X33743448Y-50261271D01*
X33772778Y-50297009D01*
X33856443Y-50453534D01*
X33907963Y-50623373D01*
X33925359Y-50800000D01*
X33907963Y-50976627D01*
X33856443Y-51146466D01*
X33772778Y-51302991D01*
X33743448Y-51338729D01*
X33660186Y-51440186D01*
X33558729Y-51523448D01*
X33522991Y-51552778D01*
X33366466Y-51636443D01*
X33196627Y-51687963D01*
X33130442Y-51694482D01*
X33064260Y-51701000D01*
X32975740Y-51701000D01*
X32909558Y-51694482D01*
X32843373Y-51687963D01*
X32673534Y-51636443D01*
X32517009Y-51552778D01*
X32481271Y-51523448D01*
X32379814Y-51440186D01*
X32296552Y-51338729D01*
X32267222Y-51302991D01*
X32183557Y-51146466D01*
X32132037Y-50976627D01*
X32114641Y-50800000D01*
X32132037Y-50623373D01*
X32183557Y-50453534D01*
X32267222Y-50297009D01*
X32296552Y-50261271D01*
X32379814Y-50159814D01*
X32481271Y-50076552D01*
X32517009Y-50047222D01*
X32673534Y-49963557D01*
X32843373Y-49912037D01*
X32909557Y-49905519D01*
X32975740Y-49899000D01*
X33064260Y-49899000D01*
X33130442Y-49905518D01*
X33130442Y-49905518D01*
G37*
G36*
X58530442Y-49905518D02*
G01*
X58596627Y-49912037D01*
X58766466Y-49963557D01*
X58922991Y-50047222D01*
X58958729Y-50076552D01*
X59060186Y-50159814D01*
X59143448Y-50261271D01*
X59172778Y-50297009D01*
X59256443Y-50453534D01*
X59307963Y-50623373D01*
X59325359Y-50800000D01*
X59307963Y-50976627D01*
X59256443Y-51146466D01*
X59172778Y-51302991D01*
X59143448Y-51338729D01*
X59060186Y-51440186D01*
X58958729Y-51523448D01*
X58922991Y-51552778D01*
X58766466Y-51636443D01*
X58596627Y-51687963D01*
X58530442Y-51694482D01*
X58464260Y-51701000D01*
X58375740Y-51701000D01*
X58309558Y-51694482D01*
X58243373Y-51687963D01*
X58073534Y-51636443D01*
X57917009Y-51552778D01*
X57881271Y-51523448D01*
X57779814Y-51440186D01*
X57696552Y-51338729D01*
X57667222Y-51302991D01*
X57583557Y-51146466D01*
X57532037Y-50976627D01*
X57514641Y-50800000D01*
X57532037Y-50623373D01*
X57583557Y-50453534D01*
X57667222Y-50297009D01*
X57696552Y-50261271D01*
X57779814Y-50159814D01*
X57881271Y-50076552D01*
X57917009Y-50047222D01*
X58073534Y-49963557D01*
X58243373Y-49912037D01*
X58309557Y-49905519D01*
X58375740Y-49899000D01*
X58464260Y-49899000D01*
X58530442Y-49905518D01*
X58530442Y-49905518D01*
G37*
G36*
X58530443Y-47365519D02*
G01*
X58596627Y-47372037D01*
X58766466Y-47423557D01*
X58922991Y-47507222D01*
X58958729Y-47536552D01*
X59060186Y-47619814D01*
X59143448Y-47721271D01*
X59172778Y-47757009D01*
X59256443Y-47913534D01*
X59307963Y-48083373D01*
X59325359Y-48260000D01*
X59307963Y-48436627D01*
X59256443Y-48606466D01*
X59172778Y-48762991D01*
X59143448Y-48798729D01*
X59060186Y-48900186D01*
X58958729Y-48983448D01*
X58922991Y-49012778D01*
X58766466Y-49096443D01*
X58596627Y-49147963D01*
X58530443Y-49154481D01*
X58464260Y-49161000D01*
X58375740Y-49161000D01*
X58309557Y-49154481D01*
X58243373Y-49147963D01*
X58073534Y-49096443D01*
X57917009Y-49012778D01*
X57881271Y-48983448D01*
X57779814Y-48900186D01*
X57696552Y-48798729D01*
X57667222Y-48762991D01*
X57583557Y-48606466D01*
X57532037Y-48436627D01*
X57514641Y-48260000D01*
X57532037Y-48083373D01*
X57583557Y-47913534D01*
X57667222Y-47757009D01*
X57696552Y-47721271D01*
X57779814Y-47619814D01*
X57881271Y-47536552D01*
X57917009Y-47507222D01*
X58073534Y-47423557D01*
X58243373Y-47372037D01*
X58309557Y-47365519D01*
X58375740Y-47359000D01*
X58464260Y-47359000D01*
X58530443Y-47365519D01*
X58530443Y-47365519D01*
G37*
G36*
X33130443Y-47365519D02*
G01*
X33196627Y-47372037D01*
X33366466Y-47423557D01*
X33522991Y-47507222D01*
X33558729Y-47536552D01*
X33660186Y-47619814D01*
X33743448Y-47721271D01*
X33772778Y-47757009D01*
X33856443Y-47913534D01*
X33907963Y-48083373D01*
X33925359Y-48260000D01*
X33907963Y-48436627D01*
X33856443Y-48606466D01*
X33772778Y-48762991D01*
X33743448Y-48798729D01*
X33660186Y-48900186D01*
X33558729Y-48983448D01*
X33522991Y-49012778D01*
X33366466Y-49096443D01*
X33196627Y-49147963D01*
X33130443Y-49154481D01*
X33064260Y-49161000D01*
X32975740Y-49161000D01*
X32909557Y-49154481D01*
X32843373Y-49147963D01*
X32673534Y-49096443D01*
X32517009Y-49012778D01*
X32481271Y-48983448D01*
X32379814Y-48900186D01*
X32296552Y-48798729D01*
X32267222Y-48762991D01*
X32183557Y-48606466D01*
X32132037Y-48436627D01*
X32114641Y-48260000D01*
X32132037Y-48083373D01*
X32183557Y-47913534D01*
X32267222Y-47757009D01*
X32296552Y-47721271D01*
X32379814Y-47619814D01*
X32481271Y-47536552D01*
X32517009Y-47507222D01*
X32673534Y-47423557D01*
X32843373Y-47372037D01*
X32909557Y-47365519D01*
X32975740Y-47359000D01*
X33064260Y-47359000D01*
X33130443Y-47365519D01*
X33130443Y-47365519D01*
G37*
G36*
X58530442Y-44825518D02*
G01*
X58596627Y-44832037D01*
X58766466Y-44883557D01*
X58922991Y-44967222D01*
X58958729Y-44996552D01*
X59060186Y-45079814D01*
X59143448Y-45181271D01*
X59172778Y-45217009D01*
X59256443Y-45373534D01*
X59307963Y-45543373D01*
X59325359Y-45720000D01*
X59307963Y-45896627D01*
X59256443Y-46066466D01*
X59172778Y-46222991D01*
X59143448Y-46258729D01*
X59060186Y-46360186D01*
X58958729Y-46443448D01*
X58922991Y-46472778D01*
X58766466Y-46556443D01*
X58596627Y-46607963D01*
X58530442Y-46614482D01*
X58464260Y-46621000D01*
X58375740Y-46621000D01*
X58309558Y-46614482D01*
X58243373Y-46607963D01*
X58073534Y-46556443D01*
X57917009Y-46472778D01*
X57881271Y-46443448D01*
X57779814Y-46360186D01*
X57696552Y-46258729D01*
X57667222Y-46222991D01*
X57583557Y-46066466D01*
X57532037Y-45896627D01*
X57514641Y-45720000D01*
X57532037Y-45543373D01*
X57583557Y-45373534D01*
X57667222Y-45217009D01*
X57696552Y-45181271D01*
X57779814Y-45079814D01*
X57881271Y-44996552D01*
X57917009Y-44967222D01*
X58073534Y-44883557D01*
X58243373Y-44832037D01*
X58309558Y-44825518D01*
X58375740Y-44819000D01*
X58464260Y-44819000D01*
X58530442Y-44825518D01*
X58530442Y-44825518D01*
G37*
G36*
X33130442Y-44825518D02*
G01*
X33196627Y-44832037D01*
X33366466Y-44883557D01*
X33522991Y-44967222D01*
X33558729Y-44996552D01*
X33660186Y-45079814D01*
X33743448Y-45181271D01*
X33772778Y-45217009D01*
X33856443Y-45373534D01*
X33907963Y-45543373D01*
X33925359Y-45720000D01*
X33907963Y-45896627D01*
X33856443Y-46066466D01*
X33772778Y-46222991D01*
X33743448Y-46258729D01*
X33660186Y-46360186D01*
X33558729Y-46443448D01*
X33522991Y-46472778D01*
X33366466Y-46556443D01*
X33196627Y-46607963D01*
X33130442Y-46614482D01*
X33064260Y-46621000D01*
X32975740Y-46621000D01*
X32909558Y-46614482D01*
X32843373Y-46607963D01*
X32673534Y-46556443D01*
X32517009Y-46472778D01*
X32481271Y-46443448D01*
X32379814Y-46360186D01*
X32296552Y-46258729D01*
X32267222Y-46222991D01*
X32183557Y-46066466D01*
X32132037Y-45896627D01*
X32114641Y-45720000D01*
X32132037Y-45543373D01*
X32183557Y-45373534D01*
X32267222Y-45217009D01*
X32296552Y-45181271D01*
X32379814Y-45079814D01*
X32481271Y-44996552D01*
X32517009Y-44967222D01*
X32673534Y-44883557D01*
X32843373Y-44832037D01*
X32909558Y-44825518D01*
X32975740Y-44819000D01*
X33064260Y-44819000D01*
X33130442Y-44825518D01*
X33130442Y-44825518D01*
G37*
G36*
X33130442Y-42285518D02*
G01*
X33196627Y-42292037D01*
X33366466Y-42343557D01*
X33522991Y-42427222D01*
X33558729Y-42456552D01*
X33660186Y-42539814D01*
X33743448Y-42641271D01*
X33772778Y-42677009D01*
X33856443Y-42833534D01*
X33907963Y-43003373D01*
X33925359Y-43180000D01*
X33907963Y-43356627D01*
X33856443Y-43526466D01*
X33772778Y-43682991D01*
X33743448Y-43718729D01*
X33660186Y-43820186D01*
X33558729Y-43903448D01*
X33522991Y-43932778D01*
X33366466Y-44016443D01*
X33196627Y-44067963D01*
X33130443Y-44074481D01*
X33064260Y-44081000D01*
X32975740Y-44081000D01*
X32909557Y-44074481D01*
X32843373Y-44067963D01*
X32673534Y-44016443D01*
X32517009Y-43932778D01*
X32481271Y-43903448D01*
X32379814Y-43820186D01*
X32296552Y-43718729D01*
X32267222Y-43682991D01*
X32183557Y-43526466D01*
X32132037Y-43356627D01*
X32114641Y-43180000D01*
X32132037Y-43003373D01*
X32183557Y-42833534D01*
X32267222Y-42677009D01*
X32296552Y-42641271D01*
X32379814Y-42539814D01*
X32481271Y-42456552D01*
X32517009Y-42427222D01*
X32673534Y-42343557D01*
X32843373Y-42292037D01*
X32909558Y-42285518D01*
X32975740Y-42279000D01*
X33064260Y-42279000D01*
X33130442Y-42285518D01*
X33130442Y-42285518D01*
G37*
G36*
X58530442Y-42285518D02*
G01*
X58596627Y-42292037D01*
X58766466Y-42343557D01*
X58922991Y-42427222D01*
X58958729Y-42456552D01*
X59060186Y-42539814D01*
X59143448Y-42641271D01*
X59172778Y-42677009D01*
X59256443Y-42833534D01*
X59307963Y-43003373D01*
X59325359Y-43180000D01*
X59307963Y-43356627D01*
X59256443Y-43526466D01*
X59172778Y-43682991D01*
X59143448Y-43718729D01*
X59060186Y-43820186D01*
X58958729Y-43903448D01*
X58922991Y-43932778D01*
X58766466Y-44016443D01*
X58596627Y-44067963D01*
X58530443Y-44074481D01*
X58464260Y-44081000D01*
X58375740Y-44081000D01*
X58309557Y-44074481D01*
X58243373Y-44067963D01*
X58073534Y-44016443D01*
X57917009Y-43932778D01*
X57881271Y-43903448D01*
X57779814Y-43820186D01*
X57696552Y-43718729D01*
X57667222Y-43682991D01*
X57583557Y-43526466D01*
X57532037Y-43356627D01*
X57514641Y-43180000D01*
X57532037Y-43003373D01*
X57583557Y-42833534D01*
X57667222Y-42677009D01*
X57696552Y-42641271D01*
X57779814Y-42539814D01*
X57881271Y-42456552D01*
X57917009Y-42427222D01*
X58073534Y-42343557D01*
X58243373Y-42292037D01*
X58309558Y-42285518D01*
X58375740Y-42279000D01*
X58464260Y-42279000D01*
X58530442Y-42285518D01*
X58530442Y-42285518D01*
G37*
M02*
