G04 #@! TF.GenerationSoftware,KiCad,Pcbnew,(5.1.4)-1*
G04 #@! TF.CreationDate,2019-11-28T20:23:01+01:00*
G04 #@! TF.ProjectId,zillo-mini-devkit,7a696c6c-6f2d-46d6-996e-692d6465766b,rev?*
G04 #@! TF.SameCoordinates,Original*
G04 #@! TF.FileFunction,Copper,L1,Top*
G04 #@! TF.FilePolarity,Positive*
%FSLAX46Y46*%
G04 Gerber Fmt 4.6, Leading zero omitted, Abs format (unit mm)*
G04 Created by KiCad (PCBNEW (5.1.4)-1) date 2019-11-28 20:23:01*
%MOMM*%
%LPD*%
G04 APERTURE LIST*
%ADD10R,1.700000X1.700000*%
%ADD11O,1.700000X1.700000*%
%ADD12C,0.800000*%
%ADD13C,0.250000*%
%ADD14C,0.400000*%
%ADD15C,0.254000*%
G04 APERTURE END LIST*
D10*
X53340000Y-96520000D03*
D11*
X55880000Y-96520000D03*
X58420000Y-96520000D03*
D10*
X37846000Y-71120000D03*
D11*
X37846000Y-73660000D03*
X37846000Y-76200000D03*
X37846000Y-78740000D03*
X37846000Y-81280000D03*
X37846000Y-83820000D03*
X37846000Y-86360000D03*
X37846000Y-88900000D03*
D10*
X58420000Y-88900000D03*
D11*
X58420000Y-86360000D03*
X58420000Y-83820000D03*
X58420000Y-81280000D03*
X58420000Y-78740000D03*
X58420000Y-76200000D03*
X58420000Y-73660000D03*
X58420000Y-71120000D03*
X58420000Y-68580000D03*
X58420000Y-66040000D03*
X58420000Y-63500000D03*
X58420000Y-60960000D03*
X58420000Y-58420000D03*
X58420000Y-55880000D03*
X58420000Y-53340000D03*
X58420000Y-50800000D03*
X58420000Y-48260000D03*
X58420000Y-45720000D03*
X58420000Y-43180000D03*
D10*
X33020000Y-88900000D03*
D11*
X33020000Y-86360000D03*
X33020000Y-83820000D03*
X33020000Y-81280000D03*
X33020000Y-78740000D03*
X33020000Y-76200000D03*
X33020000Y-73660000D03*
X33020000Y-71120000D03*
X33020000Y-68580000D03*
X33020000Y-66040000D03*
X33020000Y-63500000D03*
X33020000Y-60960000D03*
X33020000Y-58420000D03*
X33020000Y-55880000D03*
X33020000Y-53340000D03*
X33020000Y-50800000D03*
X33020000Y-48260000D03*
X33020000Y-45720000D03*
X33020000Y-43180000D03*
D10*
X43180000Y-96520000D03*
D11*
X45720000Y-96520000D03*
D10*
X33020000Y-96520000D03*
D11*
X35560000Y-96520000D03*
X38100000Y-96520000D03*
D12*
X44450000Y-85852000D03*
D13*
X35306000Y-76200000D02*
X37846000Y-78740000D01*
X33020000Y-76200000D02*
X35306000Y-76200000D01*
D14*
X42164000Y-82296000D02*
X50546000Y-73914000D01*
X50546000Y-51054000D02*
X58420000Y-43180000D01*
X50546000Y-73914000D02*
X50546000Y-51054000D01*
X35560000Y-94488000D02*
X42164000Y-87884000D01*
X33952000Y-94488000D02*
X35560000Y-94488000D01*
X33020000Y-95420000D02*
X33952000Y-94488000D01*
X33020000Y-96520000D02*
X33020000Y-95420000D01*
X42164000Y-87884000D02*
X42164000Y-87122000D01*
D13*
X42164000Y-87376000D02*
X42164000Y-87122000D01*
D14*
X42164000Y-87122000D02*
X42164000Y-82296000D01*
D13*
X56642000Y-65278000D02*
X58420000Y-63500000D01*
X56642000Y-68834000D02*
X56642000Y-65278000D01*
X42926000Y-82550000D02*
X56642000Y-68834000D01*
X42926000Y-88138000D02*
X42926000Y-87630000D01*
X35560000Y-95504000D02*
X42926000Y-88138000D01*
X35560000Y-96520000D02*
X35560000Y-95504000D01*
X42926000Y-87884000D02*
X42926000Y-87630000D01*
X42926000Y-87630000D02*
X42926000Y-82550000D01*
X57658000Y-78740000D02*
X58420000Y-78740000D01*
X53340000Y-96520000D02*
X53340000Y-83058000D01*
X53340000Y-83058000D02*
X57658000Y-78740000D01*
X48006000Y-78994000D02*
X58420000Y-68580000D01*
X44450000Y-82550000D02*
X48006000Y-78994000D01*
X44450000Y-85772000D02*
X44450000Y-85598000D01*
X44450000Y-85598000D02*
X44450000Y-82550000D01*
D15*
G36*
X60275001Y-98375000D02*
G01*
X31165000Y-98375000D01*
X31165000Y-95670000D01*
X31531928Y-95670000D01*
X31531928Y-97370000D01*
X31544188Y-97494482D01*
X31580498Y-97614180D01*
X31639463Y-97724494D01*
X31718815Y-97821185D01*
X31815506Y-97900537D01*
X31925820Y-97959502D01*
X32045518Y-97995812D01*
X32170000Y-98008072D01*
X33870000Y-98008072D01*
X33994482Y-97995812D01*
X34114180Y-97959502D01*
X34224494Y-97900537D01*
X34321185Y-97821185D01*
X34400537Y-97724494D01*
X34459502Y-97614180D01*
X34480393Y-97545313D01*
X34504866Y-97575134D01*
X34730986Y-97760706D01*
X34988966Y-97898599D01*
X35268889Y-97983513D01*
X35487050Y-98005000D01*
X35632950Y-98005000D01*
X35851111Y-97983513D01*
X36131034Y-97898599D01*
X36389014Y-97760706D01*
X36615134Y-97575134D01*
X36800706Y-97349014D01*
X36835201Y-97284477D01*
X36904822Y-97401355D01*
X37099731Y-97617588D01*
X37333080Y-97791641D01*
X37595901Y-97916825D01*
X37743110Y-97961476D01*
X37973000Y-97840155D01*
X37973000Y-96647000D01*
X38227000Y-96647000D01*
X38227000Y-97840155D01*
X38456890Y-97961476D01*
X38604099Y-97916825D01*
X38866920Y-97791641D01*
X39100269Y-97617588D01*
X39295178Y-97401355D01*
X39444157Y-97151252D01*
X39541481Y-96876891D01*
X39420814Y-96647000D01*
X38227000Y-96647000D01*
X37973000Y-96647000D01*
X37953000Y-96647000D01*
X37953000Y-96393000D01*
X37973000Y-96393000D01*
X37973000Y-95199845D01*
X38227000Y-95199845D01*
X38227000Y-96393000D01*
X39420814Y-96393000D01*
X39541481Y-96163109D01*
X39444157Y-95888748D01*
X39313856Y-95670000D01*
X41691928Y-95670000D01*
X41691928Y-97370000D01*
X41704188Y-97494482D01*
X41740498Y-97614180D01*
X41799463Y-97724494D01*
X41878815Y-97821185D01*
X41975506Y-97900537D01*
X42085820Y-97959502D01*
X42205518Y-97995812D01*
X42330000Y-98008072D01*
X44030000Y-98008072D01*
X44154482Y-97995812D01*
X44274180Y-97959502D01*
X44384494Y-97900537D01*
X44481185Y-97821185D01*
X44560537Y-97724494D01*
X44619502Y-97614180D01*
X44643966Y-97533534D01*
X44719731Y-97617588D01*
X44953080Y-97791641D01*
X45215901Y-97916825D01*
X45363110Y-97961476D01*
X45593000Y-97840155D01*
X45593000Y-96647000D01*
X45847000Y-96647000D01*
X45847000Y-97840155D01*
X46076890Y-97961476D01*
X46224099Y-97916825D01*
X46486920Y-97791641D01*
X46720269Y-97617588D01*
X46915178Y-97401355D01*
X47064157Y-97151252D01*
X47161481Y-96876891D01*
X47040814Y-96647000D01*
X45847000Y-96647000D01*
X45593000Y-96647000D01*
X45573000Y-96647000D01*
X45573000Y-96393000D01*
X45593000Y-96393000D01*
X45593000Y-95199845D01*
X45847000Y-95199845D01*
X45847000Y-96393000D01*
X47040814Y-96393000D01*
X47161481Y-96163109D01*
X47064157Y-95888748D01*
X46915178Y-95638645D01*
X46720269Y-95422412D01*
X46486920Y-95248359D01*
X46224099Y-95123175D01*
X46076890Y-95078524D01*
X45847000Y-95199845D01*
X45593000Y-95199845D01*
X45363110Y-95078524D01*
X45215901Y-95123175D01*
X44953080Y-95248359D01*
X44719731Y-95422412D01*
X44643966Y-95506466D01*
X44619502Y-95425820D01*
X44560537Y-95315506D01*
X44481185Y-95218815D01*
X44384494Y-95139463D01*
X44274180Y-95080498D01*
X44154482Y-95044188D01*
X44030000Y-95031928D01*
X42330000Y-95031928D01*
X42205518Y-95044188D01*
X42085820Y-95080498D01*
X41975506Y-95139463D01*
X41878815Y-95218815D01*
X41799463Y-95315506D01*
X41740498Y-95425820D01*
X41704188Y-95545518D01*
X41691928Y-95670000D01*
X39313856Y-95670000D01*
X39295178Y-95638645D01*
X39100269Y-95422412D01*
X38866920Y-95248359D01*
X38604099Y-95123175D01*
X38456890Y-95078524D01*
X38227000Y-95199845D01*
X37973000Y-95199845D01*
X37743110Y-95078524D01*
X37595901Y-95123175D01*
X37333080Y-95248359D01*
X37099731Y-95422412D01*
X36904822Y-95638645D01*
X36835201Y-95755523D01*
X36800706Y-95690986D01*
X36641639Y-95497162D01*
X43437004Y-88701798D01*
X43466001Y-88678001D01*
X43522720Y-88608889D01*
X43560974Y-88562277D01*
X43631546Y-88430247D01*
X43655844Y-88350145D01*
X43675003Y-88286986D01*
X43686000Y-88175333D01*
X43686000Y-88175324D01*
X43689676Y-88138001D01*
X43686000Y-88100678D01*
X43686000Y-86551711D01*
X43790226Y-86655937D01*
X43959744Y-86769205D01*
X44148102Y-86847226D01*
X44348061Y-86887000D01*
X44551939Y-86887000D01*
X44751898Y-86847226D01*
X44940256Y-86769205D01*
X45109774Y-86655937D01*
X45253937Y-86511774D01*
X45367205Y-86342256D01*
X45445226Y-86153898D01*
X45485000Y-85953939D01*
X45485000Y-85750061D01*
X45445226Y-85550102D01*
X45367205Y-85361744D01*
X45253937Y-85192226D01*
X45210000Y-85148289D01*
X45210000Y-82864801D01*
X48569799Y-79505004D01*
X48569808Y-79504993D01*
X56930235Y-71144567D01*
X56956487Y-71411111D01*
X57041401Y-71691034D01*
X57179294Y-71949014D01*
X57364866Y-72175134D01*
X57590986Y-72360706D01*
X57645791Y-72390000D01*
X57590986Y-72419294D01*
X57364866Y-72604866D01*
X57179294Y-72830986D01*
X57041401Y-73088966D01*
X56956487Y-73368889D01*
X56927815Y-73660000D01*
X56956487Y-73951111D01*
X57041401Y-74231034D01*
X57179294Y-74489014D01*
X57364866Y-74715134D01*
X57590986Y-74900706D01*
X57645791Y-74930000D01*
X57590986Y-74959294D01*
X57364866Y-75144866D01*
X57179294Y-75370986D01*
X57041401Y-75628966D01*
X56956487Y-75908889D01*
X56927815Y-76200000D01*
X56956487Y-76491111D01*
X57041401Y-76771034D01*
X57179294Y-77029014D01*
X57364866Y-77255134D01*
X57590986Y-77440706D01*
X57645791Y-77470000D01*
X57590986Y-77499294D01*
X57364866Y-77684866D01*
X57179294Y-77910986D01*
X57041401Y-78168966D01*
X56992270Y-78330928D01*
X52828998Y-82494201D01*
X52800000Y-82517999D01*
X52776202Y-82546997D01*
X52776201Y-82546998D01*
X52705026Y-82633724D01*
X52634454Y-82765754D01*
X52590998Y-82909015D01*
X52576324Y-83058000D01*
X52580001Y-83095332D01*
X52580000Y-95031928D01*
X52490000Y-95031928D01*
X52365518Y-95044188D01*
X52245820Y-95080498D01*
X52135506Y-95139463D01*
X52038815Y-95218815D01*
X51959463Y-95315506D01*
X51900498Y-95425820D01*
X51864188Y-95545518D01*
X51851928Y-95670000D01*
X51851928Y-97370000D01*
X51864188Y-97494482D01*
X51900498Y-97614180D01*
X51959463Y-97724494D01*
X52038815Y-97821185D01*
X52135506Y-97900537D01*
X52245820Y-97959502D01*
X52365518Y-97995812D01*
X52490000Y-98008072D01*
X54190000Y-98008072D01*
X54314482Y-97995812D01*
X54434180Y-97959502D01*
X54544494Y-97900537D01*
X54641185Y-97821185D01*
X54720537Y-97724494D01*
X54779502Y-97614180D01*
X54803966Y-97533534D01*
X54879731Y-97617588D01*
X55113080Y-97791641D01*
X55375901Y-97916825D01*
X55523110Y-97961476D01*
X55753000Y-97840155D01*
X55753000Y-96647000D01*
X55733000Y-96647000D01*
X55733000Y-96393000D01*
X55753000Y-96393000D01*
X55753000Y-95199845D01*
X56007000Y-95199845D01*
X56007000Y-96393000D01*
X56027000Y-96393000D01*
X56027000Y-96647000D01*
X56007000Y-96647000D01*
X56007000Y-97840155D01*
X56236890Y-97961476D01*
X56384099Y-97916825D01*
X56646920Y-97791641D01*
X56880269Y-97617588D01*
X57075178Y-97401355D01*
X57144799Y-97284477D01*
X57179294Y-97349014D01*
X57364866Y-97575134D01*
X57590986Y-97760706D01*
X57848966Y-97898599D01*
X58128889Y-97983513D01*
X58347050Y-98005000D01*
X58492950Y-98005000D01*
X58711111Y-97983513D01*
X58991034Y-97898599D01*
X59249014Y-97760706D01*
X59475134Y-97575134D01*
X59660706Y-97349014D01*
X59798599Y-97091034D01*
X59883513Y-96811111D01*
X59912185Y-96520000D01*
X59883513Y-96228889D01*
X59798599Y-95948966D01*
X59660706Y-95690986D01*
X59475134Y-95464866D01*
X59249014Y-95279294D01*
X58991034Y-95141401D01*
X58711111Y-95056487D01*
X58492950Y-95035000D01*
X58347050Y-95035000D01*
X58128889Y-95056487D01*
X57848966Y-95141401D01*
X57590986Y-95279294D01*
X57364866Y-95464866D01*
X57179294Y-95690986D01*
X57144799Y-95755523D01*
X57075178Y-95638645D01*
X56880269Y-95422412D01*
X56646920Y-95248359D01*
X56384099Y-95123175D01*
X56236890Y-95078524D01*
X56007000Y-95199845D01*
X55753000Y-95199845D01*
X55523110Y-95078524D01*
X55375901Y-95123175D01*
X55113080Y-95248359D01*
X54879731Y-95422412D01*
X54803966Y-95506466D01*
X54779502Y-95425820D01*
X54720537Y-95315506D01*
X54641185Y-95218815D01*
X54544494Y-95139463D01*
X54434180Y-95080498D01*
X54314482Y-95044188D01*
X54190000Y-95031928D01*
X54100000Y-95031928D01*
X54100000Y-83372801D01*
X57536671Y-79936131D01*
X57590986Y-79980706D01*
X57645791Y-80010000D01*
X57590986Y-80039294D01*
X57364866Y-80224866D01*
X57179294Y-80450986D01*
X57041401Y-80708966D01*
X56956487Y-80988889D01*
X56927815Y-81280000D01*
X56956487Y-81571111D01*
X57041401Y-81851034D01*
X57179294Y-82109014D01*
X57364866Y-82335134D01*
X57590986Y-82520706D01*
X57645791Y-82550000D01*
X57590986Y-82579294D01*
X57364866Y-82764866D01*
X57179294Y-82990986D01*
X57041401Y-83248966D01*
X56956487Y-83528889D01*
X56927815Y-83820000D01*
X56956487Y-84111111D01*
X57041401Y-84391034D01*
X57179294Y-84649014D01*
X57364866Y-84875134D01*
X57590986Y-85060706D01*
X57645791Y-85090000D01*
X57590986Y-85119294D01*
X57364866Y-85304866D01*
X57179294Y-85530986D01*
X57041401Y-85788966D01*
X56956487Y-86068889D01*
X56927815Y-86360000D01*
X56956487Y-86651111D01*
X57041401Y-86931034D01*
X57179294Y-87189014D01*
X57364866Y-87415134D01*
X57394687Y-87439607D01*
X57325820Y-87460498D01*
X57215506Y-87519463D01*
X57118815Y-87598815D01*
X57039463Y-87695506D01*
X56980498Y-87805820D01*
X56944188Y-87925518D01*
X56931928Y-88050000D01*
X56931928Y-89750000D01*
X56944188Y-89874482D01*
X56980498Y-89994180D01*
X57039463Y-90104494D01*
X57118815Y-90201185D01*
X57215506Y-90280537D01*
X57325820Y-90339502D01*
X57445518Y-90375812D01*
X57570000Y-90388072D01*
X59270000Y-90388072D01*
X59394482Y-90375812D01*
X59514180Y-90339502D01*
X59624494Y-90280537D01*
X59721185Y-90201185D01*
X59800537Y-90104494D01*
X59859502Y-89994180D01*
X59895812Y-89874482D01*
X59908072Y-89750000D01*
X59908072Y-88050000D01*
X59895812Y-87925518D01*
X59859502Y-87805820D01*
X59800537Y-87695506D01*
X59721185Y-87598815D01*
X59624494Y-87519463D01*
X59514180Y-87460498D01*
X59445313Y-87439607D01*
X59475134Y-87415134D01*
X59660706Y-87189014D01*
X59798599Y-86931034D01*
X59883513Y-86651111D01*
X59912185Y-86360000D01*
X59883513Y-86068889D01*
X59798599Y-85788966D01*
X59660706Y-85530986D01*
X59475134Y-85304866D01*
X59249014Y-85119294D01*
X59194209Y-85090000D01*
X59249014Y-85060706D01*
X59475134Y-84875134D01*
X59660706Y-84649014D01*
X59798599Y-84391034D01*
X59883513Y-84111111D01*
X59912185Y-83820000D01*
X59883513Y-83528889D01*
X59798599Y-83248966D01*
X59660706Y-82990986D01*
X59475134Y-82764866D01*
X59249014Y-82579294D01*
X59194209Y-82550000D01*
X59249014Y-82520706D01*
X59475134Y-82335134D01*
X59660706Y-82109014D01*
X59798599Y-81851034D01*
X59883513Y-81571111D01*
X59912185Y-81280000D01*
X59883513Y-80988889D01*
X59798599Y-80708966D01*
X59660706Y-80450986D01*
X59475134Y-80224866D01*
X59249014Y-80039294D01*
X59194209Y-80010000D01*
X59249014Y-79980706D01*
X59475134Y-79795134D01*
X59660706Y-79569014D01*
X59798599Y-79311034D01*
X59883513Y-79031111D01*
X59912185Y-78740000D01*
X59883513Y-78448889D01*
X59798599Y-78168966D01*
X59660706Y-77910986D01*
X59475134Y-77684866D01*
X59249014Y-77499294D01*
X59194209Y-77470000D01*
X59249014Y-77440706D01*
X59475134Y-77255134D01*
X59660706Y-77029014D01*
X59798599Y-76771034D01*
X59883513Y-76491111D01*
X59912185Y-76200000D01*
X59883513Y-75908889D01*
X59798599Y-75628966D01*
X59660706Y-75370986D01*
X59475134Y-75144866D01*
X59249014Y-74959294D01*
X59194209Y-74930000D01*
X59249014Y-74900706D01*
X59475134Y-74715134D01*
X59660706Y-74489014D01*
X59798599Y-74231034D01*
X59883513Y-73951111D01*
X59912185Y-73660000D01*
X59883513Y-73368889D01*
X59798599Y-73088966D01*
X59660706Y-72830986D01*
X59475134Y-72604866D01*
X59249014Y-72419294D01*
X59194209Y-72390000D01*
X59249014Y-72360706D01*
X59475134Y-72175134D01*
X59660706Y-71949014D01*
X59798599Y-71691034D01*
X59883513Y-71411111D01*
X59912185Y-71120000D01*
X59883513Y-70828889D01*
X59798599Y-70548966D01*
X59660706Y-70290986D01*
X59475134Y-70064866D01*
X59249014Y-69879294D01*
X59194209Y-69850000D01*
X59249014Y-69820706D01*
X59475134Y-69635134D01*
X59660706Y-69409014D01*
X59798599Y-69151034D01*
X59883513Y-68871111D01*
X59912185Y-68580000D01*
X59883513Y-68288889D01*
X59798599Y-68008966D01*
X59660706Y-67750986D01*
X59475134Y-67524866D01*
X59249014Y-67339294D01*
X59194209Y-67310000D01*
X59249014Y-67280706D01*
X59475134Y-67095134D01*
X59660706Y-66869014D01*
X59798599Y-66611034D01*
X59883513Y-66331111D01*
X59912185Y-66040000D01*
X59883513Y-65748889D01*
X59798599Y-65468966D01*
X59660706Y-65210986D01*
X59475134Y-64984866D01*
X59249014Y-64799294D01*
X59194209Y-64770000D01*
X59249014Y-64740706D01*
X59475134Y-64555134D01*
X59660706Y-64329014D01*
X59798599Y-64071034D01*
X59883513Y-63791111D01*
X59912185Y-63500000D01*
X59883513Y-63208889D01*
X59798599Y-62928966D01*
X59660706Y-62670986D01*
X59475134Y-62444866D01*
X59249014Y-62259294D01*
X59194209Y-62230000D01*
X59249014Y-62200706D01*
X59475134Y-62015134D01*
X59660706Y-61789014D01*
X59798599Y-61531034D01*
X59883513Y-61251111D01*
X59912185Y-60960000D01*
X59883513Y-60668889D01*
X59798599Y-60388966D01*
X59660706Y-60130986D01*
X59475134Y-59904866D01*
X59249014Y-59719294D01*
X59194209Y-59690000D01*
X59249014Y-59660706D01*
X59475134Y-59475134D01*
X59660706Y-59249014D01*
X59798599Y-58991034D01*
X59883513Y-58711111D01*
X59912185Y-58420000D01*
X59883513Y-58128889D01*
X59798599Y-57848966D01*
X59660706Y-57590986D01*
X59475134Y-57364866D01*
X59249014Y-57179294D01*
X59184477Y-57144799D01*
X59301355Y-57075178D01*
X59517588Y-56880269D01*
X59691641Y-56646920D01*
X59816825Y-56384099D01*
X59861476Y-56236890D01*
X59740155Y-56007000D01*
X58547000Y-56007000D01*
X58547000Y-56027000D01*
X58293000Y-56027000D01*
X58293000Y-56007000D01*
X57099845Y-56007000D01*
X56978524Y-56236890D01*
X57023175Y-56384099D01*
X57148359Y-56646920D01*
X57322412Y-56880269D01*
X57538645Y-57075178D01*
X57655523Y-57144799D01*
X57590986Y-57179294D01*
X57364866Y-57364866D01*
X57179294Y-57590986D01*
X57041401Y-57848966D01*
X56956487Y-58128889D01*
X56927815Y-58420000D01*
X56956487Y-58711111D01*
X57041401Y-58991034D01*
X57179294Y-59249014D01*
X57364866Y-59475134D01*
X57590986Y-59660706D01*
X57645791Y-59690000D01*
X57590986Y-59719294D01*
X57364866Y-59904866D01*
X57179294Y-60130986D01*
X57041401Y-60388966D01*
X56956487Y-60668889D01*
X56927815Y-60960000D01*
X56956487Y-61251111D01*
X57041401Y-61531034D01*
X57179294Y-61789014D01*
X57364866Y-62015134D01*
X57590986Y-62200706D01*
X57645791Y-62230000D01*
X57590986Y-62259294D01*
X57364866Y-62444866D01*
X57179294Y-62670986D01*
X57041401Y-62928966D01*
X56956487Y-63208889D01*
X56927815Y-63500000D01*
X56956487Y-63791111D01*
X56979203Y-63865995D01*
X56130998Y-64714201D01*
X56102000Y-64737999D01*
X56078202Y-64766997D01*
X56078201Y-64766998D01*
X56007026Y-64853724D01*
X55936454Y-64985754D01*
X55892998Y-65129015D01*
X55878324Y-65278000D01*
X55882001Y-65315332D01*
X55882000Y-68519198D01*
X51381000Y-73020198D01*
X51381000Y-51399867D01*
X56935000Y-45845869D01*
X56935000Y-45847002D01*
X57099844Y-45847002D01*
X56978524Y-46076890D01*
X57023175Y-46224099D01*
X57148359Y-46486920D01*
X57322412Y-46720269D01*
X57538645Y-46915178D01*
X57655523Y-46984799D01*
X57590986Y-47019294D01*
X57364866Y-47204866D01*
X57179294Y-47430986D01*
X57041401Y-47688966D01*
X56956487Y-47968889D01*
X56927815Y-48260000D01*
X56956487Y-48551111D01*
X57041401Y-48831034D01*
X57179294Y-49089014D01*
X57364866Y-49315134D01*
X57590986Y-49500706D01*
X57645791Y-49530000D01*
X57590986Y-49559294D01*
X57364866Y-49744866D01*
X57179294Y-49970986D01*
X57041401Y-50228966D01*
X56956487Y-50508889D01*
X56927815Y-50800000D01*
X56956487Y-51091111D01*
X57041401Y-51371034D01*
X57179294Y-51629014D01*
X57364866Y-51855134D01*
X57590986Y-52040706D01*
X57645791Y-52070000D01*
X57590986Y-52099294D01*
X57364866Y-52284866D01*
X57179294Y-52510986D01*
X57041401Y-52768966D01*
X56956487Y-53048889D01*
X56927815Y-53340000D01*
X56956487Y-53631111D01*
X57041401Y-53911034D01*
X57179294Y-54169014D01*
X57364866Y-54395134D01*
X57590986Y-54580706D01*
X57655523Y-54615201D01*
X57538645Y-54684822D01*
X57322412Y-54879731D01*
X57148359Y-55113080D01*
X57023175Y-55375901D01*
X56978524Y-55523110D01*
X57099845Y-55753000D01*
X58293000Y-55753000D01*
X58293000Y-55733000D01*
X58547000Y-55733000D01*
X58547000Y-55753000D01*
X59740155Y-55753000D01*
X59861476Y-55523110D01*
X59816825Y-55375901D01*
X59691641Y-55113080D01*
X59517588Y-54879731D01*
X59301355Y-54684822D01*
X59184477Y-54615201D01*
X59249014Y-54580706D01*
X59475134Y-54395134D01*
X59660706Y-54169014D01*
X59798599Y-53911034D01*
X59883513Y-53631111D01*
X59912185Y-53340000D01*
X59883513Y-53048889D01*
X59798599Y-52768966D01*
X59660706Y-52510986D01*
X59475134Y-52284866D01*
X59249014Y-52099294D01*
X59194209Y-52070000D01*
X59249014Y-52040706D01*
X59475134Y-51855134D01*
X59660706Y-51629014D01*
X59798599Y-51371034D01*
X59883513Y-51091111D01*
X59912185Y-50800000D01*
X59883513Y-50508889D01*
X59798599Y-50228966D01*
X59660706Y-49970986D01*
X59475134Y-49744866D01*
X59249014Y-49559294D01*
X59194209Y-49530000D01*
X59249014Y-49500706D01*
X59475134Y-49315134D01*
X59660706Y-49089014D01*
X59798599Y-48831034D01*
X59883513Y-48551111D01*
X59912185Y-48260000D01*
X59883513Y-47968889D01*
X59798599Y-47688966D01*
X59660706Y-47430986D01*
X59475134Y-47204866D01*
X59249014Y-47019294D01*
X59184477Y-46984799D01*
X59301355Y-46915178D01*
X59517588Y-46720269D01*
X59691641Y-46486920D01*
X59816825Y-46224099D01*
X59861476Y-46076890D01*
X59740155Y-45847000D01*
X58547000Y-45847000D01*
X58547000Y-45867000D01*
X58293000Y-45867000D01*
X58293000Y-45847000D01*
X58273000Y-45847000D01*
X58273000Y-45593000D01*
X58293000Y-45593000D01*
X58293000Y-45573000D01*
X58547000Y-45573000D01*
X58547000Y-45593000D01*
X59740155Y-45593000D01*
X59861476Y-45363110D01*
X59816825Y-45215901D01*
X59691641Y-44953080D01*
X59517588Y-44719731D01*
X59301355Y-44524822D01*
X59184477Y-44455201D01*
X59249014Y-44420706D01*
X59475134Y-44235134D01*
X59660706Y-44009014D01*
X59798599Y-43751034D01*
X59883513Y-43471111D01*
X59912185Y-43180000D01*
X59883513Y-42888889D01*
X59798599Y-42608966D01*
X59660706Y-42350986D01*
X59475134Y-42124866D01*
X59249014Y-41939294D01*
X58991034Y-41801401D01*
X58711111Y-41716487D01*
X58492950Y-41695000D01*
X58347050Y-41695000D01*
X58128889Y-41716487D01*
X57848966Y-41801401D01*
X57590986Y-41939294D01*
X57364866Y-42124866D01*
X57179294Y-42350986D01*
X57041401Y-42608966D01*
X56956487Y-42888889D01*
X56927815Y-43180000D01*
X56955728Y-43463403D01*
X49984574Y-50434559D01*
X49952710Y-50460709D01*
X49926562Y-50492571D01*
X49848364Y-50587855D01*
X49770828Y-50732914D01*
X49723082Y-50890312D01*
X49706960Y-51054000D01*
X49711001Y-51095029D01*
X49711000Y-73568132D01*
X41602574Y-81676559D01*
X41570710Y-81702709D01*
X41544562Y-81734571D01*
X41466364Y-81829855D01*
X41388828Y-81974914D01*
X41341082Y-82132312D01*
X41324960Y-82296000D01*
X41329001Y-82337028D01*
X41329000Y-87080981D01*
X41329000Y-87538132D01*
X35214133Y-93653000D01*
X33993018Y-93653000D01*
X33951999Y-93648960D01*
X33910981Y-93653000D01*
X33788311Y-93665082D01*
X33630913Y-93712828D01*
X33485854Y-93790364D01*
X33358709Y-93894709D01*
X33332561Y-93926571D01*
X32458574Y-94800559D01*
X32426710Y-94826709D01*
X32345907Y-94925168D01*
X32322364Y-94953855D01*
X32280633Y-95031928D01*
X32170000Y-95031928D01*
X32045518Y-95044188D01*
X31925820Y-95080498D01*
X31815506Y-95139463D01*
X31718815Y-95218815D01*
X31639463Y-95315506D01*
X31580498Y-95425820D01*
X31544188Y-95545518D01*
X31531928Y-95670000D01*
X31165000Y-95670000D01*
X31165000Y-89750000D01*
X31531928Y-89750000D01*
X31544188Y-89874482D01*
X31580498Y-89994180D01*
X31639463Y-90104494D01*
X31718815Y-90201185D01*
X31815506Y-90280537D01*
X31925820Y-90339502D01*
X32045518Y-90375812D01*
X32170000Y-90388072D01*
X32734250Y-90385000D01*
X32893000Y-90226250D01*
X32893000Y-89027000D01*
X33147000Y-89027000D01*
X33147000Y-90226250D01*
X33305750Y-90385000D01*
X33870000Y-90388072D01*
X33994482Y-90375812D01*
X34114180Y-90339502D01*
X34224494Y-90280537D01*
X34321185Y-90201185D01*
X34400537Y-90104494D01*
X34459502Y-89994180D01*
X34495812Y-89874482D01*
X34508072Y-89750000D01*
X34505000Y-89185750D01*
X34346250Y-89027000D01*
X33147000Y-89027000D01*
X32893000Y-89027000D01*
X31693750Y-89027000D01*
X31535000Y-89185750D01*
X31531928Y-89750000D01*
X31165000Y-89750000D01*
X31165000Y-76200000D01*
X31527815Y-76200000D01*
X31556487Y-76491111D01*
X31641401Y-76771034D01*
X31779294Y-77029014D01*
X31964866Y-77255134D01*
X32190986Y-77440706D01*
X32245791Y-77470000D01*
X32190986Y-77499294D01*
X31964866Y-77684866D01*
X31779294Y-77910986D01*
X31641401Y-78168966D01*
X31556487Y-78448889D01*
X31527815Y-78740000D01*
X31556487Y-79031111D01*
X31641401Y-79311034D01*
X31779294Y-79569014D01*
X31964866Y-79795134D01*
X32190986Y-79980706D01*
X32245791Y-80010000D01*
X32190986Y-80039294D01*
X31964866Y-80224866D01*
X31779294Y-80450986D01*
X31641401Y-80708966D01*
X31556487Y-80988889D01*
X31527815Y-81280000D01*
X31556487Y-81571111D01*
X31641401Y-81851034D01*
X31779294Y-82109014D01*
X31964866Y-82335134D01*
X32190986Y-82520706D01*
X32245791Y-82550000D01*
X32190986Y-82579294D01*
X31964866Y-82764866D01*
X31779294Y-82990986D01*
X31641401Y-83248966D01*
X31556487Y-83528889D01*
X31527815Y-83820000D01*
X31556487Y-84111111D01*
X31641401Y-84391034D01*
X31779294Y-84649014D01*
X31964866Y-84875134D01*
X32190986Y-85060706D01*
X32245791Y-85090000D01*
X32190986Y-85119294D01*
X31964866Y-85304866D01*
X31779294Y-85530986D01*
X31641401Y-85788966D01*
X31556487Y-86068889D01*
X31527815Y-86360000D01*
X31556487Y-86651111D01*
X31641401Y-86931034D01*
X31779294Y-87189014D01*
X31964866Y-87415134D01*
X31994687Y-87439607D01*
X31925820Y-87460498D01*
X31815506Y-87519463D01*
X31718815Y-87598815D01*
X31639463Y-87695506D01*
X31580498Y-87805820D01*
X31544188Y-87925518D01*
X31531928Y-88050000D01*
X31535000Y-88614250D01*
X31693750Y-88773000D01*
X32893000Y-88773000D01*
X32893000Y-88753000D01*
X33147000Y-88753000D01*
X33147000Y-88773000D01*
X34346250Y-88773000D01*
X34505000Y-88614250D01*
X34508072Y-88050000D01*
X34495812Y-87925518D01*
X34459502Y-87805820D01*
X34400537Y-87695506D01*
X34321185Y-87598815D01*
X34224494Y-87519463D01*
X34114180Y-87460498D01*
X34045313Y-87439607D01*
X34075134Y-87415134D01*
X34260706Y-87189014D01*
X34398599Y-86931034D01*
X34483513Y-86651111D01*
X34512185Y-86360000D01*
X34483513Y-86068889D01*
X34398599Y-85788966D01*
X34260706Y-85530986D01*
X34075134Y-85304866D01*
X33849014Y-85119294D01*
X33794209Y-85090000D01*
X33849014Y-85060706D01*
X34075134Y-84875134D01*
X34260706Y-84649014D01*
X34398599Y-84391034D01*
X34483513Y-84111111D01*
X34512185Y-83820000D01*
X34483513Y-83528889D01*
X34398599Y-83248966D01*
X34260706Y-82990986D01*
X34075134Y-82764866D01*
X33849014Y-82579294D01*
X33794209Y-82550000D01*
X33849014Y-82520706D01*
X34075134Y-82335134D01*
X34260706Y-82109014D01*
X34398599Y-81851034D01*
X34483513Y-81571111D01*
X34512185Y-81280000D01*
X34483513Y-80988889D01*
X34398599Y-80708966D01*
X34260706Y-80450986D01*
X34075134Y-80224866D01*
X33849014Y-80039294D01*
X33794209Y-80010000D01*
X33849014Y-79980706D01*
X34075134Y-79795134D01*
X34260706Y-79569014D01*
X34398599Y-79311034D01*
X34483513Y-79031111D01*
X34512185Y-78740000D01*
X34483513Y-78448889D01*
X34398599Y-78168966D01*
X34260706Y-77910986D01*
X34075134Y-77684866D01*
X33849014Y-77499294D01*
X33794209Y-77470000D01*
X33849014Y-77440706D01*
X34075134Y-77255134D01*
X34260706Y-77029014D01*
X34297595Y-76960000D01*
X34991199Y-76960000D01*
X36405203Y-78374005D01*
X36382487Y-78448889D01*
X36353815Y-78740000D01*
X36382487Y-79031111D01*
X36467401Y-79311034D01*
X36605294Y-79569014D01*
X36790866Y-79795134D01*
X37016986Y-79980706D01*
X37071791Y-80010000D01*
X37016986Y-80039294D01*
X36790866Y-80224866D01*
X36605294Y-80450986D01*
X36467401Y-80708966D01*
X36382487Y-80988889D01*
X36353815Y-81280000D01*
X36382487Y-81571111D01*
X36467401Y-81851034D01*
X36605294Y-82109014D01*
X36790866Y-82335134D01*
X37016986Y-82520706D01*
X37071791Y-82550000D01*
X37016986Y-82579294D01*
X36790866Y-82764866D01*
X36605294Y-82990986D01*
X36467401Y-83248966D01*
X36382487Y-83528889D01*
X36353815Y-83820000D01*
X36382487Y-84111111D01*
X36467401Y-84391034D01*
X36605294Y-84649014D01*
X36790866Y-84875134D01*
X37016986Y-85060706D01*
X37071791Y-85090000D01*
X37016986Y-85119294D01*
X36790866Y-85304866D01*
X36605294Y-85530986D01*
X36467401Y-85788966D01*
X36382487Y-86068889D01*
X36353815Y-86360000D01*
X36382487Y-86651111D01*
X36467401Y-86931034D01*
X36605294Y-87189014D01*
X36790866Y-87415134D01*
X37016986Y-87600706D01*
X37071791Y-87630000D01*
X37016986Y-87659294D01*
X36790866Y-87844866D01*
X36605294Y-88070986D01*
X36467401Y-88328966D01*
X36382487Y-88608889D01*
X36353815Y-88900000D01*
X36382487Y-89191111D01*
X36467401Y-89471034D01*
X36605294Y-89729014D01*
X36790866Y-89955134D01*
X37016986Y-90140706D01*
X37274966Y-90278599D01*
X37554889Y-90363513D01*
X37773050Y-90385000D01*
X37918950Y-90385000D01*
X38137111Y-90363513D01*
X38417034Y-90278599D01*
X38675014Y-90140706D01*
X38901134Y-89955134D01*
X39086706Y-89729014D01*
X39224599Y-89471034D01*
X39309513Y-89191111D01*
X39338185Y-88900000D01*
X39309513Y-88608889D01*
X39224599Y-88328966D01*
X39086706Y-88070986D01*
X38901134Y-87844866D01*
X38675014Y-87659294D01*
X38620209Y-87630000D01*
X38675014Y-87600706D01*
X38901134Y-87415134D01*
X39086706Y-87189014D01*
X39224599Y-86931034D01*
X39309513Y-86651111D01*
X39338185Y-86360000D01*
X39309513Y-86068889D01*
X39224599Y-85788966D01*
X39086706Y-85530986D01*
X38901134Y-85304866D01*
X38675014Y-85119294D01*
X38620209Y-85090000D01*
X38675014Y-85060706D01*
X38901134Y-84875134D01*
X39086706Y-84649014D01*
X39224599Y-84391034D01*
X39309513Y-84111111D01*
X39338185Y-83820000D01*
X39309513Y-83528889D01*
X39224599Y-83248966D01*
X39086706Y-82990986D01*
X38901134Y-82764866D01*
X38675014Y-82579294D01*
X38620209Y-82550000D01*
X38675014Y-82520706D01*
X38901134Y-82335134D01*
X39086706Y-82109014D01*
X39224599Y-81851034D01*
X39309513Y-81571111D01*
X39338185Y-81280000D01*
X39309513Y-80988889D01*
X39224599Y-80708966D01*
X39086706Y-80450986D01*
X38901134Y-80224866D01*
X38675014Y-80039294D01*
X38620209Y-80010000D01*
X38675014Y-79980706D01*
X38901134Y-79795134D01*
X39086706Y-79569014D01*
X39224599Y-79311034D01*
X39309513Y-79031111D01*
X39338185Y-78740000D01*
X39309513Y-78448889D01*
X39224599Y-78168966D01*
X39086706Y-77910986D01*
X38901134Y-77684866D01*
X38675014Y-77499294D01*
X38620209Y-77470000D01*
X38675014Y-77440706D01*
X38901134Y-77255134D01*
X39086706Y-77029014D01*
X39224599Y-76771034D01*
X39309513Y-76491111D01*
X39338185Y-76200000D01*
X39309513Y-75908889D01*
X39224599Y-75628966D01*
X39086706Y-75370986D01*
X38901134Y-75144866D01*
X38675014Y-74959294D01*
X38610477Y-74924799D01*
X38727355Y-74855178D01*
X38943588Y-74660269D01*
X39117641Y-74426920D01*
X39242825Y-74164099D01*
X39287476Y-74016890D01*
X39166155Y-73787000D01*
X37973000Y-73787000D01*
X37973000Y-73807000D01*
X37719000Y-73807000D01*
X37719000Y-73787000D01*
X36525845Y-73787000D01*
X36404524Y-74016890D01*
X36449175Y-74164099D01*
X36574359Y-74426920D01*
X36748412Y-74660269D01*
X36964645Y-74855178D01*
X37081523Y-74924799D01*
X37016986Y-74959294D01*
X36790866Y-75144866D01*
X36605294Y-75370986D01*
X36467401Y-75628966D01*
X36382487Y-75908889D01*
X36356235Y-76175433D01*
X35869804Y-75689003D01*
X35846001Y-75659999D01*
X35730276Y-75565026D01*
X35598247Y-75494454D01*
X35454986Y-75450997D01*
X35343333Y-75440000D01*
X35343322Y-75440000D01*
X35306000Y-75436324D01*
X35268678Y-75440000D01*
X34297595Y-75440000D01*
X34260706Y-75370986D01*
X34075134Y-75144866D01*
X33849014Y-74959294D01*
X33784477Y-74924799D01*
X33901355Y-74855178D01*
X34117588Y-74660269D01*
X34291641Y-74426920D01*
X34416825Y-74164099D01*
X34461476Y-74016890D01*
X34340155Y-73787000D01*
X33147000Y-73787000D01*
X33147000Y-73807000D01*
X32893000Y-73807000D01*
X32893000Y-73787000D01*
X31699845Y-73787000D01*
X31578524Y-74016890D01*
X31623175Y-74164099D01*
X31748359Y-74426920D01*
X31922412Y-74660269D01*
X32138645Y-74855178D01*
X32255523Y-74924799D01*
X32190986Y-74959294D01*
X31964866Y-75144866D01*
X31779294Y-75370986D01*
X31641401Y-75628966D01*
X31556487Y-75908889D01*
X31527815Y-76200000D01*
X31165000Y-76200000D01*
X31165000Y-43180000D01*
X31527815Y-43180000D01*
X31556487Y-43471111D01*
X31641401Y-43751034D01*
X31779294Y-44009014D01*
X31964866Y-44235134D01*
X32190986Y-44420706D01*
X32245791Y-44450000D01*
X32190986Y-44479294D01*
X31964866Y-44664866D01*
X31779294Y-44890986D01*
X31641401Y-45148966D01*
X31556487Y-45428889D01*
X31527815Y-45720000D01*
X31556487Y-46011111D01*
X31641401Y-46291034D01*
X31779294Y-46549014D01*
X31964866Y-46775134D01*
X32190986Y-46960706D01*
X32245791Y-46990000D01*
X32190986Y-47019294D01*
X31964866Y-47204866D01*
X31779294Y-47430986D01*
X31641401Y-47688966D01*
X31556487Y-47968889D01*
X31527815Y-48260000D01*
X31556487Y-48551111D01*
X31641401Y-48831034D01*
X31779294Y-49089014D01*
X31964866Y-49315134D01*
X32190986Y-49500706D01*
X32245791Y-49530000D01*
X32190986Y-49559294D01*
X31964866Y-49744866D01*
X31779294Y-49970986D01*
X31641401Y-50228966D01*
X31556487Y-50508889D01*
X31527815Y-50800000D01*
X31556487Y-51091111D01*
X31641401Y-51371034D01*
X31779294Y-51629014D01*
X31964866Y-51855134D01*
X32190986Y-52040706D01*
X32245791Y-52070000D01*
X32190986Y-52099294D01*
X31964866Y-52284866D01*
X31779294Y-52510986D01*
X31641401Y-52768966D01*
X31556487Y-53048889D01*
X31527815Y-53340000D01*
X31556487Y-53631111D01*
X31641401Y-53911034D01*
X31779294Y-54169014D01*
X31964866Y-54395134D01*
X32190986Y-54580706D01*
X32245791Y-54610000D01*
X32190986Y-54639294D01*
X31964866Y-54824866D01*
X31779294Y-55050986D01*
X31641401Y-55308966D01*
X31556487Y-55588889D01*
X31527815Y-55880000D01*
X31556487Y-56171111D01*
X31641401Y-56451034D01*
X31779294Y-56709014D01*
X31964866Y-56935134D01*
X32190986Y-57120706D01*
X32245791Y-57150000D01*
X32190986Y-57179294D01*
X31964866Y-57364866D01*
X31779294Y-57590986D01*
X31641401Y-57848966D01*
X31556487Y-58128889D01*
X31527815Y-58420000D01*
X31556487Y-58711111D01*
X31641401Y-58991034D01*
X31779294Y-59249014D01*
X31964866Y-59475134D01*
X32190986Y-59660706D01*
X32245791Y-59690000D01*
X32190986Y-59719294D01*
X31964866Y-59904866D01*
X31779294Y-60130986D01*
X31641401Y-60388966D01*
X31556487Y-60668889D01*
X31527815Y-60960000D01*
X31556487Y-61251111D01*
X31641401Y-61531034D01*
X31779294Y-61789014D01*
X31964866Y-62015134D01*
X32190986Y-62200706D01*
X32245791Y-62230000D01*
X32190986Y-62259294D01*
X31964866Y-62444866D01*
X31779294Y-62670986D01*
X31641401Y-62928966D01*
X31556487Y-63208889D01*
X31527815Y-63500000D01*
X31556487Y-63791111D01*
X31641401Y-64071034D01*
X31779294Y-64329014D01*
X31964866Y-64555134D01*
X32190986Y-64740706D01*
X32245791Y-64770000D01*
X32190986Y-64799294D01*
X31964866Y-64984866D01*
X31779294Y-65210986D01*
X31641401Y-65468966D01*
X31556487Y-65748889D01*
X31527815Y-66040000D01*
X31556487Y-66331111D01*
X31641401Y-66611034D01*
X31779294Y-66869014D01*
X31964866Y-67095134D01*
X32190986Y-67280706D01*
X32245791Y-67310000D01*
X32190986Y-67339294D01*
X31964866Y-67524866D01*
X31779294Y-67750986D01*
X31641401Y-68008966D01*
X31556487Y-68288889D01*
X31527815Y-68580000D01*
X31556487Y-68871111D01*
X31641401Y-69151034D01*
X31779294Y-69409014D01*
X31964866Y-69635134D01*
X32190986Y-69820706D01*
X32245791Y-69850000D01*
X32190986Y-69879294D01*
X31964866Y-70064866D01*
X31779294Y-70290986D01*
X31641401Y-70548966D01*
X31556487Y-70828889D01*
X31527815Y-71120000D01*
X31556487Y-71411111D01*
X31641401Y-71691034D01*
X31779294Y-71949014D01*
X31964866Y-72175134D01*
X32190986Y-72360706D01*
X32255523Y-72395201D01*
X32138645Y-72464822D01*
X31922412Y-72659731D01*
X31748359Y-72893080D01*
X31623175Y-73155901D01*
X31578524Y-73303110D01*
X31699845Y-73533000D01*
X32893000Y-73533000D01*
X32893000Y-73513000D01*
X33147000Y-73513000D01*
X33147000Y-73533000D01*
X34340155Y-73533000D01*
X34461476Y-73303110D01*
X34416825Y-73155901D01*
X34291641Y-72893080D01*
X34117588Y-72659731D01*
X33901355Y-72464822D01*
X33784477Y-72395201D01*
X33849014Y-72360706D01*
X34075134Y-72175134D01*
X34260706Y-71949014D01*
X34398599Y-71691034D01*
X34483513Y-71411111D01*
X34512185Y-71120000D01*
X34483513Y-70828889D01*
X34398599Y-70548966D01*
X34260706Y-70290986D01*
X34243484Y-70270000D01*
X36357928Y-70270000D01*
X36357928Y-71970000D01*
X36370188Y-72094482D01*
X36406498Y-72214180D01*
X36465463Y-72324494D01*
X36544815Y-72421185D01*
X36641506Y-72500537D01*
X36751820Y-72559502D01*
X36832466Y-72583966D01*
X36748412Y-72659731D01*
X36574359Y-72893080D01*
X36449175Y-73155901D01*
X36404524Y-73303110D01*
X36525845Y-73533000D01*
X37719000Y-73533000D01*
X37719000Y-73513000D01*
X37973000Y-73513000D01*
X37973000Y-73533000D01*
X39166155Y-73533000D01*
X39287476Y-73303110D01*
X39242825Y-73155901D01*
X39117641Y-72893080D01*
X38943588Y-72659731D01*
X38859534Y-72583966D01*
X38940180Y-72559502D01*
X39050494Y-72500537D01*
X39147185Y-72421185D01*
X39226537Y-72324494D01*
X39285502Y-72214180D01*
X39321812Y-72094482D01*
X39334072Y-71970000D01*
X39334072Y-70270000D01*
X39321812Y-70145518D01*
X39285502Y-70025820D01*
X39226537Y-69915506D01*
X39147185Y-69818815D01*
X39050494Y-69739463D01*
X38940180Y-69680498D01*
X38820482Y-69644188D01*
X38696000Y-69631928D01*
X36996000Y-69631928D01*
X36871518Y-69644188D01*
X36751820Y-69680498D01*
X36641506Y-69739463D01*
X36544815Y-69818815D01*
X36465463Y-69915506D01*
X36406498Y-70025820D01*
X36370188Y-70145518D01*
X36357928Y-70270000D01*
X34243484Y-70270000D01*
X34075134Y-70064866D01*
X33849014Y-69879294D01*
X33794209Y-69850000D01*
X33849014Y-69820706D01*
X34075134Y-69635134D01*
X34260706Y-69409014D01*
X34398599Y-69151034D01*
X34483513Y-68871111D01*
X34512185Y-68580000D01*
X34483513Y-68288889D01*
X34398599Y-68008966D01*
X34260706Y-67750986D01*
X34075134Y-67524866D01*
X33849014Y-67339294D01*
X33794209Y-67310000D01*
X33849014Y-67280706D01*
X34075134Y-67095134D01*
X34260706Y-66869014D01*
X34398599Y-66611034D01*
X34483513Y-66331111D01*
X34512185Y-66040000D01*
X34483513Y-65748889D01*
X34398599Y-65468966D01*
X34260706Y-65210986D01*
X34075134Y-64984866D01*
X33849014Y-64799294D01*
X33794209Y-64770000D01*
X33849014Y-64740706D01*
X34075134Y-64555134D01*
X34260706Y-64329014D01*
X34398599Y-64071034D01*
X34483513Y-63791111D01*
X34512185Y-63500000D01*
X34483513Y-63208889D01*
X34398599Y-62928966D01*
X34260706Y-62670986D01*
X34075134Y-62444866D01*
X33849014Y-62259294D01*
X33794209Y-62230000D01*
X33849014Y-62200706D01*
X34075134Y-62015134D01*
X34260706Y-61789014D01*
X34398599Y-61531034D01*
X34483513Y-61251111D01*
X34512185Y-60960000D01*
X34483513Y-60668889D01*
X34398599Y-60388966D01*
X34260706Y-60130986D01*
X34075134Y-59904866D01*
X33849014Y-59719294D01*
X33794209Y-59690000D01*
X33849014Y-59660706D01*
X34075134Y-59475134D01*
X34260706Y-59249014D01*
X34398599Y-58991034D01*
X34483513Y-58711111D01*
X34512185Y-58420000D01*
X34483513Y-58128889D01*
X34398599Y-57848966D01*
X34260706Y-57590986D01*
X34075134Y-57364866D01*
X33849014Y-57179294D01*
X33794209Y-57150000D01*
X33849014Y-57120706D01*
X34075134Y-56935134D01*
X34260706Y-56709014D01*
X34398599Y-56451034D01*
X34483513Y-56171111D01*
X34512185Y-55880000D01*
X34483513Y-55588889D01*
X34398599Y-55308966D01*
X34260706Y-55050986D01*
X34075134Y-54824866D01*
X33849014Y-54639294D01*
X33794209Y-54610000D01*
X33849014Y-54580706D01*
X34075134Y-54395134D01*
X34260706Y-54169014D01*
X34398599Y-53911034D01*
X34483513Y-53631111D01*
X34512185Y-53340000D01*
X34483513Y-53048889D01*
X34398599Y-52768966D01*
X34260706Y-52510986D01*
X34075134Y-52284866D01*
X33849014Y-52099294D01*
X33794209Y-52070000D01*
X33849014Y-52040706D01*
X34075134Y-51855134D01*
X34260706Y-51629014D01*
X34398599Y-51371034D01*
X34483513Y-51091111D01*
X34512185Y-50800000D01*
X34483513Y-50508889D01*
X34398599Y-50228966D01*
X34260706Y-49970986D01*
X34075134Y-49744866D01*
X33849014Y-49559294D01*
X33794209Y-49530000D01*
X33849014Y-49500706D01*
X34075134Y-49315134D01*
X34260706Y-49089014D01*
X34398599Y-48831034D01*
X34483513Y-48551111D01*
X34512185Y-48260000D01*
X34483513Y-47968889D01*
X34398599Y-47688966D01*
X34260706Y-47430986D01*
X34075134Y-47204866D01*
X33849014Y-47019294D01*
X33794209Y-46990000D01*
X33849014Y-46960706D01*
X34075134Y-46775134D01*
X34260706Y-46549014D01*
X34398599Y-46291034D01*
X34483513Y-46011111D01*
X34512185Y-45720000D01*
X34483513Y-45428889D01*
X34398599Y-45148966D01*
X34260706Y-44890986D01*
X34075134Y-44664866D01*
X33849014Y-44479294D01*
X33794209Y-44450000D01*
X33849014Y-44420706D01*
X34075134Y-44235134D01*
X34260706Y-44009014D01*
X34398599Y-43751034D01*
X34483513Y-43471111D01*
X34512185Y-43180000D01*
X34483513Y-42888889D01*
X34398599Y-42608966D01*
X34260706Y-42350986D01*
X34075134Y-42124866D01*
X33849014Y-41939294D01*
X33591034Y-41801401D01*
X33311111Y-41716487D01*
X33092950Y-41695000D01*
X32947050Y-41695000D01*
X32728889Y-41716487D01*
X32448966Y-41801401D01*
X32190986Y-41939294D01*
X31964866Y-42124866D01*
X31779294Y-42350986D01*
X31641401Y-42608966D01*
X31556487Y-42888889D01*
X31527815Y-43180000D01*
X31165000Y-43180000D01*
X31165000Y-41325000D01*
X60275000Y-41325000D01*
X60275001Y-98375000D01*
X60275001Y-98375000D01*
G37*
X60275001Y-98375000D02*
X31165000Y-98375000D01*
X31165000Y-95670000D01*
X31531928Y-95670000D01*
X31531928Y-97370000D01*
X31544188Y-97494482D01*
X31580498Y-97614180D01*
X31639463Y-97724494D01*
X31718815Y-97821185D01*
X31815506Y-97900537D01*
X31925820Y-97959502D01*
X32045518Y-97995812D01*
X32170000Y-98008072D01*
X33870000Y-98008072D01*
X33994482Y-97995812D01*
X34114180Y-97959502D01*
X34224494Y-97900537D01*
X34321185Y-97821185D01*
X34400537Y-97724494D01*
X34459502Y-97614180D01*
X34480393Y-97545313D01*
X34504866Y-97575134D01*
X34730986Y-97760706D01*
X34988966Y-97898599D01*
X35268889Y-97983513D01*
X35487050Y-98005000D01*
X35632950Y-98005000D01*
X35851111Y-97983513D01*
X36131034Y-97898599D01*
X36389014Y-97760706D01*
X36615134Y-97575134D01*
X36800706Y-97349014D01*
X36835201Y-97284477D01*
X36904822Y-97401355D01*
X37099731Y-97617588D01*
X37333080Y-97791641D01*
X37595901Y-97916825D01*
X37743110Y-97961476D01*
X37973000Y-97840155D01*
X37973000Y-96647000D01*
X38227000Y-96647000D01*
X38227000Y-97840155D01*
X38456890Y-97961476D01*
X38604099Y-97916825D01*
X38866920Y-97791641D01*
X39100269Y-97617588D01*
X39295178Y-97401355D01*
X39444157Y-97151252D01*
X39541481Y-96876891D01*
X39420814Y-96647000D01*
X38227000Y-96647000D01*
X37973000Y-96647000D01*
X37953000Y-96647000D01*
X37953000Y-96393000D01*
X37973000Y-96393000D01*
X37973000Y-95199845D01*
X38227000Y-95199845D01*
X38227000Y-96393000D01*
X39420814Y-96393000D01*
X39541481Y-96163109D01*
X39444157Y-95888748D01*
X39313856Y-95670000D01*
X41691928Y-95670000D01*
X41691928Y-97370000D01*
X41704188Y-97494482D01*
X41740498Y-97614180D01*
X41799463Y-97724494D01*
X41878815Y-97821185D01*
X41975506Y-97900537D01*
X42085820Y-97959502D01*
X42205518Y-97995812D01*
X42330000Y-98008072D01*
X44030000Y-98008072D01*
X44154482Y-97995812D01*
X44274180Y-97959502D01*
X44384494Y-97900537D01*
X44481185Y-97821185D01*
X44560537Y-97724494D01*
X44619502Y-97614180D01*
X44643966Y-97533534D01*
X44719731Y-97617588D01*
X44953080Y-97791641D01*
X45215901Y-97916825D01*
X45363110Y-97961476D01*
X45593000Y-97840155D01*
X45593000Y-96647000D01*
X45847000Y-96647000D01*
X45847000Y-97840155D01*
X46076890Y-97961476D01*
X46224099Y-97916825D01*
X46486920Y-97791641D01*
X46720269Y-97617588D01*
X46915178Y-97401355D01*
X47064157Y-97151252D01*
X47161481Y-96876891D01*
X47040814Y-96647000D01*
X45847000Y-96647000D01*
X45593000Y-96647000D01*
X45573000Y-96647000D01*
X45573000Y-96393000D01*
X45593000Y-96393000D01*
X45593000Y-95199845D01*
X45847000Y-95199845D01*
X45847000Y-96393000D01*
X47040814Y-96393000D01*
X47161481Y-96163109D01*
X47064157Y-95888748D01*
X46915178Y-95638645D01*
X46720269Y-95422412D01*
X46486920Y-95248359D01*
X46224099Y-95123175D01*
X46076890Y-95078524D01*
X45847000Y-95199845D01*
X45593000Y-95199845D01*
X45363110Y-95078524D01*
X45215901Y-95123175D01*
X44953080Y-95248359D01*
X44719731Y-95422412D01*
X44643966Y-95506466D01*
X44619502Y-95425820D01*
X44560537Y-95315506D01*
X44481185Y-95218815D01*
X44384494Y-95139463D01*
X44274180Y-95080498D01*
X44154482Y-95044188D01*
X44030000Y-95031928D01*
X42330000Y-95031928D01*
X42205518Y-95044188D01*
X42085820Y-95080498D01*
X41975506Y-95139463D01*
X41878815Y-95218815D01*
X41799463Y-95315506D01*
X41740498Y-95425820D01*
X41704188Y-95545518D01*
X41691928Y-95670000D01*
X39313856Y-95670000D01*
X39295178Y-95638645D01*
X39100269Y-95422412D01*
X38866920Y-95248359D01*
X38604099Y-95123175D01*
X38456890Y-95078524D01*
X38227000Y-95199845D01*
X37973000Y-95199845D01*
X37743110Y-95078524D01*
X37595901Y-95123175D01*
X37333080Y-95248359D01*
X37099731Y-95422412D01*
X36904822Y-95638645D01*
X36835201Y-95755523D01*
X36800706Y-95690986D01*
X36641639Y-95497162D01*
X43437004Y-88701798D01*
X43466001Y-88678001D01*
X43522720Y-88608889D01*
X43560974Y-88562277D01*
X43631546Y-88430247D01*
X43655844Y-88350145D01*
X43675003Y-88286986D01*
X43686000Y-88175333D01*
X43686000Y-88175324D01*
X43689676Y-88138001D01*
X43686000Y-88100678D01*
X43686000Y-86551711D01*
X43790226Y-86655937D01*
X43959744Y-86769205D01*
X44148102Y-86847226D01*
X44348061Y-86887000D01*
X44551939Y-86887000D01*
X44751898Y-86847226D01*
X44940256Y-86769205D01*
X45109774Y-86655937D01*
X45253937Y-86511774D01*
X45367205Y-86342256D01*
X45445226Y-86153898D01*
X45485000Y-85953939D01*
X45485000Y-85750061D01*
X45445226Y-85550102D01*
X45367205Y-85361744D01*
X45253937Y-85192226D01*
X45210000Y-85148289D01*
X45210000Y-82864801D01*
X48569799Y-79505004D01*
X48569808Y-79504993D01*
X56930235Y-71144567D01*
X56956487Y-71411111D01*
X57041401Y-71691034D01*
X57179294Y-71949014D01*
X57364866Y-72175134D01*
X57590986Y-72360706D01*
X57645791Y-72390000D01*
X57590986Y-72419294D01*
X57364866Y-72604866D01*
X57179294Y-72830986D01*
X57041401Y-73088966D01*
X56956487Y-73368889D01*
X56927815Y-73660000D01*
X56956487Y-73951111D01*
X57041401Y-74231034D01*
X57179294Y-74489014D01*
X57364866Y-74715134D01*
X57590986Y-74900706D01*
X57645791Y-74930000D01*
X57590986Y-74959294D01*
X57364866Y-75144866D01*
X57179294Y-75370986D01*
X57041401Y-75628966D01*
X56956487Y-75908889D01*
X56927815Y-76200000D01*
X56956487Y-76491111D01*
X57041401Y-76771034D01*
X57179294Y-77029014D01*
X57364866Y-77255134D01*
X57590986Y-77440706D01*
X57645791Y-77470000D01*
X57590986Y-77499294D01*
X57364866Y-77684866D01*
X57179294Y-77910986D01*
X57041401Y-78168966D01*
X56992270Y-78330928D01*
X52828998Y-82494201D01*
X52800000Y-82517999D01*
X52776202Y-82546997D01*
X52776201Y-82546998D01*
X52705026Y-82633724D01*
X52634454Y-82765754D01*
X52590998Y-82909015D01*
X52576324Y-83058000D01*
X52580001Y-83095332D01*
X52580000Y-95031928D01*
X52490000Y-95031928D01*
X52365518Y-95044188D01*
X52245820Y-95080498D01*
X52135506Y-95139463D01*
X52038815Y-95218815D01*
X51959463Y-95315506D01*
X51900498Y-95425820D01*
X51864188Y-95545518D01*
X51851928Y-95670000D01*
X51851928Y-97370000D01*
X51864188Y-97494482D01*
X51900498Y-97614180D01*
X51959463Y-97724494D01*
X52038815Y-97821185D01*
X52135506Y-97900537D01*
X52245820Y-97959502D01*
X52365518Y-97995812D01*
X52490000Y-98008072D01*
X54190000Y-98008072D01*
X54314482Y-97995812D01*
X54434180Y-97959502D01*
X54544494Y-97900537D01*
X54641185Y-97821185D01*
X54720537Y-97724494D01*
X54779502Y-97614180D01*
X54803966Y-97533534D01*
X54879731Y-97617588D01*
X55113080Y-97791641D01*
X55375901Y-97916825D01*
X55523110Y-97961476D01*
X55753000Y-97840155D01*
X55753000Y-96647000D01*
X55733000Y-96647000D01*
X55733000Y-96393000D01*
X55753000Y-96393000D01*
X55753000Y-95199845D01*
X56007000Y-95199845D01*
X56007000Y-96393000D01*
X56027000Y-96393000D01*
X56027000Y-96647000D01*
X56007000Y-96647000D01*
X56007000Y-97840155D01*
X56236890Y-97961476D01*
X56384099Y-97916825D01*
X56646920Y-97791641D01*
X56880269Y-97617588D01*
X57075178Y-97401355D01*
X57144799Y-97284477D01*
X57179294Y-97349014D01*
X57364866Y-97575134D01*
X57590986Y-97760706D01*
X57848966Y-97898599D01*
X58128889Y-97983513D01*
X58347050Y-98005000D01*
X58492950Y-98005000D01*
X58711111Y-97983513D01*
X58991034Y-97898599D01*
X59249014Y-97760706D01*
X59475134Y-97575134D01*
X59660706Y-97349014D01*
X59798599Y-97091034D01*
X59883513Y-96811111D01*
X59912185Y-96520000D01*
X59883513Y-96228889D01*
X59798599Y-95948966D01*
X59660706Y-95690986D01*
X59475134Y-95464866D01*
X59249014Y-95279294D01*
X58991034Y-95141401D01*
X58711111Y-95056487D01*
X58492950Y-95035000D01*
X58347050Y-95035000D01*
X58128889Y-95056487D01*
X57848966Y-95141401D01*
X57590986Y-95279294D01*
X57364866Y-95464866D01*
X57179294Y-95690986D01*
X57144799Y-95755523D01*
X57075178Y-95638645D01*
X56880269Y-95422412D01*
X56646920Y-95248359D01*
X56384099Y-95123175D01*
X56236890Y-95078524D01*
X56007000Y-95199845D01*
X55753000Y-95199845D01*
X55523110Y-95078524D01*
X55375901Y-95123175D01*
X55113080Y-95248359D01*
X54879731Y-95422412D01*
X54803966Y-95506466D01*
X54779502Y-95425820D01*
X54720537Y-95315506D01*
X54641185Y-95218815D01*
X54544494Y-95139463D01*
X54434180Y-95080498D01*
X54314482Y-95044188D01*
X54190000Y-95031928D01*
X54100000Y-95031928D01*
X54100000Y-83372801D01*
X57536671Y-79936131D01*
X57590986Y-79980706D01*
X57645791Y-80010000D01*
X57590986Y-80039294D01*
X57364866Y-80224866D01*
X57179294Y-80450986D01*
X57041401Y-80708966D01*
X56956487Y-80988889D01*
X56927815Y-81280000D01*
X56956487Y-81571111D01*
X57041401Y-81851034D01*
X57179294Y-82109014D01*
X57364866Y-82335134D01*
X57590986Y-82520706D01*
X57645791Y-82550000D01*
X57590986Y-82579294D01*
X57364866Y-82764866D01*
X57179294Y-82990986D01*
X57041401Y-83248966D01*
X56956487Y-83528889D01*
X56927815Y-83820000D01*
X56956487Y-84111111D01*
X57041401Y-84391034D01*
X57179294Y-84649014D01*
X57364866Y-84875134D01*
X57590986Y-85060706D01*
X57645791Y-85090000D01*
X57590986Y-85119294D01*
X57364866Y-85304866D01*
X57179294Y-85530986D01*
X57041401Y-85788966D01*
X56956487Y-86068889D01*
X56927815Y-86360000D01*
X56956487Y-86651111D01*
X57041401Y-86931034D01*
X57179294Y-87189014D01*
X57364866Y-87415134D01*
X57394687Y-87439607D01*
X57325820Y-87460498D01*
X57215506Y-87519463D01*
X57118815Y-87598815D01*
X57039463Y-87695506D01*
X56980498Y-87805820D01*
X56944188Y-87925518D01*
X56931928Y-88050000D01*
X56931928Y-89750000D01*
X56944188Y-89874482D01*
X56980498Y-89994180D01*
X57039463Y-90104494D01*
X57118815Y-90201185D01*
X57215506Y-90280537D01*
X57325820Y-90339502D01*
X57445518Y-90375812D01*
X57570000Y-90388072D01*
X59270000Y-90388072D01*
X59394482Y-90375812D01*
X59514180Y-90339502D01*
X59624494Y-90280537D01*
X59721185Y-90201185D01*
X59800537Y-90104494D01*
X59859502Y-89994180D01*
X59895812Y-89874482D01*
X59908072Y-89750000D01*
X59908072Y-88050000D01*
X59895812Y-87925518D01*
X59859502Y-87805820D01*
X59800537Y-87695506D01*
X59721185Y-87598815D01*
X59624494Y-87519463D01*
X59514180Y-87460498D01*
X59445313Y-87439607D01*
X59475134Y-87415134D01*
X59660706Y-87189014D01*
X59798599Y-86931034D01*
X59883513Y-86651111D01*
X59912185Y-86360000D01*
X59883513Y-86068889D01*
X59798599Y-85788966D01*
X59660706Y-85530986D01*
X59475134Y-85304866D01*
X59249014Y-85119294D01*
X59194209Y-85090000D01*
X59249014Y-85060706D01*
X59475134Y-84875134D01*
X59660706Y-84649014D01*
X59798599Y-84391034D01*
X59883513Y-84111111D01*
X59912185Y-83820000D01*
X59883513Y-83528889D01*
X59798599Y-83248966D01*
X59660706Y-82990986D01*
X59475134Y-82764866D01*
X59249014Y-82579294D01*
X59194209Y-82550000D01*
X59249014Y-82520706D01*
X59475134Y-82335134D01*
X59660706Y-82109014D01*
X59798599Y-81851034D01*
X59883513Y-81571111D01*
X59912185Y-81280000D01*
X59883513Y-80988889D01*
X59798599Y-80708966D01*
X59660706Y-80450986D01*
X59475134Y-80224866D01*
X59249014Y-80039294D01*
X59194209Y-80010000D01*
X59249014Y-79980706D01*
X59475134Y-79795134D01*
X59660706Y-79569014D01*
X59798599Y-79311034D01*
X59883513Y-79031111D01*
X59912185Y-78740000D01*
X59883513Y-78448889D01*
X59798599Y-78168966D01*
X59660706Y-77910986D01*
X59475134Y-77684866D01*
X59249014Y-77499294D01*
X59194209Y-77470000D01*
X59249014Y-77440706D01*
X59475134Y-77255134D01*
X59660706Y-77029014D01*
X59798599Y-76771034D01*
X59883513Y-76491111D01*
X59912185Y-76200000D01*
X59883513Y-75908889D01*
X59798599Y-75628966D01*
X59660706Y-75370986D01*
X59475134Y-75144866D01*
X59249014Y-74959294D01*
X59194209Y-74930000D01*
X59249014Y-74900706D01*
X59475134Y-74715134D01*
X59660706Y-74489014D01*
X59798599Y-74231034D01*
X59883513Y-73951111D01*
X59912185Y-73660000D01*
X59883513Y-73368889D01*
X59798599Y-73088966D01*
X59660706Y-72830986D01*
X59475134Y-72604866D01*
X59249014Y-72419294D01*
X59194209Y-72390000D01*
X59249014Y-72360706D01*
X59475134Y-72175134D01*
X59660706Y-71949014D01*
X59798599Y-71691034D01*
X59883513Y-71411111D01*
X59912185Y-71120000D01*
X59883513Y-70828889D01*
X59798599Y-70548966D01*
X59660706Y-70290986D01*
X59475134Y-70064866D01*
X59249014Y-69879294D01*
X59194209Y-69850000D01*
X59249014Y-69820706D01*
X59475134Y-69635134D01*
X59660706Y-69409014D01*
X59798599Y-69151034D01*
X59883513Y-68871111D01*
X59912185Y-68580000D01*
X59883513Y-68288889D01*
X59798599Y-68008966D01*
X59660706Y-67750986D01*
X59475134Y-67524866D01*
X59249014Y-67339294D01*
X59194209Y-67310000D01*
X59249014Y-67280706D01*
X59475134Y-67095134D01*
X59660706Y-66869014D01*
X59798599Y-66611034D01*
X59883513Y-66331111D01*
X59912185Y-66040000D01*
X59883513Y-65748889D01*
X59798599Y-65468966D01*
X59660706Y-65210986D01*
X59475134Y-64984866D01*
X59249014Y-64799294D01*
X59194209Y-64770000D01*
X59249014Y-64740706D01*
X59475134Y-64555134D01*
X59660706Y-64329014D01*
X59798599Y-64071034D01*
X59883513Y-63791111D01*
X59912185Y-63500000D01*
X59883513Y-63208889D01*
X59798599Y-62928966D01*
X59660706Y-62670986D01*
X59475134Y-62444866D01*
X59249014Y-62259294D01*
X59194209Y-62230000D01*
X59249014Y-62200706D01*
X59475134Y-62015134D01*
X59660706Y-61789014D01*
X59798599Y-61531034D01*
X59883513Y-61251111D01*
X59912185Y-60960000D01*
X59883513Y-60668889D01*
X59798599Y-60388966D01*
X59660706Y-60130986D01*
X59475134Y-59904866D01*
X59249014Y-59719294D01*
X59194209Y-59690000D01*
X59249014Y-59660706D01*
X59475134Y-59475134D01*
X59660706Y-59249014D01*
X59798599Y-58991034D01*
X59883513Y-58711111D01*
X59912185Y-58420000D01*
X59883513Y-58128889D01*
X59798599Y-57848966D01*
X59660706Y-57590986D01*
X59475134Y-57364866D01*
X59249014Y-57179294D01*
X59184477Y-57144799D01*
X59301355Y-57075178D01*
X59517588Y-56880269D01*
X59691641Y-56646920D01*
X59816825Y-56384099D01*
X59861476Y-56236890D01*
X59740155Y-56007000D01*
X58547000Y-56007000D01*
X58547000Y-56027000D01*
X58293000Y-56027000D01*
X58293000Y-56007000D01*
X57099845Y-56007000D01*
X56978524Y-56236890D01*
X57023175Y-56384099D01*
X57148359Y-56646920D01*
X57322412Y-56880269D01*
X57538645Y-57075178D01*
X57655523Y-57144799D01*
X57590986Y-57179294D01*
X57364866Y-57364866D01*
X57179294Y-57590986D01*
X57041401Y-57848966D01*
X56956487Y-58128889D01*
X56927815Y-58420000D01*
X56956487Y-58711111D01*
X57041401Y-58991034D01*
X57179294Y-59249014D01*
X57364866Y-59475134D01*
X57590986Y-59660706D01*
X57645791Y-59690000D01*
X57590986Y-59719294D01*
X57364866Y-59904866D01*
X57179294Y-60130986D01*
X57041401Y-60388966D01*
X56956487Y-60668889D01*
X56927815Y-60960000D01*
X56956487Y-61251111D01*
X57041401Y-61531034D01*
X57179294Y-61789014D01*
X57364866Y-62015134D01*
X57590986Y-62200706D01*
X57645791Y-62230000D01*
X57590986Y-62259294D01*
X57364866Y-62444866D01*
X57179294Y-62670986D01*
X57041401Y-62928966D01*
X56956487Y-63208889D01*
X56927815Y-63500000D01*
X56956487Y-63791111D01*
X56979203Y-63865995D01*
X56130998Y-64714201D01*
X56102000Y-64737999D01*
X56078202Y-64766997D01*
X56078201Y-64766998D01*
X56007026Y-64853724D01*
X55936454Y-64985754D01*
X55892998Y-65129015D01*
X55878324Y-65278000D01*
X55882001Y-65315332D01*
X55882000Y-68519198D01*
X51381000Y-73020198D01*
X51381000Y-51399867D01*
X56935000Y-45845869D01*
X56935000Y-45847002D01*
X57099844Y-45847002D01*
X56978524Y-46076890D01*
X57023175Y-46224099D01*
X57148359Y-46486920D01*
X57322412Y-46720269D01*
X57538645Y-46915178D01*
X57655523Y-46984799D01*
X57590986Y-47019294D01*
X57364866Y-47204866D01*
X57179294Y-47430986D01*
X57041401Y-47688966D01*
X56956487Y-47968889D01*
X56927815Y-48260000D01*
X56956487Y-48551111D01*
X57041401Y-48831034D01*
X57179294Y-49089014D01*
X57364866Y-49315134D01*
X57590986Y-49500706D01*
X57645791Y-49530000D01*
X57590986Y-49559294D01*
X57364866Y-49744866D01*
X57179294Y-49970986D01*
X57041401Y-50228966D01*
X56956487Y-50508889D01*
X56927815Y-50800000D01*
X56956487Y-51091111D01*
X57041401Y-51371034D01*
X57179294Y-51629014D01*
X57364866Y-51855134D01*
X57590986Y-52040706D01*
X57645791Y-52070000D01*
X57590986Y-52099294D01*
X57364866Y-52284866D01*
X57179294Y-52510986D01*
X57041401Y-52768966D01*
X56956487Y-53048889D01*
X56927815Y-53340000D01*
X56956487Y-53631111D01*
X57041401Y-53911034D01*
X57179294Y-54169014D01*
X57364866Y-54395134D01*
X57590986Y-54580706D01*
X57655523Y-54615201D01*
X57538645Y-54684822D01*
X57322412Y-54879731D01*
X57148359Y-55113080D01*
X57023175Y-55375901D01*
X56978524Y-55523110D01*
X57099845Y-55753000D01*
X58293000Y-55753000D01*
X58293000Y-55733000D01*
X58547000Y-55733000D01*
X58547000Y-55753000D01*
X59740155Y-55753000D01*
X59861476Y-55523110D01*
X59816825Y-55375901D01*
X59691641Y-55113080D01*
X59517588Y-54879731D01*
X59301355Y-54684822D01*
X59184477Y-54615201D01*
X59249014Y-54580706D01*
X59475134Y-54395134D01*
X59660706Y-54169014D01*
X59798599Y-53911034D01*
X59883513Y-53631111D01*
X59912185Y-53340000D01*
X59883513Y-53048889D01*
X59798599Y-52768966D01*
X59660706Y-52510986D01*
X59475134Y-52284866D01*
X59249014Y-52099294D01*
X59194209Y-52070000D01*
X59249014Y-52040706D01*
X59475134Y-51855134D01*
X59660706Y-51629014D01*
X59798599Y-51371034D01*
X59883513Y-51091111D01*
X59912185Y-50800000D01*
X59883513Y-50508889D01*
X59798599Y-50228966D01*
X59660706Y-49970986D01*
X59475134Y-49744866D01*
X59249014Y-49559294D01*
X59194209Y-49530000D01*
X59249014Y-49500706D01*
X59475134Y-49315134D01*
X59660706Y-49089014D01*
X59798599Y-48831034D01*
X59883513Y-48551111D01*
X59912185Y-48260000D01*
X59883513Y-47968889D01*
X59798599Y-47688966D01*
X59660706Y-47430986D01*
X59475134Y-47204866D01*
X59249014Y-47019294D01*
X59184477Y-46984799D01*
X59301355Y-46915178D01*
X59517588Y-46720269D01*
X59691641Y-46486920D01*
X59816825Y-46224099D01*
X59861476Y-46076890D01*
X59740155Y-45847000D01*
X58547000Y-45847000D01*
X58547000Y-45867000D01*
X58293000Y-45867000D01*
X58293000Y-45847000D01*
X58273000Y-45847000D01*
X58273000Y-45593000D01*
X58293000Y-45593000D01*
X58293000Y-45573000D01*
X58547000Y-45573000D01*
X58547000Y-45593000D01*
X59740155Y-45593000D01*
X59861476Y-45363110D01*
X59816825Y-45215901D01*
X59691641Y-44953080D01*
X59517588Y-44719731D01*
X59301355Y-44524822D01*
X59184477Y-44455201D01*
X59249014Y-44420706D01*
X59475134Y-44235134D01*
X59660706Y-44009014D01*
X59798599Y-43751034D01*
X59883513Y-43471111D01*
X59912185Y-43180000D01*
X59883513Y-42888889D01*
X59798599Y-42608966D01*
X59660706Y-42350986D01*
X59475134Y-42124866D01*
X59249014Y-41939294D01*
X58991034Y-41801401D01*
X58711111Y-41716487D01*
X58492950Y-41695000D01*
X58347050Y-41695000D01*
X58128889Y-41716487D01*
X57848966Y-41801401D01*
X57590986Y-41939294D01*
X57364866Y-42124866D01*
X57179294Y-42350986D01*
X57041401Y-42608966D01*
X56956487Y-42888889D01*
X56927815Y-43180000D01*
X56955728Y-43463403D01*
X49984574Y-50434559D01*
X49952710Y-50460709D01*
X49926562Y-50492571D01*
X49848364Y-50587855D01*
X49770828Y-50732914D01*
X49723082Y-50890312D01*
X49706960Y-51054000D01*
X49711001Y-51095029D01*
X49711000Y-73568132D01*
X41602574Y-81676559D01*
X41570710Y-81702709D01*
X41544562Y-81734571D01*
X41466364Y-81829855D01*
X41388828Y-81974914D01*
X41341082Y-82132312D01*
X41324960Y-82296000D01*
X41329001Y-82337028D01*
X41329000Y-87080981D01*
X41329000Y-87538132D01*
X35214133Y-93653000D01*
X33993018Y-93653000D01*
X33951999Y-93648960D01*
X33910981Y-93653000D01*
X33788311Y-93665082D01*
X33630913Y-93712828D01*
X33485854Y-93790364D01*
X33358709Y-93894709D01*
X33332561Y-93926571D01*
X32458574Y-94800559D01*
X32426710Y-94826709D01*
X32345907Y-94925168D01*
X32322364Y-94953855D01*
X32280633Y-95031928D01*
X32170000Y-95031928D01*
X32045518Y-95044188D01*
X31925820Y-95080498D01*
X31815506Y-95139463D01*
X31718815Y-95218815D01*
X31639463Y-95315506D01*
X31580498Y-95425820D01*
X31544188Y-95545518D01*
X31531928Y-95670000D01*
X31165000Y-95670000D01*
X31165000Y-89750000D01*
X31531928Y-89750000D01*
X31544188Y-89874482D01*
X31580498Y-89994180D01*
X31639463Y-90104494D01*
X31718815Y-90201185D01*
X31815506Y-90280537D01*
X31925820Y-90339502D01*
X32045518Y-90375812D01*
X32170000Y-90388072D01*
X32734250Y-90385000D01*
X32893000Y-90226250D01*
X32893000Y-89027000D01*
X33147000Y-89027000D01*
X33147000Y-90226250D01*
X33305750Y-90385000D01*
X33870000Y-90388072D01*
X33994482Y-90375812D01*
X34114180Y-90339502D01*
X34224494Y-90280537D01*
X34321185Y-90201185D01*
X34400537Y-90104494D01*
X34459502Y-89994180D01*
X34495812Y-89874482D01*
X34508072Y-89750000D01*
X34505000Y-89185750D01*
X34346250Y-89027000D01*
X33147000Y-89027000D01*
X32893000Y-89027000D01*
X31693750Y-89027000D01*
X31535000Y-89185750D01*
X31531928Y-89750000D01*
X31165000Y-89750000D01*
X31165000Y-76200000D01*
X31527815Y-76200000D01*
X31556487Y-76491111D01*
X31641401Y-76771034D01*
X31779294Y-77029014D01*
X31964866Y-77255134D01*
X32190986Y-77440706D01*
X32245791Y-77470000D01*
X32190986Y-77499294D01*
X31964866Y-77684866D01*
X31779294Y-77910986D01*
X31641401Y-78168966D01*
X31556487Y-78448889D01*
X31527815Y-78740000D01*
X31556487Y-79031111D01*
X31641401Y-79311034D01*
X31779294Y-79569014D01*
X31964866Y-79795134D01*
X32190986Y-79980706D01*
X32245791Y-80010000D01*
X32190986Y-80039294D01*
X31964866Y-80224866D01*
X31779294Y-80450986D01*
X31641401Y-80708966D01*
X31556487Y-80988889D01*
X31527815Y-81280000D01*
X31556487Y-81571111D01*
X31641401Y-81851034D01*
X31779294Y-82109014D01*
X31964866Y-82335134D01*
X32190986Y-82520706D01*
X32245791Y-82550000D01*
X32190986Y-82579294D01*
X31964866Y-82764866D01*
X31779294Y-82990986D01*
X31641401Y-83248966D01*
X31556487Y-83528889D01*
X31527815Y-83820000D01*
X31556487Y-84111111D01*
X31641401Y-84391034D01*
X31779294Y-84649014D01*
X31964866Y-84875134D01*
X32190986Y-85060706D01*
X32245791Y-85090000D01*
X32190986Y-85119294D01*
X31964866Y-85304866D01*
X31779294Y-85530986D01*
X31641401Y-85788966D01*
X31556487Y-86068889D01*
X31527815Y-86360000D01*
X31556487Y-86651111D01*
X31641401Y-86931034D01*
X31779294Y-87189014D01*
X31964866Y-87415134D01*
X31994687Y-87439607D01*
X31925820Y-87460498D01*
X31815506Y-87519463D01*
X31718815Y-87598815D01*
X31639463Y-87695506D01*
X31580498Y-87805820D01*
X31544188Y-87925518D01*
X31531928Y-88050000D01*
X31535000Y-88614250D01*
X31693750Y-88773000D01*
X32893000Y-88773000D01*
X32893000Y-88753000D01*
X33147000Y-88753000D01*
X33147000Y-88773000D01*
X34346250Y-88773000D01*
X34505000Y-88614250D01*
X34508072Y-88050000D01*
X34495812Y-87925518D01*
X34459502Y-87805820D01*
X34400537Y-87695506D01*
X34321185Y-87598815D01*
X34224494Y-87519463D01*
X34114180Y-87460498D01*
X34045313Y-87439607D01*
X34075134Y-87415134D01*
X34260706Y-87189014D01*
X34398599Y-86931034D01*
X34483513Y-86651111D01*
X34512185Y-86360000D01*
X34483513Y-86068889D01*
X34398599Y-85788966D01*
X34260706Y-85530986D01*
X34075134Y-85304866D01*
X33849014Y-85119294D01*
X33794209Y-85090000D01*
X33849014Y-85060706D01*
X34075134Y-84875134D01*
X34260706Y-84649014D01*
X34398599Y-84391034D01*
X34483513Y-84111111D01*
X34512185Y-83820000D01*
X34483513Y-83528889D01*
X34398599Y-83248966D01*
X34260706Y-82990986D01*
X34075134Y-82764866D01*
X33849014Y-82579294D01*
X33794209Y-82550000D01*
X33849014Y-82520706D01*
X34075134Y-82335134D01*
X34260706Y-82109014D01*
X34398599Y-81851034D01*
X34483513Y-81571111D01*
X34512185Y-81280000D01*
X34483513Y-80988889D01*
X34398599Y-80708966D01*
X34260706Y-80450986D01*
X34075134Y-80224866D01*
X33849014Y-80039294D01*
X33794209Y-80010000D01*
X33849014Y-79980706D01*
X34075134Y-79795134D01*
X34260706Y-79569014D01*
X34398599Y-79311034D01*
X34483513Y-79031111D01*
X34512185Y-78740000D01*
X34483513Y-78448889D01*
X34398599Y-78168966D01*
X34260706Y-77910986D01*
X34075134Y-77684866D01*
X33849014Y-77499294D01*
X33794209Y-77470000D01*
X33849014Y-77440706D01*
X34075134Y-77255134D01*
X34260706Y-77029014D01*
X34297595Y-76960000D01*
X34991199Y-76960000D01*
X36405203Y-78374005D01*
X36382487Y-78448889D01*
X36353815Y-78740000D01*
X36382487Y-79031111D01*
X36467401Y-79311034D01*
X36605294Y-79569014D01*
X36790866Y-79795134D01*
X37016986Y-79980706D01*
X37071791Y-80010000D01*
X37016986Y-80039294D01*
X36790866Y-80224866D01*
X36605294Y-80450986D01*
X36467401Y-80708966D01*
X36382487Y-80988889D01*
X36353815Y-81280000D01*
X36382487Y-81571111D01*
X36467401Y-81851034D01*
X36605294Y-82109014D01*
X36790866Y-82335134D01*
X37016986Y-82520706D01*
X37071791Y-82550000D01*
X37016986Y-82579294D01*
X36790866Y-82764866D01*
X36605294Y-82990986D01*
X36467401Y-83248966D01*
X36382487Y-83528889D01*
X36353815Y-83820000D01*
X36382487Y-84111111D01*
X36467401Y-84391034D01*
X36605294Y-84649014D01*
X36790866Y-84875134D01*
X37016986Y-85060706D01*
X37071791Y-85090000D01*
X37016986Y-85119294D01*
X36790866Y-85304866D01*
X36605294Y-85530986D01*
X36467401Y-85788966D01*
X36382487Y-86068889D01*
X36353815Y-86360000D01*
X36382487Y-86651111D01*
X36467401Y-86931034D01*
X36605294Y-87189014D01*
X36790866Y-87415134D01*
X37016986Y-87600706D01*
X37071791Y-87630000D01*
X37016986Y-87659294D01*
X36790866Y-87844866D01*
X36605294Y-88070986D01*
X36467401Y-88328966D01*
X36382487Y-88608889D01*
X36353815Y-88900000D01*
X36382487Y-89191111D01*
X36467401Y-89471034D01*
X36605294Y-89729014D01*
X36790866Y-89955134D01*
X37016986Y-90140706D01*
X37274966Y-90278599D01*
X37554889Y-90363513D01*
X37773050Y-90385000D01*
X37918950Y-90385000D01*
X38137111Y-90363513D01*
X38417034Y-90278599D01*
X38675014Y-90140706D01*
X38901134Y-89955134D01*
X39086706Y-89729014D01*
X39224599Y-89471034D01*
X39309513Y-89191111D01*
X39338185Y-88900000D01*
X39309513Y-88608889D01*
X39224599Y-88328966D01*
X39086706Y-88070986D01*
X38901134Y-87844866D01*
X38675014Y-87659294D01*
X38620209Y-87630000D01*
X38675014Y-87600706D01*
X38901134Y-87415134D01*
X39086706Y-87189014D01*
X39224599Y-86931034D01*
X39309513Y-86651111D01*
X39338185Y-86360000D01*
X39309513Y-86068889D01*
X39224599Y-85788966D01*
X39086706Y-85530986D01*
X38901134Y-85304866D01*
X38675014Y-85119294D01*
X38620209Y-85090000D01*
X38675014Y-85060706D01*
X38901134Y-84875134D01*
X39086706Y-84649014D01*
X39224599Y-84391034D01*
X39309513Y-84111111D01*
X39338185Y-83820000D01*
X39309513Y-83528889D01*
X39224599Y-83248966D01*
X39086706Y-82990986D01*
X38901134Y-82764866D01*
X38675014Y-82579294D01*
X38620209Y-82550000D01*
X38675014Y-82520706D01*
X38901134Y-82335134D01*
X39086706Y-82109014D01*
X39224599Y-81851034D01*
X39309513Y-81571111D01*
X39338185Y-81280000D01*
X39309513Y-80988889D01*
X39224599Y-80708966D01*
X39086706Y-80450986D01*
X38901134Y-80224866D01*
X38675014Y-80039294D01*
X38620209Y-80010000D01*
X38675014Y-79980706D01*
X38901134Y-79795134D01*
X39086706Y-79569014D01*
X39224599Y-79311034D01*
X39309513Y-79031111D01*
X39338185Y-78740000D01*
X39309513Y-78448889D01*
X39224599Y-78168966D01*
X39086706Y-77910986D01*
X38901134Y-77684866D01*
X38675014Y-77499294D01*
X38620209Y-77470000D01*
X38675014Y-77440706D01*
X38901134Y-77255134D01*
X39086706Y-77029014D01*
X39224599Y-76771034D01*
X39309513Y-76491111D01*
X39338185Y-76200000D01*
X39309513Y-75908889D01*
X39224599Y-75628966D01*
X39086706Y-75370986D01*
X38901134Y-75144866D01*
X38675014Y-74959294D01*
X38610477Y-74924799D01*
X38727355Y-74855178D01*
X38943588Y-74660269D01*
X39117641Y-74426920D01*
X39242825Y-74164099D01*
X39287476Y-74016890D01*
X39166155Y-73787000D01*
X37973000Y-73787000D01*
X37973000Y-73807000D01*
X37719000Y-73807000D01*
X37719000Y-73787000D01*
X36525845Y-73787000D01*
X36404524Y-74016890D01*
X36449175Y-74164099D01*
X36574359Y-74426920D01*
X36748412Y-74660269D01*
X36964645Y-74855178D01*
X37081523Y-74924799D01*
X37016986Y-74959294D01*
X36790866Y-75144866D01*
X36605294Y-75370986D01*
X36467401Y-75628966D01*
X36382487Y-75908889D01*
X36356235Y-76175433D01*
X35869804Y-75689003D01*
X35846001Y-75659999D01*
X35730276Y-75565026D01*
X35598247Y-75494454D01*
X35454986Y-75450997D01*
X35343333Y-75440000D01*
X35343322Y-75440000D01*
X35306000Y-75436324D01*
X35268678Y-75440000D01*
X34297595Y-75440000D01*
X34260706Y-75370986D01*
X34075134Y-75144866D01*
X33849014Y-74959294D01*
X33784477Y-74924799D01*
X33901355Y-74855178D01*
X34117588Y-74660269D01*
X34291641Y-74426920D01*
X34416825Y-74164099D01*
X34461476Y-74016890D01*
X34340155Y-73787000D01*
X33147000Y-73787000D01*
X33147000Y-73807000D01*
X32893000Y-73807000D01*
X32893000Y-73787000D01*
X31699845Y-73787000D01*
X31578524Y-74016890D01*
X31623175Y-74164099D01*
X31748359Y-74426920D01*
X31922412Y-74660269D01*
X32138645Y-74855178D01*
X32255523Y-74924799D01*
X32190986Y-74959294D01*
X31964866Y-75144866D01*
X31779294Y-75370986D01*
X31641401Y-75628966D01*
X31556487Y-75908889D01*
X31527815Y-76200000D01*
X31165000Y-76200000D01*
X31165000Y-43180000D01*
X31527815Y-43180000D01*
X31556487Y-43471111D01*
X31641401Y-43751034D01*
X31779294Y-44009014D01*
X31964866Y-44235134D01*
X32190986Y-44420706D01*
X32245791Y-44450000D01*
X32190986Y-44479294D01*
X31964866Y-44664866D01*
X31779294Y-44890986D01*
X31641401Y-45148966D01*
X31556487Y-45428889D01*
X31527815Y-45720000D01*
X31556487Y-46011111D01*
X31641401Y-46291034D01*
X31779294Y-46549014D01*
X31964866Y-46775134D01*
X32190986Y-46960706D01*
X32245791Y-46990000D01*
X32190986Y-47019294D01*
X31964866Y-47204866D01*
X31779294Y-47430986D01*
X31641401Y-47688966D01*
X31556487Y-47968889D01*
X31527815Y-48260000D01*
X31556487Y-48551111D01*
X31641401Y-48831034D01*
X31779294Y-49089014D01*
X31964866Y-49315134D01*
X32190986Y-49500706D01*
X32245791Y-49530000D01*
X32190986Y-49559294D01*
X31964866Y-49744866D01*
X31779294Y-49970986D01*
X31641401Y-50228966D01*
X31556487Y-50508889D01*
X31527815Y-50800000D01*
X31556487Y-51091111D01*
X31641401Y-51371034D01*
X31779294Y-51629014D01*
X31964866Y-51855134D01*
X32190986Y-52040706D01*
X32245791Y-52070000D01*
X32190986Y-52099294D01*
X31964866Y-52284866D01*
X31779294Y-52510986D01*
X31641401Y-52768966D01*
X31556487Y-53048889D01*
X31527815Y-53340000D01*
X31556487Y-53631111D01*
X31641401Y-53911034D01*
X31779294Y-54169014D01*
X31964866Y-54395134D01*
X32190986Y-54580706D01*
X32245791Y-54610000D01*
X32190986Y-54639294D01*
X31964866Y-54824866D01*
X31779294Y-55050986D01*
X31641401Y-55308966D01*
X31556487Y-55588889D01*
X31527815Y-55880000D01*
X31556487Y-56171111D01*
X31641401Y-56451034D01*
X31779294Y-56709014D01*
X31964866Y-56935134D01*
X32190986Y-57120706D01*
X32245791Y-57150000D01*
X32190986Y-57179294D01*
X31964866Y-57364866D01*
X31779294Y-57590986D01*
X31641401Y-57848966D01*
X31556487Y-58128889D01*
X31527815Y-58420000D01*
X31556487Y-58711111D01*
X31641401Y-58991034D01*
X31779294Y-59249014D01*
X31964866Y-59475134D01*
X32190986Y-59660706D01*
X32245791Y-59690000D01*
X32190986Y-59719294D01*
X31964866Y-59904866D01*
X31779294Y-60130986D01*
X31641401Y-60388966D01*
X31556487Y-60668889D01*
X31527815Y-60960000D01*
X31556487Y-61251111D01*
X31641401Y-61531034D01*
X31779294Y-61789014D01*
X31964866Y-62015134D01*
X32190986Y-62200706D01*
X32245791Y-62230000D01*
X32190986Y-62259294D01*
X31964866Y-62444866D01*
X31779294Y-62670986D01*
X31641401Y-62928966D01*
X31556487Y-63208889D01*
X31527815Y-63500000D01*
X31556487Y-63791111D01*
X31641401Y-64071034D01*
X31779294Y-64329014D01*
X31964866Y-64555134D01*
X32190986Y-64740706D01*
X32245791Y-64770000D01*
X32190986Y-64799294D01*
X31964866Y-64984866D01*
X31779294Y-65210986D01*
X31641401Y-65468966D01*
X31556487Y-65748889D01*
X31527815Y-66040000D01*
X31556487Y-66331111D01*
X31641401Y-66611034D01*
X31779294Y-66869014D01*
X31964866Y-67095134D01*
X32190986Y-67280706D01*
X32245791Y-67310000D01*
X32190986Y-67339294D01*
X31964866Y-67524866D01*
X31779294Y-67750986D01*
X31641401Y-68008966D01*
X31556487Y-68288889D01*
X31527815Y-68580000D01*
X31556487Y-68871111D01*
X31641401Y-69151034D01*
X31779294Y-69409014D01*
X31964866Y-69635134D01*
X32190986Y-69820706D01*
X32245791Y-69850000D01*
X32190986Y-69879294D01*
X31964866Y-70064866D01*
X31779294Y-70290986D01*
X31641401Y-70548966D01*
X31556487Y-70828889D01*
X31527815Y-71120000D01*
X31556487Y-71411111D01*
X31641401Y-71691034D01*
X31779294Y-71949014D01*
X31964866Y-72175134D01*
X32190986Y-72360706D01*
X32255523Y-72395201D01*
X32138645Y-72464822D01*
X31922412Y-72659731D01*
X31748359Y-72893080D01*
X31623175Y-73155901D01*
X31578524Y-73303110D01*
X31699845Y-73533000D01*
X32893000Y-73533000D01*
X32893000Y-73513000D01*
X33147000Y-73513000D01*
X33147000Y-73533000D01*
X34340155Y-73533000D01*
X34461476Y-73303110D01*
X34416825Y-73155901D01*
X34291641Y-72893080D01*
X34117588Y-72659731D01*
X33901355Y-72464822D01*
X33784477Y-72395201D01*
X33849014Y-72360706D01*
X34075134Y-72175134D01*
X34260706Y-71949014D01*
X34398599Y-71691034D01*
X34483513Y-71411111D01*
X34512185Y-71120000D01*
X34483513Y-70828889D01*
X34398599Y-70548966D01*
X34260706Y-70290986D01*
X34243484Y-70270000D01*
X36357928Y-70270000D01*
X36357928Y-71970000D01*
X36370188Y-72094482D01*
X36406498Y-72214180D01*
X36465463Y-72324494D01*
X36544815Y-72421185D01*
X36641506Y-72500537D01*
X36751820Y-72559502D01*
X36832466Y-72583966D01*
X36748412Y-72659731D01*
X36574359Y-72893080D01*
X36449175Y-73155901D01*
X36404524Y-73303110D01*
X36525845Y-73533000D01*
X37719000Y-73533000D01*
X37719000Y-73513000D01*
X37973000Y-73513000D01*
X37973000Y-73533000D01*
X39166155Y-73533000D01*
X39287476Y-73303110D01*
X39242825Y-73155901D01*
X39117641Y-72893080D01*
X38943588Y-72659731D01*
X38859534Y-72583966D01*
X38940180Y-72559502D01*
X39050494Y-72500537D01*
X39147185Y-72421185D01*
X39226537Y-72324494D01*
X39285502Y-72214180D01*
X39321812Y-72094482D01*
X39334072Y-71970000D01*
X39334072Y-70270000D01*
X39321812Y-70145518D01*
X39285502Y-70025820D01*
X39226537Y-69915506D01*
X39147185Y-69818815D01*
X39050494Y-69739463D01*
X38940180Y-69680498D01*
X38820482Y-69644188D01*
X38696000Y-69631928D01*
X36996000Y-69631928D01*
X36871518Y-69644188D01*
X36751820Y-69680498D01*
X36641506Y-69739463D01*
X36544815Y-69818815D01*
X36465463Y-69915506D01*
X36406498Y-70025820D01*
X36370188Y-70145518D01*
X36357928Y-70270000D01*
X34243484Y-70270000D01*
X34075134Y-70064866D01*
X33849014Y-69879294D01*
X33794209Y-69850000D01*
X33849014Y-69820706D01*
X34075134Y-69635134D01*
X34260706Y-69409014D01*
X34398599Y-69151034D01*
X34483513Y-68871111D01*
X34512185Y-68580000D01*
X34483513Y-68288889D01*
X34398599Y-68008966D01*
X34260706Y-67750986D01*
X34075134Y-67524866D01*
X33849014Y-67339294D01*
X33794209Y-67310000D01*
X33849014Y-67280706D01*
X34075134Y-67095134D01*
X34260706Y-66869014D01*
X34398599Y-66611034D01*
X34483513Y-66331111D01*
X34512185Y-66040000D01*
X34483513Y-65748889D01*
X34398599Y-65468966D01*
X34260706Y-65210986D01*
X34075134Y-64984866D01*
X33849014Y-64799294D01*
X33794209Y-64770000D01*
X33849014Y-64740706D01*
X34075134Y-64555134D01*
X34260706Y-64329014D01*
X34398599Y-64071034D01*
X34483513Y-63791111D01*
X34512185Y-63500000D01*
X34483513Y-63208889D01*
X34398599Y-62928966D01*
X34260706Y-62670986D01*
X34075134Y-62444866D01*
X33849014Y-62259294D01*
X33794209Y-62230000D01*
X33849014Y-62200706D01*
X34075134Y-62015134D01*
X34260706Y-61789014D01*
X34398599Y-61531034D01*
X34483513Y-61251111D01*
X34512185Y-60960000D01*
X34483513Y-60668889D01*
X34398599Y-60388966D01*
X34260706Y-60130986D01*
X34075134Y-59904866D01*
X33849014Y-59719294D01*
X33794209Y-59690000D01*
X33849014Y-59660706D01*
X34075134Y-59475134D01*
X34260706Y-59249014D01*
X34398599Y-58991034D01*
X34483513Y-58711111D01*
X34512185Y-58420000D01*
X34483513Y-58128889D01*
X34398599Y-57848966D01*
X34260706Y-57590986D01*
X34075134Y-57364866D01*
X33849014Y-57179294D01*
X33794209Y-57150000D01*
X33849014Y-57120706D01*
X34075134Y-56935134D01*
X34260706Y-56709014D01*
X34398599Y-56451034D01*
X34483513Y-56171111D01*
X34512185Y-55880000D01*
X34483513Y-55588889D01*
X34398599Y-55308966D01*
X34260706Y-55050986D01*
X34075134Y-54824866D01*
X33849014Y-54639294D01*
X33794209Y-54610000D01*
X33849014Y-54580706D01*
X34075134Y-54395134D01*
X34260706Y-54169014D01*
X34398599Y-53911034D01*
X34483513Y-53631111D01*
X34512185Y-53340000D01*
X34483513Y-53048889D01*
X34398599Y-52768966D01*
X34260706Y-52510986D01*
X34075134Y-52284866D01*
X33849014Y-52099294D01*
X33794209Y-52070000D01*
X33849014Y-52040706D01*
X34075134Y-51855134D01*
X34260706Y-51629014D01*
X34398599Y-51371034D01*
X34483513Y-51091111D01*
X34512185Y-50800000D01*
X34483513Y-50508889D01*
X34398599Y-50228966D01*
X34260706Y-49970986D01*
X34075134Y-49744866D01*
X33849014Y-49559294D01*
X33794209Y-49530000D01*
X33849014Y-49500706D01*
X34075134Y-49315134D01*
X34260706Y-49089014D01*
X34398599Y-48831034D01*
X34483513Y-48551111D01*
X34512185Y-48260000D01*
X34483513Y-47968889D01*
X34398599Y-47688966D01*
X34260706Y-47430986D01*
X34075134Y-47204866D01*
X33849014Y-47019294D01*
X33794209Y-46990000D01*
X33849014Y-46960706D01*
X34075134Y-46775134D01*
X34260706Y-46549014D01*
X34398599Y-46291034D01*
X34483513Y-46011111D01*
X34512185Y-45720000D01*
X34483513Y-45428889D01*
X34398599Y-45148966D01*
X34260706Y-44890986D01*
X34075134Y-44664866D01*
X33849014Y-44479294D01*
X33794209Y-44450000D01*
X33849014Y-44420706D01*
X34075134Y-44235134D01*
X34260706Y-44009014D01*
X34398599Y-43751034D01*
X34483513Y-43471111D01*
X34512185Y-43180000D01*
X34483513Y-42888889D01*
X34398599Y-42608966D01*
X34260706Y-42350986D01*
X34075134Y-42124866D01*
X33849014Y-41939294D01*
X33591034Y-41801401D01*
X33311111Y-41716487D01*
X33092950Y-41695000D01*
X32947050Y-41695000D01*
X32728889Y-41716487D01*
X32448966Y-41801401D01*
X32190986Y-41939294D01*
X31964866Y-42124866D01*
X31779294Y-42350986D01*
X31641401Y-42608966D01*
X31556487Y-42888889D01*
X31527815Y-43180000D01*
X31165000Y-43180000D01*
X31165000Y-41325000D01*
X60275000Y-41325000D01*
X60275001Y-98375000D01*
M02*
