M48
; DRILL file {KiCad (5.1.4)-1} date 28/11/2019 20:23:44
; FORMAT={-:-/ absolute / inch / decimal}
; #@! TF.CreationDate,2019-11-28T20:23:44+01:00
; #@! TF.GenerationSoftware,Kicad,Pcbnew,(5.1.4)-1
FMAT,2
INCH
T1C0.0157
T2C0.0394
%
G90
G05
T1
X1.75Y-3.38
T2
X1.3Y-1.7
X1.3Y-1.8
X1.3Y-1.9
X1.3Y-2.0
X1.3Y-2.1
X1.3Y-2.2
X1.3Y-2.3
X1.3Y-2.4
X1.3Y-2.5
X1.3Y-2.6
X1.3Y-2.7
X1.3Y-2.8
X1.3Y-2.9
X1.3Y-3.0
X1.3Y-3.1
X1.3Y-3.2
X1.3Y-3.3
X1.3Y-3.4
X1.3Y-3.5
X2.1Y-3.8
X2.2Y-3.8
X2.3Y-3.8
X1.49Y-2.8
X1.49Y-2.9
X1.49Y-3.0
X1.49Y-3.1
X1.49Y-3.2
X1.49Y-3.3
X1.49Y-3.4
X1.49Y-3.5
X1.3Y-3.8
X1.4Y-3.8
X1.5Y-3.8
X1.7Y-3.8
X1.8Y-3.8
X2.3Y-1.7
X2.3Y-1.8
X2.3Y-1.9
X2.3Y-2.0
X2.3Y-2.1
X2.3Y-2.2
X2.3Y-2.3
X2.3Y-2.4
X2.3Y-2.5
X2.3Y-2.6
X2.3Y-2.7
X2.3Y-2.8
X2.3Y-2.9
X2.3Y-3.0
X2.3Y-3.1
X2.3Y-3.2
X2.3Y-3.3
X2.3Y-3.4
X2.3Y-3.5
T0
M30
