999
DXF created by Inkscape
  0
SECTION
  2
HEADER
  9
$ACADVER
  1
AC1014
  9
$HANDSEED
  5
FFFF
  9
$MEASUREMENT
 70
     1
  0
ENDSEC
  0
SECTION
  2
TABLES
  0
TABLE
  2
VPORT
  5
8
330
0
100
AcDbSymbolTable
 70
     4
  0
VPORT
  5
2E
330
8
100
AcDbSymbolTableRecord
100
AcDbViewportTableRecord
  2
*ACTIVE
 70
     0
 10
0.0
 20
0.0
 11
1.0
 21
1.0
 12
210.0
 22
148.5
 13
0.0
 23
0.0
 14
10.0
 24
10.0
 15
10.0
 25
10.0
 16
0.0
 26
0.0
 36
1.0
 17
0.0
 27
0.0
 37
0.0
 40
341.0
 41
1.24
 42
50.0
 43
0.0
 44
0.0
 50
0.0
 51
0.0
 71
     0
 72
   100
 73
     1
 74
     3
 75
     0
 76
     0
 77
     0
 78
     0
  0
ENDTAB
  0
TABLE
  2
LTYPE
  5
5
330
0
100
AcDbSymbolTable
 70
     1
  0
LTYPE
  5
14
330
5
100
AcDbSymbolTableRecord
100
AcDbLinetypeTableRecord
  2
BYBLOCK
 70
     0
  3

 72
    65
 73
     0
 40
0.0
  0
LTYPE
  5
15
330
5
100
AcDbSymbolTableRecord
100
AcDbLinetypeTableRecord
  2
BYLAYER
 70
     0
  3

 72
    65
 73
     0
 40
0.0
  0
LTYPE
  5
16
330
5
100
AcDbSymbolTableRecord
100
AcDbLinetypeTableRecord
  2
CONTINUOUS
 70
     0
  3
Solid line
 72
    65
 73
     0
 40
0.0
  0
ENDTAB
  0
TABLE
  2
LAYER
  5
2
100
AcDbSymbolTable
 70
2
  0
LAYER
  5
50
100
AcDbSymbolTableRecord
100
AcDbLayerTableRecord
  2
0
 70
0
  6
CONTINUOUS
  0
LAYER
  5
51
100
AcDbSymbolTableRecord
100
AcDbLayerTableRecord
  2
Calque_1
 70
0
  6
CONTINUOUS
  0
ENDTAB
  0
TABLE
  2
STYLE
  5
3
330
0
100
AcDbSymbolTable
 70
     1
  0
STYLE
  5
11
330
3
100
AcDbSymbolTableRecord
100
AcDbTextStyleTableRecord
  2
STANDARD
 70
     0
 40
0.0
 41
1.0
 50
0.0
 71
     0
 42
2.5
  3
txt
  4

  0
ENDTAB
  0
TABLE
  2
VIEW
  5
6
330
0
100
AcDbSymbolTable
 70
     0
  0
ENDTAB
  0
TABLE
  2
UCS
  5
7
330
0
100
AcDbSymbolTable
 70
     0
  0
ENDTAB
  0
TABLE
  2
APPID
  5
9
330
0
100
AcDbSymbolTable
 70
     2
  0
APPID
  5
12
330
9
100
AcDbSymbolTableRecord
100
AcDbRegAppTableRecord
  2
ACAD
 70
     0
  0
ENDTAB
  0
TABLE
  2
DIMSTYLE
  5
A
330
0
100
AcDbSymbolTable
 70
     1
  0
DIMSTYLE
105
27
330
A
100
AcDbSymbolTableRecord
100
AcDbDimStyleTableRecord
  2
ISO-25
 70
     0
  3

  4

  5

  6

  7

 40
1.0
 41
2.5
 42
0.625
 43
3.75
 44
1.25
 45
0.0
 46
0.0
 47
0.0
 48
0.0
140
2.5
141
2.5
142
0.0
143
0.03937007874016
144
1.0
145
0.0
146
1.0
147
0.625
 71
     0
 72
     0
 73
     0
 74
     0
 75
     0
 76
     0
 77
     1
 78
     8
170
     0
171
     3
172
     1
173
     0
174
     0
175
     0
176
     0
177
     0
178
     0
270
     2
271
     2
272
     2
273
     2
274
     3
340
11
275
     0
280
     0
281
     0
282
     0
283
     0
284
     8
285
     0
286
     0
287
     3
288
     0
  0
ENDTAB
  0
TABLE
  2
BLOCK_RECORD
  5
1
330
0
100
AcDbSymbolTable
 70
     1
  0
BLOCK_RECORD
  5
1F
330
1
100
AcDbSymbolTableRecord
100
AcDbBlockTableRecord
  2
*MODEL_SPACE
  0
BLOCK_RECORD
  5
1B
330
1
100
AcDbSymbolTableRecord
100
AcDbBlockTableRecord
  2
*PAPER_SPACE
  0
ENDTAB
  0
ENDSEC
  0
SECTION
  2
BLOCKS
  0
BLOCK
  5
20
330
1F
100
AcDbEntity
  8
0
100
AcDbBlockBegin
  2
*MODEL_SPACE
 70
     0
 10
0.0
 20
0.0
 30
0.0
  3
*MODEL_SPACE
  1

  0
ENDBLK
  5
21
330
1F
100
AcDbEntity
  8
0
100
AcDbBlockEnd
  0
BLOCK
  5
1C
330
1B
100
AcDbEntity
 67
     1
  8
0
100
AcDbBlockBegin
  2
*PAPER_SPACE
  1

  0
ENDBLK
  5
1D
330
1B
100
AcDbEntity
 67
     1
  8
0
100
AcDbBlockEnd
  0
ENDSEC
  0
SECTION
  2
ENTITIES
  0
LINE
  5
100
100
AcDbEntity
  8
Calque_1
 62
7
100
AcDbLine
 10
103.691334
 20
263.280074
 30
0.0
 11
100.355002
 21
264.973407
 31
0.0
  0
LINE
  5
101
100
AcDbEntity
  8
Calque_1
 62
7
100
AcDbLine
 10
100.355002
 20
264.973407
 30
0.0
 11
97.301222
 21
264.899135
 31
0.0
  0
SPLINE
  5
102
100
AcDbEntity
  8
Calque_1
 62
7
100
AcDbSpline
 70
0
 71
3
 72
25
 73
21
 74
19
 40
0.000000
 40
0.000000
 40
0.000000
 40
0.000000
 40
0.308371
 40
0.798851
 40
1.368610
 40
3.471459
 40
6.009495
 40
8.934777
 40
13.351615
 40
20.368006
 40
28.343901
 40
31.528536
 40
33.635654
 40
35.248656
 40
36.620829
 40
37.922220
 40
39.559214
 40
40.781979
 40
42.353704
 40
44.761544
 40
44.761544
 40
44.761544
 40
44.761544
 10
79.194532
 20
243.244446
 30
0.0
 10
79.152259
 20
243.338322
 30
0.0
 10
79.042747
 20
243.581511
 30
0.0
 10
78.932169
 20
244.025601
 30
0.0
 10
78.673299
 20
245.049327
 30
0.0
 10
78.976091
 20
246.862703
 30
0.0
 10
80.470530
 20
248.944526
 30
0.0
 10
83.075909
 20
251.063319
 30
0.0
 10
87.805724
 20
252.255243
 30
0.0
 10
94.108916
 20
253.536358
 30
0.0
 10
100.153041
 20
254.223737
 30
0.0
 10
104.543868
 20
254.641074
 30
0.0
 10
106.810923
 20
255.229418
 30
0.0
 10
108.183883
 20
256.287661
 30
0.0
 10
108.943599
 20
257.575073
 30
0.0
 10
108.813894
 20
259.082839
 30
0.0
 10
108.070387
 20
260.286487
 30
0.0
 10
107.060388
 20
261.374672
 30
0.0
 10
105.582958
 20
262.308324
 30
0.0
 10
104.404413
 20
262.913756
 30
0.0
 10
103.691334
 20
263.280074
 30
0.0
 11
79.194532
 21
243.244446
 31
0.0
 11
79.074412
 21
243.528461
 31
0.0
 11
78.938337
 21
243.999686
 31
0.0
 11
78.815768
 21
244.556105
 31
0.0
 11
79.083632
 21
246.641824
 31
0.0
 11
80.472076
 21
248.766407
 31
0.0
 11
82.759174
 21
250.590265
 31
0.0
 11
86.941467
 21
252.010433
 31
0.0
 11
93.822802
 21
253.380459
 31
0.0
 11
101.737241
 21
254.368667
 31
0.0
 11
104.895461
 21
254.777989
 31
0.0
 11
106.903079
 21
255.417848
 31
0.0
 11
108.168296
 21
256.418348
 31
0.0
 11
108.810137
 21
257.631155
 31
0.0
 11
108.738349
 21
258.930564
 31
0.0
 11
107.950237
 21
260.365356
 31
0.0
 11
107.109916
 21
261.253622
 31
0.0
 11
105.812864
 21
262.141301
 31
0.0
 11
103.691334
 21
263.280074
 31
0.0
  0
LINE
  5
103
100
AcDbEntity
  8
Calque_1
 62
7
100
AcDbLine
 10
100.251474
 20
269.771185
 30
0.0
 11
100.265021
 21
267.231185
 31
0.0
  0
LINE
  5
104
100
AcDbEntity
  8
Calque_1
 62
7
100
AcDbLine
 10
100.265021
 20
267.231185
 30
0.0
 11
102.808269
 21
265.961185
 31
0.0
  0
SPLINE
  5
105
100
AcDbEntity
  8
Calque_1
 62
7
100
AcDbSpline
 70
0
 71
3
 72
115
 73
111
 74
109
 40
0.000000
 40
0.000000
 40
0.000000
 40
0.000000
 40
1.781117
 40
3.081397
 40
3.903290
 40
4.428591
 40
4.942310
 40
5.341007
 40
5.683463
 40
6.045676
 40
6.357612
 40
6.695059
 40
7.128856
 40
7.668145
 40
9.737107
 40
12.521651
 40
14.349068
 40
15.646218
 40
17.311801
 40
18.347646
 40
19.046963
 40
19.947215
 40
20.738226
 40
21.232770
 40
21.908207
 40
22.619223
 40
23.252955
 40
23.732555
 40
23.979428
 40
24.332288
 40
25.082508
 40
26.082612
 40
27.445929
 40
28.613865
 40
30.035909
 40
32.335136
 40
34.016109
 40
35.639409
 40
37.196509
 40
38.356115
 40
40.087303
 40
41.145915
 40
41.960902
 40
42.355867
 40
42.559468
 40
42.923482
 40
43.384055
 40
44.252942
 40
44.978010
 40
46.103449
 40
47.477051
 40
48.282893
 40
49.425235
 40
50.110156
 40
51.090941
 40
52.161180
 40
53.538110
 40
54.541677
 40
55.982175
 40
57.243732
 40
58.628213
 40
59.836478
 40
64.274708
 40
66.245037
 40
67.773027
 40
68.758362
 40
69.571896
 40
70.040286
 40
70.638433
 40
71.571716
 40
73.430885
 40
77.326843
 40
81.212556
 40
84.709991
 40
85.665784
 40
86.541188
 40
87.410368
 40
90.055741
 40
91.856506
 40
92.997411
 40
93.667822
 40
94.154686
 40
94.857064
 40
95.408895
 40
95.880555
 40
96.178839
 40
96.455125
 40
96.874702
 40
97.359365
 40
98.015320
 40
98.632052
 40
99.796830
 40
101.185052
 40
103.231462
 40
105.499133
 40
108.341194
 40
110.046231
 40
111.774011
 40
115.698884
 40
119.875934
 40
123.729900
 40
124.551349
 40
125.342180
 40
125.931370
 40
127.789495
 40
130.349767
 40
132.165539
 40
135.160267
 40
139.211537
 40
144.019149
 40
144.019149
 40
144.019149
 40
144.019149
 10
97.301222
 20
264.899135
 30
0.0
 10
96.708153
 20
264.876615
 30
0.0
 10
95.682124
 20
264.837656
 30
0.0
 10
94.383426
 20
264.710693
 30
0.0
 10
93.529851
 20
264.462771
 30
0.0
 10
92.974430
 20
264.184544
 30
0.0
 10
92.514665
 20
264.039176
 30
0.0
 10
92.099512
 20
263.980920
 30
0.0
 10
91.732804
 20
263.954071
 30
0.0
 10
91.400551
 20
263.868437
 30
0.0
 10
91.104467
 20
263.707145
 30
0.0
 10
90.756577
 20
263.587610
 30
0.0
 10
90.310536
 20
263.643243
 30
0.0
 10
89.365017
 20
264.009065
 30
0.0
 10
87.553487
 20
264.191668
 30
0.0
 10
85.327723
 20
264.303052
 30
0.0
 10
83.372711
 20
264.074166
 30
0.0
 10
81.802259
 20
263.607606
 30
0.0
 10
80.569590
 20
263.684704
 30
0.0
 10
79.170105
 20
263.617147
 30
0.0
 10
79.036599
 20
264.649776
 30
0.0
 10
79.291283
 20
265.389286
 30
0.0
 10
79.796070
 20
265.984608
 30
0.0
 10
80.439265
 20
266.153035
 30
0.0
 10
81.031665
 20
266.353081
 30
0.0
 10
81.682528
 20
266.511991
 30
0.0
 10
82.277502
 20
266.698206
 30
0.0
 10
82.665706
 20
266.853065
 30
0.0
 10
83.014186
 20
267.143581
 30
0.0
 10
82.498779
 20
267.478810
 30
0.0
 10
81.996693
 20
267.812255
 30
0.0
 10
81.026784
 20
268.295623
 30
0.0
 10
79.964651
 20
268.772791
 30
0.0
 10
78.662436
 20
269.054472
 30
0.0
 10
77.030524
 20
269.079459
 30
0.0
 10
75.226531
 20
269.011931
 30
0.0
 10
73.419535
 20
268.239734
 30
0.0
 10
72.569364
 20
266.794235
 30
0.0
 10
72.132018
 20
265.373750
 30
0.0
 10
70.827724
 20
264.489564
 30
0.0
 10
69.491409
 20
264.420118
 30
0.0
 10
68.297526
 20
264.246080
 30
0.0
 10
67.555641
 20
264.230225
 30
0.0
 10
67.069092
 20
264.081552
 30
0.0
 10
66.783373
 20
264.259356
 30
0.0
 10
66.566312
 20
264.526804
 30
0.0
 10
66.246876
 20
264.977741
 30
0.0
 10
65.914972
 20
265.684362
 30
0.0
 10
66.550242
 20
266.504421
 30
0.0
 10
67.612507
 20
266.698759
 30
0.0
 10
68.797916
 20
266.930537
 30
0.0
 10
69.194334
 20
268.278177
 30
0.0
 10
68.103344
 20
268.589940
 30
0.0
 10
67.262853
 20
268.876132
 30
0.0
 10
66.428909
 20
269.287755
 30
0.0
 10
65.433521
 20
269.833173
 30
0.0
 10
64.465790
 20
270.481300
 30
0.0
 10
63.197891
 20
270.761949
 30
0.0
 10
61.960654
 20
270.629343
 30
0.0
 10
60.605141
 20
270.519495
 30
0.0
 10
59.328079
 20
270.374428
 30
0.0
 10
57.003799
 20
270.057374
 30
0.0
 10
54.522665
 20
269.653994
 30
0.0
 10
51.841163
 20
269.321505
 30
0.0
 10
50.411219
 20
269.844046
 30
0.0
 10
49.359466
 20
270.165052
 30
0.0
 10
48.625181
 20
270.397464
 30
0.0
 10
48.023433
 20
270.456567
 30
0.0
 10
47.276348
 20
270.755213
 30
0.0
 10
47.846706
 20
272.083986
 30
0.0
 10
48.768042
 20
273.875411
 30
0.0
 10
50.783024
 20
276.564397
 30
0.0
 10
53.536150
 20
279.112811
 30
0.0
 10
55.991847
 20
280.472866
 30
0.0
 10
57.626608
 20
281.174491
 30
0.0
 10
58.354729
 20
281.724366
 30
0.0
 10
59.263395
 20
282.879136
 30
0.0
 10
60.240896
 20
284.350435
 30
0.0
 10
61.437169
 20
285.798222
 30
0.0
 10
62.413308
 20
286.514496
 30
0.0
 10
63.142301
 20
286.809529
 30
0.0
 10
63.785134
 20
286.724122
 30
0.0
 10
64.240860
 20
286.339174
 30
0.0
 10
64.720355
 20
286.029114
 30
0.0
 10
65.104757
 20
285.802814
 30
0.0
 10
65.444608
 20
285.719937
 30
0.0
 10
65.766030
 20
285.631858
 30
0.0
 10
66.095386
 20
285.404004
 30
0.0
 10
66.493245
 20
285.080879
 30
0.0
 10
66.921451
 20
284.631821
 30
0.0
 10
67.782364
 20
284.627517
 30
0.0
 10
68.796243
 20
284.880131
 30
0.0
 10
70.253790
 20
285.377867
 30
0.0
 10
71.996707
 20
286.133723
 30
0.0
 10
74.153230
 20
287.156862
 30
0.0
 10
76.157894
 20
288.222232
 30
0.0
 10
78.140137
 20
288.943797
 30
0.0
 10
80.602505
 20
289.125904
 30
0.0
 10
83.884228
 20
288.947553
 30
0.0
 10
87.789893
 20
288.058864
 30
0.0
 10
90.534189
 20
286.925180
 30
0.0
 10
92.118985
 20
286.025744
 30
0.0
 10
92.763315
 20
285.674589
 30
0.0
 10
93.737354
 20
285.206239
 30
0.0
 10
95.064408
 20
284.168354
 30
0.0
 10
96.621065
 20
282.814744
 30
0.0
 10
98.440121
 20
281.106024
 30
0.0
 10
99.371489
 20
278.200797
 30
0.0
 10
100.105679
 20
274.339651
 30
0.0
 10
100.200186
 20
271.378284
 30
0.0
 10
100.251474
 20
269.771185
 30
0.0
 11
97.301222
 21
264.899135
 31
0.0
 11
95.522281
 21
264.811106
 31
0.0
 11
94.232470
 21
264.646440
 31
0.0
 11
93.446233
 21
264.406984
 31
0.0
 11
92.965311
 21
264.195667
 31
0.0
 11
92.474687
 21
264.043364
 31
0.0
 11
92.080579
 21
263.983047
 31
0.0
 11
91.740291
 21
263.944583
 31
0.0
 11
91.390763
 21
263.849565
 31
0.0
 11
91.107666
 21
263.718568
 31
0.0
 11
90.784691
 21
263.620804
 31
0.0
 11
90.352151
 21
263.653811
 31
0.0
 11
89.837666
 21
263.815480
 31
0.0
 11
87.796301
 21
264.152279
 31
0.0
 11
85.012730
 21
264.225860
 31
0.0
 11
83.200477
 21
263.990927
 31
0.0
 11
81.934166
 21
263.709757
 31
0.0
 11
80.269430
 21
263.656645
 31
0.0
 11
79.254764
 21
263.865041
 31
0.0
 11
79.094838
 21
264.545825
 31
0.0
 11
79.362535
 21
265.405356
 31
0.0
 11
79.911775
 21
265.974596
 31
0.0
 11
80.377204
 21
266.141776
 31
0.0
 11
81.022842
 21
266.340186
 31
0.0
 11
81.708912
 21
266.526871
 31
0.0
 11
82.313077
 21
266.718187
 31
0.0
 11
82.743988
 21
266.928736
 31
0.0
 11
82.908357
 21
267.112936
 31
0.0
 11
82.666639
 21
267.370001
 31
0.0
 11
82.032945
 21
267.771576
 31
0.0
 11
81.144468
 21
268.230723
 31
0.0
 11
79.884865
 21
268.752293
 31
0.0
 11
78.743833
 21
269.001531
 31
0.0
 11
77.323224
 21
269.065406
 31
0.0
 11
75.035293
 21
268.837773
 31
0.0
 11
73.527153
 21
268.095357
 31
0.0
 11
72.619192
 21
266.749731
 31
0.0
 11
71.920192
 21
265.358343
 31
0.0
 11
70.974346
 21
264.687477
 31
0.0
 11
69.271534
 21
264.375316
 31
0.0
 11
68.219330
 21
264.259015
 31
0.0
 11
67.408854
 21
264.173390
 31
0.0
 11
67.015571
 21
264.136977
 31
0.0
 11
66.837248
 21
264.235231
 31
0.0
 11
66.590309
 21
264.502678
 31
0.0
 11
66.328216
 21
264.881405
 31
0.0
 11
66.078901
 21
265.713756
 31
0.0
 11
66.483948
 21
266.315137
 31
0.0
 11
67.545548
 21
266.688796
 31
0.0
 11
68.794357
 21
267.260860
 31
0.0
 11
68.976289
 21
268.045897
 31
0.0
 11
67.995960
 21
268.632328
 31
0.0
 11
67.349862
 21
268.859646
 31
0.0
 11
66.462946
 21
269.278358
 31
0.0
 11
65.527224
 21
269.797815
 31
0.0
 11
64.320160
 21
270.460334
 31
0.0
 11
63.342028
 21
270.684844
 31
0.0
 11
61.902582
 21
270.629778
 31
0.0
 11
60.646137
 21
270.516329
 31
0.0
 11
59.270253
 21
270.362284
 31
0.0
 11
58.072801
 21
270.200992
 31
0.0
 11
53.681497
 21
269.557309
 31
0.0
 11
51.712733
 21
269.478796
 31
0.0
 11
50.240739
 21
269.888660
 31
0.0
 11
49.300984
 21
270.184878
 31
0.0
 11
48.515362
 21
270.396151
 31
0.0
 11
48.053958
 21
270.476740
 31
0.0
 11
47.528123
 21
270.761834
 31
0.0
 11
47.681453
 21
271.682436
 31
0.0
 11
48.530267
 21
273.336529
 31
0.0
 11
50.853602
 21
276.463925
 31
0.0
 11
53.733984
 21
279.072021
 31
0.0
 11
56.774116
 21
280.801079
 31
0.0
 11
57.632737
 21
281.220974
 31
0.0
 11
58.328887
 21
281.751734
 31
0.0
 11
58.890783
 21
282.414868
 31
0.0
 11
60.443775
 21
284.556413
 31
0.0
 11
61.640328
 21
285.902154
 31
0.0
 11
62.574203
 21
286.557546
 31
0.0
 11
63.211580
 21
286.765398
 31
0.0
 11
63.693910
 21
286.699105
 31
0.0
 11
64.286590
 21
286.322190
 31
0.0
 11
64.746495
 21
286.017223
 31
0.0
 11
65.165006
 21
285.799710
 31
0.0
 11
65.451518
 21
285.716741
 31
0.0
 11
65.714840
 21
285.633100
 31
0.0
 11
66.072558
 21
285.413823
 31
0.0
 11
66.447229
 21
285.106382
 31
0.0
 11
66.968041
 21
284.707593
 31
0.0
 11
67.581677
 21
284.645877
 31
0.0
 11
68.723196
 21
284.877480
 31
0.0
 11
70.038900
 21
285.320294
 31
0.0
 11
71.924905
 21
286.114510
 31
0.0
 11
73.972902
 21
287.088183
 31
0.0
 11
76.530979
 21
288.326551
 31
0.0
 11
78.148843
 21
288.864758
 31
0.0
 11
79.866786
 21
289.048871
 31
0.0
 11
83.786376
 21
288.845298
 31
0.0
 11
87.859221
 21
287.918110
 31
0.0
 11
91.410490
 21
286.420934
 31
0.0
 11
92.129016
 21
286.022813
 31
0.0
 11
92.826011
 21
285.649166
 31
0.0
 11
93.350579
 21
285.380889
 31
0.0
 11
94.866369
 21
284.306174
 31
0.0
 11
96.802614
 21
282.631079
 31
0.0
 11
98.052048
 21
281.313527
 31
0.0
 11
99.205509
 21
278.549848
 31
0.0
 11
99.963845
 21
274.570185
 31
0.0
 11
100.251474
 21
269.771185
 31
0.0
  0
LINE
  5
106
100
AcDbEntity
  8
Calque_1
 62
7
100
AcDbLine
 10
79.194530
 20
243.244446
 30
0.0
 11
79.194532
 21
243.244446
 31
0.0
  0
LINE
  5
107
100
AcDbEntity
  8
Calque_1
 62
7
100
AcDbLine
 10
53.416140
 20
270.103806
 30
0.0
 11
54.020903
 21
266.626425
 31
0.0
  0
LINE
  5
108
100
AcDbEntity
  8
Calque_1
 62
7
100
AcDbLine
 10
54.928044
 20
269.751028
 30
0.0
 11
57.397489
 21
267.331980
 31
0.0
  0
LINE
  5
109
100
AcDbEntity
  8
Calque_1
 62
7
100
AcDbLine
 10
52.637427
 20
269.687353
 30
0.0
 11
52.637427
 21
267.834285
 31
0.0
  0
SPLINE
  5
10a
100
AcDbEntity
  8
Calque_1
 62
7
100
AcDbSpline
 70
0
 71
3
 72
25
 73
21
 74
19
 40
0.000000
 40
0.000000
 40
0.000000
 40
0.000000
 40
4.087334
 40
7.057554
 40
9.622446
 40
11.667386
 40
13.486441
 40
15.506645
 40
17.020020
 40
19.122979
 40
22.718514
 40
32.437864
 40
39.749754
 40
44.460269
 40
45.577594
 40
46.786106
 40
48.394325
 40
49.145009
 40
49.617498
 40
49.752821
 40
49.752821
 40
49.752821
 40
49.752821
 10
102.808269
 20
265.961185
 30
0.0
 10
104.019712
 20
265.336988
 30
0.0
 10
106.111497
 20
264.259194
 30
0.0
 10
108.667266
 20
262.249135
 30
0.0
 10
110.062631
 20
260.103866
 30
0.0
 10
110.709020
 20
257.999212
 30
0.0
 10
110.265586
 20
255.995867
 30
0.0
 10
109.056662
 20
254.608632
 30
0.0
 10
107.431812
 20
253.611180
 30
0.0
 10
105.021186
 20
253.219371
 30
0.0
 10
99.920466
 20
252.844513
 30
0.0
 10
93.026313
 20
252.184565
 30
0.0
 10
86.009719
 20
250.645251
 30
0.0
 10
81.756663
 20
249.021092
 30
0.0
 10
80.181016
 20
247.230700
 30
0.0
 10
79.715599
 20
245.984246
 30
0.0
 10
79.607943
 20
244.769608
 30
0.0
 10
79.424616
 20
243.895083
 30
0.0
 10
79.424125
 20
243.358272
 30
0.0
 10
79.236339
 20
243.265174
 30
0.0
 10
79.194530
 20
243.244446
 30
0.0
 11
102.808269
 21
265.961185
 31
0.0
 11
106.369726
 21
263.955612
 31
0.0
 11
108.644990
 21
262.046324
 31
0.0
 11
110.039127
 21
259.893407
 31
0.0
 11
110.541360
 21
257.911099
 31
0.0
 11
110.151036
 21
256.134415
 31
0.0
 11
108.870103
 21
254.572226
 31
0.0
 11
107.572647
 21
253.793181
 31
0.0
 11
105.522751
 21
253.323754
 31
0.0
 11
101.943120
 21
252.985945
 31
0.0
 11
92.285495
 21
251.892302
 31
0.0
 11
85.165946
 21
250.226241
 31
0.0
 11
80.973410
 21
248.078780
 31
0.0
 11
80.258131
 21
247.220415
 31
0.0
 11
79.808581
 21
246.098628
 31
0.0
 11
79.544161
 21
244.512296
 31
0.0
 11
79.436267
 21
243.769405
 31
0.0
 11
79.310659
 21
243.313919
 31
0.0
 11
79.194530
 21
243.244446
 31
0.0
  0
ENDSEC
  0
SECTION
  2
OBJECTS
  0
DICTIONARY
  5
C
330
0
100
AcDbDictionary
  3
ACAD_GROUP
350
D
  3
ACAD_MLINESTYLE
350
17
  0
DICTIONARY
  5
D
330
C
100
AcDbDictionary
  0
DICTIONARY
  5
1A
330
C
100
AcDbDictionary
  0
DICTIONARY
  5
17
330
C
100
AcDbDictionary
  3
STANDARD
350
18
  0
DICTIONARY
  5
19
330
C
100
AcDbDictionary
  0
ENDSEC
  0
EOF
